%TF.GenerationSoftware,KiCad,Pcbnew,(6.0.1)*%
%TF.CreationDate,2022-04-06T09:48:50-07:00*%
%TF.ProjectId,EllieBoard,456c6c69-6542-46f6-9172-642e6b696361,rev?*%
%TF.SameCoordinates,Original*%
%TF.FileFunction,Soldermask,Top*%
%TF.FilePolarity,Negative*%
%FSLAX46Y46*%
G04 Gerber Fmt 4.6, Leading zero omitted, Abs format (unit mm)*
G04 Created by KiCad (PCBNEW (6.0.1)) date 2022-04-06 09:48:50*
%MOMM*%
%LPD*%
G01*
G04 APERTURE LIST*
G04 Aperture macros list*
%AMRoundRect*
0 Rectangle with rounded corners*
0 $1 Rounding radius*
0 $2 $3 $4 $5 $6 $7 $8 $9 X,Y pos of 4 corners*
0 Add a 4 corners polygon primitive as box body*
4,1,4,$2,$3,$4,$5,$6,$7,$8,$9,$2,$3,0*
0 Add four circle primitives for the rounded corners*
1,1,$1+$1,$2,$3*
1,1,$1+$1,$4,$5*
1,1,$1+$1,$6,$7*
1,1,$1+$1,$8,$9*
0 Add four rect primitives between the rounded corners*
20,1,$1+$1,$2,$3,$4,$5,0*
20,1,$1+$1,$4,$5,$6,$7,0*
20,1,$1+$1,$6,$7,$8,$9,0*
20,1,$1+$1,$8,$9,$2,$3,0*%
G04 Aperture macros list end*
%ADD10C,0.150000*%
%ADD11C,1.524000*%
%ADD12R,1.524000X1.524000*%
%ADD13RoundRect,0.250000X-0.625000X0.312500X-0.625000X-0.312500X0.625000X-0.312500X0.625000X0.312500X0*%
%ADD14C,1.200000*%
%ADD15RoundRect,0.250000X0.600000X0.725000X-0.600000X0.725000X-0.600000X-0.725000X0.600000X-0.725000X0*%
%ADD16O,1.700000X1.950000*%
%ADD17RoundRect,0.250000X-0.600000X-0.725000X0.600000X-0.725000X0.600000X0.725000X-0.600000X0.725000X0*%
%ADD18R,2.200000X2.200000*%
%ADD19C,2.200000*%
%ADD20RoundRect,0.250000X-0.750000X0.600000X-0.750000X-0.600000X0.750000X-0.600000X0.750000X0.600000X0*%
%ADD21O,2.000000X1.700000*%
%ADD22R,1.560000X1.560000*%
%ADD23C,1.560000*%
%ADD24RoundRect,0.250000X0.625000X-0.312500X0.625000X0.312500X-0.625000X0.312500X-0.625000X-0.312500X0*%
%ADD25C,6.400000*%
%ADD26C,1.100000*%
%ADD27RoundRect,0.250000X0.600000X0.750000X-0.600000X0.750000X-0.600000X-0.750000X0.600000X-0.750000X0*%
%ADD28O,1.700000X2.000000*%
G04 APERTURE END LIST*
D10*
X114300000Y-29845000D02*
X113030000Y-29845000D01*
X113030000Y-29845000D02*
X113030000Y-23495000D01*
X113030000Y-23495000D02*
X114300000Y-23495000D01*
X114300000Y-23495000D02*
X114300000Y-29845000D01*
G36*
X114300000Y-29845000D02*
G01*
X113030000Y-29845000D01*
X113030000Y-23495000D01*
X114300000Y-23495000D01*
X114300000Y-29845000D01*
G37*
X114300000Y-29845000D02*
X113030000Y-29845000D01*
X113030000Y-23495000D01*
X114300000Y-23495000D01*
X114300000Y-29845000D01*
X148590000Y-35560000D02*
X138430000Y-35560000D01*
X138430000Y-35560000D02*
X138430000Y-34290000D01*
X138430000Y-34290000D02*
X148590000Y-34290000D01*
X148590000Y-34290000D02*
X148590000Y-35560000D01*
G36*
X148590000Y-35560000D02*
G01*
X138430000Y-35560000D01*
X138430000Y-34290000D01*
X148590000Y-34290000D01*
X148590000Y-35560000D01*
G37*
X148590000Y-35560000D02*
X138430000Y-35560000D01*
X138430000Y-34290000D01*
X148590000Y-34290000D01*
X148590000Y-35560000D01*
X154940000Y-28575000D02*
X153670000Y-28575000D01*
X153670000Y-28575000D02*
X153670000Y-25400000D01*
X153670000Y-25400000D02*
X154940000Y-25400000D01*
X154940000Y-25400000D02*
X154940000Y-28575000D01*
G36*
X154940000Y-28575000D02*
G01*
X153670000Y-28575000D01*
X153670000Y-25400000D01*
X154940000Y-25400000D01*
X154940000Y-28575000D01*
G37*
X154940000Y-28575000D02*
X153670000Y-28575000D01*
X153670000Y-25400000D01*
X154940000Y-25400000D01*
X154940000Y-28575000D01*
X133350000Y-30480000D02*
X132080000Y-30480000D01*
X132080000Y-30480000D02*
X132080000Y-22860000D01*
X132080000Y-22860000D02*
X133350000Y-22860000D01*
X133350000Y-22860000D02*
X133350000Y-30480000D01*
G36*
X133350000Y-30480000D02*
G01*
X132080000Y-30480000D01*
X132080000Y-22860000D01*
X133350000Y-22860000D01*
X133350000Y-30480000D01*
G37*
X133350000Y-30480000D02*
X132080000Y-30480000D01*
X132080000Y-22860000D01*
X133350000Y-22860000D01*
X133350000Y-30480000D01*
X127000000Y-31750000D02*
X119380000Y-31750000D01*
X119380000Y-31750000D02*
X119380000Y-30480000D01*
X119380000Y-30480000D02*
X127000000Y-30480000D01*
X127000000Y-30480000D02*
X127000000Y-31750000D01*
G36*
X127000000Y-31750000D02*
G01*
X119380000Y-31750000D01*
X119380000Y-30480000D01*
X127000000Y-30480000D01*
X127000000Y-31750000D01*
G37*
X127000000Y-31750000D02*
X119380000Y-31750000D01*
X119380000Y-30480000D01*
X127000000Y-30480000D01*
X127000000Y-31750000D01*
X116840000Y-29845000D02*
X115570000Y-29845000D01*
X115570000Y-29845000D02*
X115570000Y-23495000D01*
X115570000Y-23495000D02*
X116840000Y-23495000D01*
X116840000Y-23495000D02*
X116840000Y-29845000D01*
G36*
X116840000Y-29845000D02*
G01*
X115570000Y-29845000D01*
X115570000Y-23495000D01*
X116840000Y-23495000D01*
X116840000Y-29845000D01*
G37*
X116840000Y-29845000D02*
X115570000Y-29845000D01*
X115570000Y-23495000D01*
X116840000Y-23495000D01*
X116840000Y-29845000D01*
X167640000Y-27305000D02*
X165735000Y-27305000D01*
X165735000Y-27305000D02*
X165735000Y-24765000D01*
X165735000Y-24765000D02*
X167640000Y-24765000D01*
X167640000Y-24765000D02*
X167640000Y-27305000D01*
G36*
X167640000Y-27305000D02*
G01*
X165735000Y-27305000D01*
X165735000Y-24765000D01*
X167640000Y-24765000D01*
X167640000Y-27305000D01*
G37*
X167640000Y-27305000D02*
X165735000Y-27305000D01*
X165735000Y-24765000D01*
X167640000Y-24765000D01*
X167640000Y-27305000D01*
X135890000Y-30480000D02*
X134620000Y-30480000D01*
X134620000Y-30480000D02*
X134620000Y-22860000D01*
X134620000Y-22860000D02*
X135890000Y-22860000D01*
X135890000Y-22860000D02*
X135890000Y-30480000D01*
G36*
X135890000Y-30480000D02*
G01*
X134620000Y-30480000D01*
X134620000Y-22860000D01*
X135890000Y-22860000D01*
X135890000Y-30480000D01*
G37*
X135890000Y-30480000D02*
X134620000Y-30480000D01*
X134620000Y-22860000D01*
X135890000Y-22860000D01*
X135890000Y-30480000D01*
D11*
%TO.C,HX711 Breakout 6*%
X78105000Y-119380000D03*
X78105000Y-121920000D03*
X78083895Y-124289146D03*
X78105000Y-127000000D03*
X78105000Y-129540000D03*
X78105000Y-132080000D03*
D12*
X106045000Y-121920000D03*
D11*
X106045000Y-124460000D03*
X106045000Y-127000000D03*
X106045000Y-129540000D03*
%TD*%
D13*
%TO.C,R15*%
X133985000Y-144395000D03*
X133985000Y-147320000D03*
%TD*%
D14*
%TO.C,Servo 1 *%
X117805000Y-32290000D03*
D15*
X116205000Y-34290000D03*
D16*
X113705000Y-34290000D03*
X111205000Y-34290000D03*
%TD*%
D14*
%TO.C,Load Cell 8*%
X184510000Y-156415000D03*
D17*
X186110000Y-154415000D03*
D16*
X188610000Y-154415000D03*
X191110000Y-154415000D03*
X193610000Y-154415000D03*
%TD*%
D18*
%TO.C,Load Cell Backup 2*%
X53970000Y-165100000D03*
D19*
X56510000Y-165100000D03*
X59050000Y-165100000D03*
X61590000Y-165100000D03*
%TD*%
D11*
%TO.C,HX711 Breakout 4*%
X179705000Y-91440000D03*
X179705000Y-93980000D03*
X179683895Y-96349146D03*
X179705000Y-99060000D03*
X179705000Y-101600000D03*
X179705000Y-104140000D03*
D12*
X207645000Y-93980000D03*
D11*
X207645000Y-96520000D03*
X207645000Y-99060000D03*
X207645000Y-101600000D03*
%TD*%
%TO.C,HX711 Breakout 1*%
X28575000Y-85725000D03*
X28575000Y-88265000D03*
X28553895Y-90634146D03*
X28575000Y-93345000D03*
X28575000Y-95885000D03*
X28575000Y-98425000D03*
D12*
X56515000Y-88265000D03*
D11*
X56515000Y-90805000D03*
X56515000Y-93345000D03*
X56515000Y-95885000D03*
%TD*%
D14*
%TO.C,Battery*%
X182785000Y-24475000D03*
D20*
X184785000Y-26075000D03*
D21*
X184785000Y-28575000D03*
%TD*%
D13*
%TO.C,R4*%
X93345000Y-143317500D03*
X93345000Y-146242500D03*
%TD*%
D18*
%TO.C,Load Cell Backup 6*%
X120077983Y-165019965D03*
D19*
X122617983Y-165019965D03*
X125157983Y-165019965D03*
X127697983Y-165019965D03*
%TD*%
D13*
%TO.C,R17*%
X66296168Y-143666926D03*
X66296168Y-146591926D03*
%TD*%
D14*
%TO.C,Load Cell 2*%
X52410000Y-156940000D03*
D17*
X54010000Y-154940000D03*
D16*
X56510000Y-154940000D03*
X59010000Y-154940000D03*
X61510000Y-154940000D03*
%TD*%
D22*
%TO.C,ESP32*%
X142315000Y-46990000D03*
D23*
X139775000Y-46990000D03*
X137235000Y-46990000D03*
X134695000Y-46990000D03*
X132155000Y-46990000D03*
X129615000Y-46990000D03*
X127075000Y-46990000D03*
X124535000Y-46990000D03*
X121995000Y-46990000D03*
X119455000Y-46990000D03*
X116915000Y-46990000D03*
X114375000Y-46990000D03*
X111835000Y-46990000D03*
X109295000Y-46990000D03*
X106755000Y-46990000D03*
X104215000Y-46990000D03*
X101675000Y-46990000D03*
X99135000Y-46990000D03*
X96595000Y-46990000D03*
X142315000Y-72390000D03*
X139775000Y-72390000D03*
X137235000Y-72390000D03*
X134695000Y-72390000D03*
X132155000Y-72390000D03*
X129615000Y-72390000D03*
X127075000Y-72390000D03*
X124535000Y-72390000D03*
X121995000Y-72390000D03*
X119455000Y-72390000D03*
X116915000Y-72390000D03*
X114375000Y-72390000D03*
X111835000Y-72390000D03*
X109295000Y-72390000D03*
X106755000Y-72390000D03*
X104215000Y-72390000D03*
X101675000Y-72390000D03*
X99135000Y-72390000D03*
X96595000Y-72390000D03*
%TD*%
D24*
%TO.C,R1*%
X30850000Y-146242500D03*
X30850000Y-143317500D03*
%TD*%
D11*
%TO.C,HX711 Breakout 2*%
X78105000Y-91440000D03*
X78105000Y-93980000D03*
X78083895Y-96349146D03*
X78105000Y-99060000D03*
X78105000Y-101600000D03*
X78105000Y-104140000D03*
D12*
X106045000Y-93980000D03*
D11*
X106045000Y-96520000D03*
X106045000Y-99060000D03*
X106045000Y-101600000D03*
%TD*%
D24*
%TO.C,R12*%
X186323986Y-147602162D03*
X186323986Y-144677162D03*
%TD*%
D14*
%TO.C,Flow Meter *%
X80935000Y-34830000D03*
D15*
X79335000Y-36830000D03*
D16*
X76835000Y-36830000D03*
X74335000Y-36830000D03*
%TD*%
D24*
%TO.C,R3*%
X98425000Y-146242500D03*
X98425000Y-143317500D03*
%TD*%
D11*
%TO.C,HX711 Breakout 3*%
X128270000Y-91440000D03*
X128270000Y-93980000D03*
X128248895Y-96349146D03*
X128270000Y-99060000D03*
X128270000Y-101600000D03*
X128270000Y-104140000D03*
D12*
X156210000Y-93980000D03*
D11*
X156210000Y-96520000D03*
X156210000Y-99060000D03*
X156210000Y-101600000D03*
%TD*%
D25*
%TO.C,REF\u002A\u002A*%
X25400000Y-18415000D03*
%TD*%
D13*
%TO.C,R9*%
X67945000Y-51685000D03*
X67945000Y-54610000D03*
%TD*%
D11*
%TO.C,HX711 Breakout 8*%
X179705000Y-119380000D03*
X179705000Y-121920000D03*
X179683895Y-124289146D03*
X179705000Y-127000000D03*
X179705000Y-129540000D03*
X179705000Y-132080000D03*
D12*
X207645000Y-121920000D03*
D11*
X207645000Y-124460000D03*
X207645000Y-127000000D03*
X207645000Y-129540000D03*
%TD*%
D25*
%TO.C,*%
X212090000Y-168910000D03*
%TD*%
D24*
%TO.C,R5*%
X163210890Y-147422837D03*
X163210890Y-144497837D03*
%TD*%
D14*
%TO.C,Servo 2 *%
X136815000Y-32815000D03*
D15*
X135215000Y-34815000D03*
D16*
X132715000Y-34815000D03*
X130215000Y-34815000D03*
%TD*%
D14*
%TO.C,Load Cell 7*%
X161665000Y-156270536D03*
D17*
X163265000Y-154270536D03*
D16*
X165765000Y-154270536D03*
X168265000Y-154270536D03*
X170765000Y-154270536D03*
%TD*%
D24*
%TO.C,R10*%
X50165000Y-146242500D03*
X50165000Y-143317500D03*
%TD*%
D18*
%TO.C,Load Cell Backup 8*%
X163185000Y-165100000D03*
D19*
X165725000Y-165100000D03*
X168265000Y-165100000D03*
X170805000Y-165100000D03*
%TD*%
D24*
%TO.C,R14*%
X139028114Y-147425553D03*
X139028114Y-144500553D03*
%TD*%
D11*
%TO.C,HX711 Breakout 7*%
X128905000Y-119380000D03*
X128905000Y-121920000D03*
X128883895Y-124289146D03*
X128905000Y-127000000D03*
X128905000Y-129540000D03*
X128905000Y-132080000D03*
D12*
X156845000Y-121920000D03*
D11*
X156845000Y-124460000D03*
X156845000Y-127000000D03*
X156845000Y-129540000D03*
%TD*%
D26*
%TO.C,Igniter 1 Backup*%
X154345000Y-19050000D03*
X151805000Y-19050000D03*
D18*
X154345000Y-21590000D03*
D19*
X151805000Y-21590000D03*
%TD*%
D26*
%TO.C,Igniter 2 Backup*%
X164215000Y-18510000D03*
X166755000Y-18510000D03*
D18*
X166755000Y-21050000D03*
D19*
X164215000Y-21050000D03*
%TD*%
D14*
%TO.C,Load Cell 3*%
X74020000Y-156415000D03*
D17*
X75620000Y-154415000D03*
D16*
X78120000Y-154415000D03*
X80620000Y-154415000D03*
X83120000Y-154415000D03*
%TD*%
D18*
%TO.C,Load Cell Backup 3*%
X75665656Y-164765581D03*
D19*
X78205656Y-164765581D03*
X80745656Y-164765581D03*
X83285656Y-164765581D03*
%TD*%
D18*
%TO.C,Load Cell Backup 4*%
X98425000Y-165100000D03*
D19*
X100965000Y-165100000D03*
X103505000Y-165100000D03*
X106045000Y-165100000D03*
%TD*%
D14*
%TO.C,Igniter 2 *%
X168605000Y-29750000D03*
D27*
X167005000Y-31750000D03*
D28*
X164505000Y-31750000D03*
%TD*%
D24*
%TO.C,R16*%
X73025000Y-146591926D03*
X73025000Y-143666926D03*
%TD*%
D13*
%TO.C,R6*%
X157567400Y-144460952D03*
X157567400Y-147385952D03*
%TD*%
D18*
%TO.C,Load Cell Backup 9*%
X186045000Y-165100000D03*
D19*
X188585000Y-165100000D03*
X191125000Y-165100000D03*
X193665000Y-165100000D03*
%TD*%
D13*
%TO.C,R2*%
X24765000Y-143317500D03*
X24765000Y-146242500D03*
%TD*%
D14*
%TO.C,Load Cell 5*%
X118475000Y-156415000D03*
D17*
X120075000Y-154415000D03*
D16*
X122575000Y-154415000D03*
X125075000Y-154415000D03*
X127575000Y-154415000D03*
%TD*%
D11*
%TO.C,Relay Board*%
X167005000Y-69850000D03*
X167005000Y-67310000D03*
X167005000Y-64770000D03*
X167005000Y-62230000D03*
%TD*%
D14*
%TO.C,Igniter 1 *%
X155945000Y-31020000D03*
D27*
X154345000Y-33020000D03*
D28*
X151845000Y-33020000D03*
%TD*%
D13*
%TO.C,R8*%
X114480658Y-144585992D03*
X114480658Y-147510992D03*
%TD*%
D24*
%TO.C,R7*%
X119964311Y-147696047D03*
X119964311Y-144771047D03*
%TD*%
D26*
%TO.C,Flow Meter Backup*%
X60325000Y-34290000D03*
X57785000Y-34290000D03*
X55245000Y-34290000D03*
D18*
X60325000Y-36830000D03*
D19*
X57785000Y-36830000D03*
X55245000Y-36830000D03*
%TD*%
D11*
%TO.C,HX711 Breakout 5*%
X28575000Y-111760000D03*
X28575000Y-114300000D03*
X28553895Y-116669146D03*
X28575000Y-119380000D03*
X28575000Y-121920000D03*
X28575000Y-124460000D03*
D12*
X56515000Y-114300000D03*
D11*
X56515000Y-116840000D03*
X56515000Y-119380000D03*
X56515000Y-121920000D03*
%TD*%
D26*
%TO.C,Servo 2 Backup*%
X135255000Y-16510000D03*
X132715000Y-16510000D03*
X130175000Y-16510000D03*
D18*
X135255000Y-19050000D03*
D19*
X132715000Y-19050000D03*
X130175000Y-19050000D03*
%TD*%
D13*
%TO.C,R13*%
X45085000Y-143317500D03*
X45085000Y-146242500D03*
%TD*%
D25*
%TO.C,*%
X212090000Y-18415000D03*
%TD*%
D11*
%TO.C,SD Card Reader*%
X59055000Y-54610000D03*
X59055000Y-57150000D03*
X59055000Y-59690000D03*
X59055000Y-62230000D03*
X59055000Y-64770000D03*
X59055000Y-67310000D03*
X59055000Y-69850000D03*
X59055000Y-72390000D03*
%TD*%
D14*
%TO.C,Load Cell 6*%
X140070000Y-156415000D03*
D17*
X141670000Y-154415000D03*
D16*
X144170000Y-154415000D03*
X146670000Y-154415000D03*
X149170000Y-154415000D03*
%TD*%
D25*
%TO.C,*%
X25400000Y-168910000D03*
%TD*%
D18*
%TO.C,Load Cell Backup 7*%
X141605000Y-165100000D03*
D19*
X144145000Y-165100000D03*
X146685000Y-165100000D03*
X149225000Y-165100000D03*
%TD*%
D13*
%TO.C,R11*%
X180569838Y-144714047D03*
X180569838Y-147639047D03*
%TD*%
D14*
%TO.C,Load Cell 1*%
X32115000Y-156415000D03*
D17*
X33715000Y-154415000D03*
D16*
X36215000Y-154415000D03*
X38715000Y-154415000D03*
X41215000Y-154415000D03*
%TD*%
D14*
%TO.C,Load Cell 4*%
X96890000Y-156415000D03*
D17*
X98490000Y-154415000D03*
D16*
X100990000Y-154415000D03*
X103490000Y-154415000D03*
X105990000Y-154415000D03*
%TD*%
D18*
%TO.C,Load Cell Backup 1*%
X33650000Y-165100000D03*
D19*
X36190000Y-165100000D03*
X38730000Y-165100000D03*
X41270000Y-165100000D03*
%TD*%
D26*
%TO.C,Servo 1 Backup*%
X113745000Y-16510000D03*
X116285000Y-16510000D03*
X111205000Y-16510000D03*
D18*
X116285000Y-19050000D03*
D19*
X113745000Y-19050000D03*
X111205000Y-19050000D03*
%TD*%
M02*
