M48
; DRILL file {KiCad (6.0.1)} date Wed Apr  6 02:01:33 2022
; FORMAT={-:-/ absolute / inch / decimal}
; #@! TF.CreationDate,2022-04-06T02:01:33-07:00
; #@! TF.GenerationSoftware,Kicad,Pcbnew,(6.0.1)
; #@! TF.FileFunction,Plated,1,2,PTH
FMAT,2
INCH
; #@! TA.AperFunction,Plated,PTH,ViaDrill
T1C0.0157
; #@! TA.AperFunction,Plated,PTH,ComponentDrill
T2C0.0300
; #@! TA.AperFunction,Plated,PTH,ComponentDrill
T3C0.0374
; #@! TA.AperFunction,Plated,PTH,ComponentDrill
T4C0.0394
; #@! TA.AperFunction,Plated,PTH,ComponentDrill
T5C0.0409
; #@! TA.AperFunction,Plated,PTH,ComponentDrill
T6C0.0433
; #@! TA.AperFunction,Plated,PTH,ComponentDrill
T7C0.1260
%
G90
G05
T1
X0.9Y-4.475
X1.125Y-5.525
X1.425Y-5.6
X1.525Y-5.475
X2.75Y-3.125
X2.775Y-2.7
X3.825Y-3.325
X4.05Y-2.0285
X4.3Y-2.675
X4.5Y-1.55
X4.7591Y-2.3659
X4.9Y-3.125
X4.95Y-3.0
X5.025Y-2.2
X5.103Y-3.047
X5.175Y-2.725
X5.225Y-2.075
X5.35Y-3.025
X5.65Y-3.35
X5.925Y-3.0
X6.425Y-3.375
X6.5Y-3.925
X6.6Y-3.15
X7.1Y-5.525
X7.325Y-2.65
T2
X1.1242Y-3.5683
X1.1242Y-4.5933
X1.125Y-3.375
X1.125Y-3.475
X1.125Y-3.675
X1.125Y-3.775
X1.125Y-3.875
X1.125Y-4.4
X1.125Y-4.5
X1.125Y-4.7
X1.125Y-4.8
X1.125Y-4.9
X2.225Y-3.475
X2.225Y-3.575
X2.225Y-3.675
X2.225Y-3.775
X2.225Y-4.5
X2.225Y-4.6
X2.225Y-4.7
X2.225Y-4.8
X2.325Y-2.15
X2.325Y-2.25
X2.325Y-2.35
X2.325Y-2.45
X2.325Y-2.55
X2.325Y-2.65
X2.325Y-2.75
X2.325Y-2.85
X3.0742Y-3.7933
X3.0742Y-4.8933
X3.075Y-3.6
X3.075Y-3.7
X3.075Y-3.9
X3.075Y-4.0
X3.075Y-4.1
X3.075Y-4.7
X3.075Y-4.8
X3.075Y-5.0
X3.075Y-5.1
X3.075Y-5.2
X4.175Y-3.7
X4.175Y-3.8
X4.175Y-3.9
X4.175Y-4.0
X4.175Y-4.8
X4.175Y-4.9
X4.175Y-5.0
X4.175Y-5.1
X5.0492Y-3.7933
X5.05Y-3.6
X5.05Y-3.7
X5.05Y-3.9
X5.05Y-4.0
X5.05Y-4.1
X5.0742Y-4.8933
X5.075Y-4.7
X5.075Y-4.8
X5.075Y-5.0
X5.075Y-5.1
X5.075Y-5.2
X6.15Y-3.7
X6.15Y-3.8
X6.15Y-3.9
X6.15Y-4.0
X6.175Y-4.8
X6.175Y-4.9
X6.175Y-5.0
X6.175Y-5.1
X6.575Y-2.45
X6.575Y-2.55
X6.575Y-2.65
X6.575Y-2.75
X7.0742Y-3.7933
X7.0742Y-4.8933
X7.075Y-3.6
X7.075Y-3.7
X7.075Y-3.9
X7.075Y-4.0
X7.075Y-4.1
X7.075Y-4.7
X7.075Y-4.8
X7.075Y-5.0
X7.075Y-5.1
X7.075Y-5.2
X8.175Y-3.7
X8.175Y-3.8
X8.175Y-3.9
X8.175Y-4.0
X8.175Y-4.8
X8.175Y-4.9
X8.175Y-5.0
X8.175Y-5.1
T3
X1.3274Y-6.0793
X1.4258Y-6.0793
X1.5242Y-6.0793
X1.6226Y-6.0793
X2.1264Y-6.1
X2.2248Y-6.1
X2.3232Y-6.1
X2.4217Y-6.1
X2.9266Y-1.45
X2.9772Y-6.0793
X3.025Y-1.45
X3.0756Y-6.0793
X3.1234Y-1.45
X3.174Y-6.0793
X3.2724Y-6.0793
X3.8776Y-6.0793
X3.976Y-6.0793
X4.0744Y-6.0793
X4.1728Y-6.0793
X4.3781Y-1.35
X4.4766Y-1.35
X4.575Y-1.35
X4.7274Y-6.0793
X4.8258Y-6.0793
X4.9242Y-6.0793
X5.0226Y-6.0793
X5.1266Y-1.3707
X5.225Y-1.3707
X5.3234Y-1.3707
X5.5776Y-6.0793
X5.676Y-6.0793
X5.7744Y-6.0793
X5.8728Y-6.0793
X6.4278Y-6.0736
X6.5262Y-6.0736
X6.6246Y-6.0736
X6.723Y-6.0736
X7.3272Y-6.0793
X7.4256Y-6.0793
X7.524Y-6.0793
X7.6224Y-6.0793
T4
X5.9781Y-1.3
X6.0766Y-1.3
X6.4766Y-1.25
X6.575Y-1.25
X7.275Y-1.0266
X7.275Y-1.125
T5
X3.803Y-1.85
X3.803Y-2.85
X3.903Y-1.85
X3.903Y-2.85
X4.003Y-1.85
X4.003Y-2.85
X4.103Y-1.85
X4.103Y-2.85
X4.203Y-1.85
X4.203Y-2.85
X4.303Y-1.85
X4.303Y-2.85
X4.403Y-1.85
X4.403Y-2.85
X4.503Y-1.85
X4.503Y-2.85
X4.603Y-1.85
X4.603Y-2.85
X4.703Y-1.85
X4.703Y-2.85
X4.803Y-1.85
X4.803Y-2.85
X4.903Y-1.85
X4.903Y-2.85
X5.003Y-1.85
X5.003Y-2.85
X5.103Y-1.85
X5.103Y-2.85
X5.203Y-1.85
X5.203Y-2.85
X5.303Y-1.85
X5.303Y-2.85
X5.403Y-1.85
X5.403Y-2.85
X5.503Y-1.85
X5.503Y-2.85
X5.603Y-1.85
X5.603Y-2.85
T6
X1.3248Y-6.5
X1.4248Y-6.5
X1.5248Y-6.5
X1.6248Y-6.5
X2.1248Y-6.5
X2.175Y-1.45
X2.2248Y-6.5
X2.275Y-1.45
X2.3248Y-6.5
X2.375Y-1.45
X2.4248Y-6.5
X2.979Y-6.4868
X3.079Y-6.4868
X3.179Y-6.4868
X3.279Y-6.4868
X3.875Y-6.5
X3.975Y-6.5
X4.075Y-6.5
X4.175Y-6.5
X4.3781Y-0.75
X4.4781Y-0.75
X4.5781Y-0.75
X4.7275Y-6.4968
X4.8275Y-6.4968
X4.9275Y-6.4968
X5.0275Y-6.4968
X5.125Y-0.75
X5.225Y-0.75
X5.325Y-0.75
X5.575Y-6.5
X5.675Y-6.5
X5.775Y-6.5
X5.875Y-6.5
X5.9766Y-0.85
X6.0766Y-0.85
X6.4246Y-6.5
X6.4652Y-0.8287
X6.5246Y-6.5
X6.5652Y-0.8287
X6.6246Y-6.5
X6.7246Y-6.5
X7.3246Y-6.5
X7.4246Y-6.5
X7.5246Y-6.5
X7.6246Y-6.5
T7
X1.0Y-0.725
X1.0Y-6.65
X8.35Y-0.725
X8.35Y-6.65
T0
M30
