M48
; DRILL file {KiCad (6.0.1)} date Wed Apr  6 02:01:33 2022
; FORMAT={-:-/ absolute / inch / decimal}
; #@! TF.CreationDate,2022-04-06T02:01:33-07:00
; #@! TF.GenerationSoftware,Kicad,Pcbnew,(6.0.1)
; #@! TF.FileFunction,NonPlated,1,2,NPTH
FMAT,2
INCH
; #@! TA.AperFunction,NonPlated,NPTH,ComponentDrill
T1C0.0433
; #@! TA.AperFunction,NonPlated,NPTH,ComponentDrill
T2C0.0472
%
G90
G05
T1
X2.175Y-1.35
X2.275Y-1.35
X2.375Y-1.35
X4.3781Y-0.65
X4.4781Y-0.65
X4.5781Y-0.65
X5.125Y-0.65
X5.225Y-0.65
X5.325Y-0.65
X5.9766Y-0.75
X6.0766Y-0.75
X6.4652Y-0.7287
X6.5652Y-0.7287
T2
X1.2644Y-6.1581
X2.0634Y-6.1787
X2.9142Y-6.1581
X3.1864Y-1.3713
X3.8146Y-6.1581
X4.638Y-1.2713
X4.6644Y-6.1581
X5.3864Y-1.2919
X5.5146Y-6.1581
X6.1396Y-1.2213
X6.3648Y-6.1524
X6.638Y-1.1713
X7.1963Y-0.9636
X7.2642Y-6.1581
T0
M30
