%TF.GenerationSoftware,KiCad,Pcbnew,(6.0.1)*%
%TF.CreationDate,2022-04-06T01:57:14-07:00*%
%TF.ProjectId,EllieBoard,456c6c69-6542-46f6-9172-642e6b696361,rev?*%
%TF.SameCoordinates,Original*%
%TF.FileFunction,Legend,Top*%
%TF.FilePolarity,Positive*%
%FSLAX46Y46*%
G04 Gerber Fmt 4.6, Leading zero omitted, Abs format (unit mm)*
G04 Created by KiCad (PCBNEW (6.0.1)) date 2022-04-06 01:57:14*
%MOMM*%
%LPD*%
G01*
G04 APERTURE LIST*
%ADD10C,0.150000*%
%ADD11C,0.120000*%
%ADD12C,0.127000*%
G04 APERTURE END LIST*
D10*
X100766666Y-150423571D02*
X101100000Y-150423571D01*
X101242857Y-150947380D02*
X100766666Y-150947380D01*
X100766666Y-149947380D01*
X101242857Y-149947380D01*
X101671428Y-150566428D02*
X102433333Y-150566428D01*
X105822857Y-150661666D02*
X106299047Y-150661666D01*
X105727619Y-150947380D02*
X106060952Y-149947380D01*
X106394285Y-150947380D01*
X106727619Y-150566428D02*
X107489523Y-150566428D01*
X107108571Y-150947380D02*
X107108571Y-150185476D01*
X193452857Y-150661666D02*
X193929047Y-150661666D01*
X193357619Y-150947380D02*
X193690952Y-149947380D01*
X194024285Y-150947380D01*
X194357619Y-150566428D02*
X195119523Y-150566428D01*
X194738571Y-150947380D02*
X194738571Y-150185476D01*
X115621666Y-38552380D02*
X115621666Y-37552380D01*
X116002619Y-37552380D01*
X116097857Y-37600000D01*
X116145476Y-37647619D01*
X116193095Y-37742857D01*
X116193095Y-37885714D01*
X116145476Y-37980952D01*
X116097857Y-38028571D01*
X116002619Y-38076190D01*
X115621666Y-38076190D01*
X116526428Y-37552380D02*
X116764523Y-38552380D01*
X116955000Y-37838095D01*
X117145476Y-38552380D01*
X117383571Y-37552380D01*
X118335952Y-38552380D02*
X118002619Y-38076190D01*
X117764523Y-38552380D02*
X117764523Y-37552380D01*
X118145476Y-37552380D01*
X118240714Y-37600000D01*
X118288333Y-37647619D01*
X118335952Y-37742857D01*
X118335952Y-37885714D01*
X118288333Y-37980952D01*
X118240714Y-38028571D01*
X118145476Y-38076190D01*
X117764523Y-38076190D01*
X164901666Y-150423571D02*
X165235000Y-150423571D01*
X165377857Y-150947380D02*
X164901666Y-150947380D01*
X164901666Y-149947380D01*
X165377857Y-149947380D01*
X165806428Y-150566428D02*
X166568333Y-150566428D01*
X59626666Y-31567380D02*
X59626666Y-30567380D01*
X60007619Y-30567380D01*
X60102857Y-30615000D01*
X60150476Y-30662619D01*
X60198095Y-30757857D01*
X60198095Y-30900714D01*
X60150476Y-30995952D01*
X60102857Y-31043571D01*
X60007619Y-31091190D01*
X59626666Y-31091190D01*
X60531428Y-30567380D02*
X60769523Y-31567380D01*
X60960000Y-30853095D01*
X61150476Y-31567380D01*
X61388571Y-30567380D01*
X62340952Y-31567380D02*
X62007619Y-31091190D01*
X61769523Y-31567380D02*
X61769523Y-30567380D01*
X62150476Y-30567380D01*
X62245714Y-30615000D01*
X62293333Y-30662619D01*
X62340952Y-30757857D01*
X62340952Y-30900714D01*
X62293333Y-30995952D01*
X62245714Y-31043571D01*
X62150476Y-31091190D01*
X61769523Y-31091190D01*
X77906666Y-150423571D02*
X78240000Y-150423571D01*
X78382857Y-150947380D02*
X77906666Y-150947380D01*
X77906666Y-149947380D01*
X78382857Y-149947380D01*
X78811428Y-150566428D02*
X79573333Y-150566428D01*
X33456666Y-150423571D02*
X33790000Y-150423571D01*
X33932857Y-150947380D02*
X33456666Y-150947380D01*
X33456666Y-149947380D01*
X33932857Y-149947380D01*
X34361428Y-150566428D02*
X35123333Y-150566428D01*
X34742380Y-150947380D02*
X34742380Y-150185476D01*
X131238809Y-39187380D02*
X131238809Y-38187380D01*
X131905476Y-38187380D02*
X132095952Y-38187380D01*
X132191190Y-38235000D01*
X132286428Y-38330238D01*
X132334047Y-38520714D01*
X132334047Y-38854047D01*
X132286428Y-39044523D01*
X132191190Y-39139761D01*
X132095952Y-39187380D01*
X131905476Y-39187380D01*
X131810238Y-39139761D01*
X131715000Y-39044523D01*
X131667380Y-38854047D01*
X131667380Y-38520714D01*
X131715000Y-38330238D01*
X131810238Y-38235000D01*
X131905476Y-38187380D01*
X133286428Y-39187380D02*
X132715000Y-39187380D01*
X133000714Y-39187380D02*
X133000714Y-38187380D01*
X132905476Y-38330238D01*
X132810238Y-38425476D01*
X132715000Y-38473095D01*
X133667380Y-38282619D02*
X133715000Y-38235000D01*
X133810238Y-38187380D01*
X134048333Y-38187380D01*
X134143571Y-38235000D01*
X134191190Y-38282619D01*
X134238809Y-38377857D01*
X134238809Y-38473095D01*
X134191190Y-38615952D01*
X133619761Y-39187380D01*
X134238809Y-39187380D01*
X41052857Y-150661666D02*
X41529047Y-150661666D01*
X40957619Y-150947380D02*
X41290952Y-149947380D01*
X41624285Y-150947380D01*
X41957619Y-150566428D02*
X42719523Y-150566428D01*
X42338571Y-150947380D02*
X42338571Y-150185476D01*
X146462857Y-150661666D02*
X146939047Y-150661666D01*
X146367619Y-150947380D02*
X146700952Y-149947380D01*
X147034285Y-150947380D01*
X147367619Y-150566428D02*
X148129523Y-150566428D01*
X109693095Y-37600000D02*
X109597857Y-37552380D01*
X109455000Y-37552380D01*
X109312142Y-37600000D01*
X109216904Y-37695238D01*
X109169285Y-37790476D01*
X109121666Y-37980952D01*
X109121666Y-38123809D01*
X109169285Y-38314285D01*
X109216904Y-38409523D01*
X109312142Y-38504761D01*
X109455000Y-38552380D01*
X109550238Y-38552380D01*
X109693095Y-38504761D01*
X109740714Y-38457142D01*
X109740714Y-38123809D01*
X109550238Y-38123809D01*
X110169285Y-38552380D02*
X110169285Y-37552380D01*
X110740714Y-38552380D01*
X110740714Y-37552380D01*
X111216904Y-38552380D02*
X111216904Y-37552380D01*
X111455000Y-37552380D01*
X111597857Y-37600000D01*
X111693095Y-37695238D01*
X111740714Y-37790476D01*
X111788333Y-37980952D01*
X111788333Y-38123809D01*
X111740714Y-38314285D01*
X111693095Y-38409523D01*
X111597857Y-38504761D01*
X111455000Y-38552380D01*
X111216904Y-38552380D01*
X185221666Y-150423571D02*
X185555000Y-150423571D01*
X185697857Y-150947380D02*
X185221666Y-150947380D01*
X185221666Y-149947380D01*
X185697857Y-149947380D01*
X186126428Y-150566428D02*
X186888333Y-150566428D01*
X186507380Y-150947380D02*
X186507380Y-150185476D01*
X58832857Y-151296666D02*
X59309047Y-151296666D01*
X58737619Y-151582380D02*
X59070952Y-150582380D01*
X59404285Y-151582380D01*
X59737619Y-151201428D02*
X60499523Y-151201428D01*
X162361666Y-150423571D02*
X162695000Y-150423571D01*
X162837857Y-150947380D02*
X162361666Y-150947380D01*
X162361666Y-149947380D01*
X162837857Y-149947380D01*
X163266428Y-150566428D02*
X164028333Y-150566428D01*
X163647380Y-150947380D02*
X163647380Y-150185476D01*
X75358809Y-41092380D02*
X75358809Y-40092380D01*
X76025476Y-40092380D02*
X76215952Y-40092380D01*
X76311190Y-40140000D01*
X76406428Y-40235238D01*
X76454047Y-40425714D01*
X76454047Y-40759047D01*
X76406428Y-40949523D01*
X76311190Y-41044761D01*
X76215952Y-41092380D01*
X76025476Y-41092380D01*
X75930238Y-41044761D01*
X75835000Y-40949523D01*
X75787380Y-40759047D01*
X75787380Y-40425714D01*
X75835000Y-40235238D01*
X75930238Y-40140000D01*
X76025476Y-40092380D01*
X77406428Y-41092380D02*
X76835000Y-41092380D01*
X77120714Y-41092380D02*
X77120714Y-40092380D01*
X77025476Y-40235238D01*
X76930238Y-40330476D01*
X76835000Y-40378095D01*
X77977857Y-40520952D02*
X77882619Y-40473333D01*
X77835000Y-40425714D01*
X77787380Y-40330476D01*
X77787380Y-40282857D01*
X77835000Y-40187619D01*
X77882619Y-40140000D01*
X77977857Y-40092380D01*
X78168333Y-40092380D01*
X78263571Y-40140000D01*
X78311190Y-40187619D01*
X78358809Y-40282857D01*
X78358809Y-40330476D01*
X78311190Y-40425714D01*
X78263571Y-40473333D01*
X78168333Y-40520952D01*
X77977857Y-40520952D01*
X77882619Y-40568571D01*
X77835000Y-40616190D01*
X77787380Y-40711428D01*
X77787380Y-40901904D01*
X77835000Y-40997142D01*
X77882619Y-41044761D01*
X77977857Y-41092380D01*
X78168333Y-41092380D01*
X78263571Y-41044761D01*
X78311190Y-40997142D01*
X78358809Y-40901904D01*
X78358809Y-40711428D01*
X78311190Y-40616190D01*
X78263571Y-40568571D01*
X78168333Y-40520952D01*
X55681666Y-151058571D02*
X56015000Y-151058571D01*
X56157857Y-151582380D02*
X55681666Y-151582380D01*
X55681666Y-150582380D01*
X56157857Y-150582380D01*
X56586428Y-151201428D02*
X57348333Y-151201428D01*
X127412857Y-150661666D02*
X127889047Y-150661666D01*
X127317619Y-150947380D02*
X127650952Y-149947380D01*
X127984285Y-150947380D01*
X128317619Y-150566428D02*
X129079523Y-150566428D01*
X128698571Y-150947380D02*
X128698571Y-150185476D01*
X98226666Y-150423571D02*
X98560000Y-150423571D01*
X98702857Y-150947380D02*
X98226666Y-150947380D01*
X98226666Y-149947380D01*
X98702857Y-149947380D01*
X99131428Y-150566428D02*
X99893333Y-150566428D01*
X99512380Y-150947380D02*
X99512380Y-150185476D01*
X112188809Y-38552380D02*
X112188809Y-37552380D01*
X112855476Y-37552380D02*
X113045952Y-37552380D01*
X113141190Y-37600000D01*
X113236428Y-37695238D01*
X113284047Y-37885714D01*
X113284047Y-38219047D01*
X113236428Y-38409523D01*
X113141190Y-38504761D01*
X113045952Y-38552380D01*
X112855476Y-38552380D01*
X112760238Y-38504761D01*
X112665000Y-38409523D01*
X112617380Y-38219047D01*
X112617380Y-37885714D01*
X112665000Y-37695238D01*
X112760238Y-37600000D01*
X112855476Y-37552380D01*
X114236428Y-38552380D02*
X113665000Y-38552380D01*
X113950714Y-38552380D02*
X113950714Y-37552380D01*
X113855476Y-37695238D01*
X113760238Y-37790476D01*
X113665000Y-37838095D01*
X114569761Y-37552380D02*
X115188809Y-37552380D01*
X114855476Y-37933333D01*
X114998333Y-37933333D01*
X115093571Y-37980952D01*
X115141190Y-38028571D01*
X115188809Y-38123809D01*
X115188809Y-38361904D01*
X115141190Y-38457142D01*
X115093571Y-38504761D01*
X114998333Y-38552380D01*
X114712619Y-38552380D01*
X114617380Y-38504761D01*
X114569761Y-38457142D01*
X168052857Y-150661666D02*
X168529047Y-150661666D01*
X167957619Y-150947380D02*
X168290952Y-149947380D01*
X168624285Y-150947380D01*
X168957619Y-150566428D02*
X169719523Y-150566428D01*
X143946666Y-150423571D02*
X144280000Y-150423571D01*
X144422857Y-150947380D02*
X143946666Y-150947380D01*
X143946666Y-149947380D01*
X144422857Y-149947380D01*
X144851428Y-150566428D02*
X145613333Y-150566428D01*
X103282857Y-150661666D02*
X103759047Y-150661666D01*
X103187619Y-150947380D02*
X103520952Y-149947380D01*
X103854285Y-150947380D01*
X104187619Y-150566428D02*
X104949523Y-150566428D01*
X56308809Y-41727380D02*
X56308809Y-40727380D01*
X56975476Y-40727380D02*
X57165952Y-40727380D01*
X57261190Y-40775000D01*
X57356428Y-40870238D01*
X57404047Y-41060714D01*
X57404047Y-41394047D01*
X57356428Y-41584523D01*
X57261190Y-41679761D01*
X57165952Y-41727380D01*
X56975476Y-41727380D01*
X56880238Y-41679761D01*
X56785000Y-41584523D01*
X56737380Y-41394047D01*
X56737380Y-41060714D01*
X56785000Y-40870238D01*
X56880238Y-40775000D01*
X56975476Y-40727380D01*
X58356428Y-41727380D02*
X57785000Y-41727380D01*
X58070714Y-41727380D02*
X58070714Y-40727380D01*
X57975476Y-40870238D01*
X57880238Y-40965476D01*
X57785000Y-41013095D01*
X58927857Y-41155952D02*
X58832619Y-41108333D01*
X58785000Y-41060714D01*
X58737380Y-40965476D01*
X58737380Y-40917857D01*
X58785000Y-40822619D01*
X58832619Y-40775000D01*
X58927857Y-40727380D01*
X59118333Y-40727380D01*
X59213571Y-40775000D01*
X59261190Y-40822619D01*
X59308809Y-40917857D01*
X59308809Y-40965476D01*
X59261190Y-41060714D01*
X59213571Y-41108333D01*
X59118333Y-41155952D01*
X58927857Y-41155952D01*
X58832619Y-41203571D01*
X58785000Y-41251190D01*
X58737380Y-41346428D01*
X58737380Y-41536904D01*
X58785000Y-41632142D01*
X58832619Y-41679761D01*
X58927857Y-41727380D01*
X59118333Y-41727380D01*
X59213571Y-41679761D01*
X59261190Y-41632142D01*
X59308809Y-41536904D01*
X59308809Y-41346428D01*
X59261190Y-41251190D01*
X59213571Y-41203571D01*
X59118333Y-41155952D01*
X82962857Y-150661666D02*
X83439047Y-150661666D01*
X82867619Y-150947380D02*
X83200952Y-149947380D01*
X83534285Y-150947380D01*
X83867619Y-150566428D02*
X84629523Y-150566428D01*
X84248571Y-150947380D02*
X84248571Y-150185476D01*
X75366666Y-150423571D02*
X75700000Y-150423571D01*
X75842857Y-150947380D02*
X75366666Y-150947380D01*
X75366666Y-149947380D01*
X75842857Y-149947380D01*
X76271428Y-150566428D02*
X77033333Y-150566428D01*
X76652380Y-150947380D02*
X76652380Y-150185476D01*
X178308095Y-28350000D02*
X178212857Y-28302380D01*
X178070000Y-28302380D01*
X177927142Y-28350000D01*
X177831904Y-28445238D01*
X177784285Y-28540476D01*
X177736666Y-28730952D01*
X177736666Y-28873809D01*
X177784285Y-29064285D01*
X177831904Y-29159523D01*
X177927142Y-29254761D01*
X178070000Y-29302380D01*
X178165238Y-29302380D01*
X178308095Y-29254761D01*
X178355714Y-29207142D01*
X178355714Y-28873809D01*
X178165238Y-28873809D01*
X178784285Y-29302380D02*
X178784285Y-28302380D01*
X179355714Y-29302380D01*
X179355714Y-28302380D01*
X179831904Y-29302380D02*
X179831904Y-28302380D01*
X180070000Y-28302380D01*
X180212857Y-28350000D01*
X180308095Y-28445238D01*
X180355714Y-28540476D01*
X180403333Y-28730952D01*
X180403333Y-28873809D01*
X180355714Y-29064285D01*
X180308095Y-29159523D01*
X180212857Y-29254761D01*
X180070000Y-29302380D01*
X179831904Y-29302380D01*
X188396666Y-150423571D02*
X188730000Y-150423571D01*
X188872857Y-150947380D02*
X188396666Y-150947380D01*
X188396666Y-149947380D01*
X188872857Y-149947380D01*
X189301428Y-150566428D02*
X190063333Y-150566428D01*
X190912857Y-150661666D02*
X191389047Y-150661666D01*
X190817619Y-150947380D02*
X191150952Y-149947380D01*
X191484285Y-150947380D01*
X191817619Y-150566428D02*
X192579523Y-150566428D01*
X177736666Y-25787380D02*
X177736666Y-24787380D01*
X178117619Y-24787380D01*
X178212857Y-24835000D01*
X178260476Y-24882619D01*
X178308095Y-24977857D01*
X178308095Y-25120714D01*
X178260476Y-25215952D01*
X178212857Y-25263571D01*
X178117619Y-25311190D01*
X177736666Y-25311190D01*
X178641428Y-24787380D02*
X178879523Y-25787380D01*
X179070000Y-25073095D01*
X179260476Y-25787380D01*
X179498571Y-24787380D01*
X180450952Y-25787380D02*
X180117619Y-25311190D01*
X179879523Y-25787380D02*
X179879523Y-24787380D01*
X180260476Y-24787380D01*
X180355714Y-24835000D01*
X180403333Y-24882619D01*
X180450952Y-24977857D01*
X180450952Y-25120714D01*
X180403333Y-25215952D01*
X180355714Y-25263571D01*
X180260476Y-25311190D01*
X179879523Y-25311190D01*
X124872857Y-150661666D02*
X125349047Y-150661666D01*
X124777619Y-150947380D02*
X125110952Y-149947380D01*
X125444285Y-150947380D01*
X125777619Y-150566428D02*
X126539523Y-150566428D01*
X149002857Y-150661666D02*
X149479047Y-150661666D01*
X148907619Y-150947380D02*
X149240952Y-149947380D01*
X149574285Y-150947380D01*
X149907619Y-150566428D02*
X150669523Y-150566428D01*
X150288571Y-150947380D02*
X150288571Y-150185476D01*
X153761666Y-37282380D02*
X153761666Y-36282380D01*
X154142619Y-36282380D01*
X154237857Y-36330000D01*
X154285476Y-36377619D01*
X154333095Y-36472857D01*
X154333095Y-36615714D01*
X154285476Y-36710952D01*
X154237857Y-36758571D01*
X154142619Y-36806190D01*
X153761666Y-36806190D01*
X154666428Y-36282380D02*
X154904523Y-37282380D01*
X155095000Y-36568095D01*
X155285476Y-37282380D01*
X155523571Y-36282380D01*
X156475952Y-37282380D02*
X156142619Y-36806190D01*
X155904523Y-37282380D02*
X155904523Y-36282380D01*
X156285476Y-36282380D01*
X156380714Y-36330000D01*
X156428333Y-36377619D01*
X156475952Y-36472857D01*
X156475952Y-36615714D01*
X156428333Y-36710952D01*
X156380714Y-36758571D01*
X156285476Y-36806190D01*
X155904523Y-36806190D01*
X162993095Y-35060000D02*
X162897857Y-35012380D01*
X162755000Y-35012380D01*
X162612142Y-35060000D01*
X162516904Y-35155238D01*
X162469285Y-35250476D01*
X162421666Y-35440952D01*
X162421666Y-35583809D01*
X162469285Y-35774285D01*
X162516904Y-35869523D01*
X162612142Y-35964761D01*
X162755000Y-36012380D01*
X162850238Y-36012380D01*
X162993095Y-35964761D01*
X163040714Y-35917142D01*
X163040714Y-35583809D01*
X162850238Y-35583809D01*
X163469285Y-36012380D02*
X163469285Y-35012380D01*
X164040714Y-36012380D01*
X164040714Y-35012380D01*
X164516904Y-36012380D02*
X164516904Y-35012380D01*
X164755000Y-35012380D01*
X164897857Y-35060000D01*
X164993095Y-35155238D01*
X165040714Y-35250476D01*
X165088333Y-35440952D01*
X165088333Y-35583809D01*
X165040714Y-35774285D01*
X164993095Y-35869523D01*
X164897857Y-35964761D01*
X164755000Y-36012380D01*
X164516904Y-36012380D01*
X170592857Y-150661666D02*
X171069047Y-150661666D01*
X170497619Y-150947380D02*
X170830952Y-149947380D01*
X171164285Y-150947380D01*
X171497619Y-150566428D02*
X172259523Y-150566428D01*
X171878571Y-150947380D02*
X171878571Y-150185476D01*
X122356666Y-150423571D02*
X122690000Y-150423571D01*
X122832857Y-150947380D02*
X122356666Y-150947380D01*
X122356666Y-149947380D01*
X122832857Y-149947380D01*
X123261428Y-150566428D02*
X124023333Y-150566428D01*
X54483095Y-30615000D02*
X54387857Y-30567380D01*
X54245000Y-30567380D01*
X54102142Y-30615000D01*
X54006904Y-30710238D01*
X53959285Y-30805476D01*
X53911666Y-30995952D01*
X53911666Y-31138809D01*
X53959285Y-31329285D01*
X54006904Y-31424523D01*
X54102142Y-31519761D01*
X54245000Y-31567380D01*
X54340238Y-31567380D01*
X54483095Y-31519761D01*
X54530714Y-31472142D01*
X54530714Y-31138809D01*
X54340238Y-31138809D01*
X54959285Y-31567380D02*
X54959285Y-30567380D01*
X55530714Y-31567380D01*
X55530714Y-30567380D01*
X56006904Y-31567380D02*
X56006904Y-30567380D01*
X56245000Y-30567380D01*
X56387857Y-30615000D01*
X56483095Y-30710238D01*
X56530714Y-30805476D01*
X56578333Y-30995952D01*
X56578333Y-31138809D01*
X56530714Y-31329285D01*
X56483095Y-31424523D01*
X56387857Y-31519761D01*
X56245000Y-31567380D01*
X56006904Y-31567380D01*
X35996666Y-150423571D02*
X36330000Y-150423571D01*
X36472857Y-150947380D02*
X35996666Y-150947380D01*
X35996666Y-149947380D01*
X36472857Y-149947380D01*
X36901428Y-150566428D02*
X37663333Y-150566428D01*
X166306666Y-36012380D02*
X166306666Y-35012380D01*
X166687619Y-35012380D01*
X166782857Y-35060000D01*
X166830476Y-35107619D01*
X166878095Y-35202857D01*
X166878095Y-35345714D01*
X166830476Y-35440952D01*
X166782857Y-35488571D01*
X166687619Y-35536190D01*
X166306666Y-35536190D01*
X167211428Y-35012380D02*
X167449523Y-36012380D01*
X167640000Y-35298095D01*
X167830476Y-36012380D01*
X168068571Y-35012380D01*
X169020952Y-36012380D02*
X168687619Y-35536190D01*
X168449523Y-36012380D02*
X168449523Y-35012380D01*
X168830476Y-35012380D01*
X168925714Y-35060000D01*
X168973333Y-35107619D01*
X169020952Y-35202857D01*
X169020952Y-35345714D01*
X168973333Y-35440952D01*
X168925714Y-35488571D01*
X168830476Y-35536190D01*
X168449523Y-35536190D01*
X151003095Y-36330000D02*
X150907857Y-36282380D01*
X150765000Y-36282380D01*
X150622142Y-36330000D01*
X150526904Y-36425238D01*
X150479285Y-36520476D01*
X150431666Y-36710952D01*
X150431666Y-36853809D01*
X150479285Y-37044285D01*
X150526904Y-37139523D01*
X150622142Y-37234761D01*
X150765000Y-37282380D01*
X150860238Y-37282380D01*
X151003095Y-37234761D01*
X151050714Y-37187142D01*
X151050714Y-36853809D01*
X150860238Y-36853809D01*
X151479285Y-37282380D02*
X151479285Y-36282380D01*
X152050714Y-37282380D01*
X152050714Y-36282380D01*
X152526904Y-37282380D02*
X152526904Y-36282380D01*
X152765000Y-36282380D01*
X152907857Y-36330000D01*
X153003095Y-36425238D01*
X153050714Y-36520476D01*
X153098333Y-36710952D01*
X153098333Y-36853809D01*
X153050714Y-37044285D01*
X153003095Y-37139523D01*
X152907857Y-37234761D01*
X152765000Y-37282380D01*
X152526904Y-37282380D01*
X61372857Y-151296666D02*
X61849047Y-151296666D01*
X61277619Y-151582380D02*
X61610952Y-150582380D01*
X61944285Y-151582380D01*
X62277619Y-151201428D02*
X63039523Y-151201428D01*
X62658571Y-151582380D02*
X62658571Y-150820476D01*
X211812142Y-144272857D02*
X211812142Y-145606190D01*
X209193095Y-146177619D02*
X209193095Y-144272857D01*
X214193095Y-144272857D01*
X214193095Y-146177619D01*
X209193095Y-149796666D02*
X209193095Y-147891904D01*
X214193095Y-147891904D01*
X209193095Y-153034761D02*
X209193095Y-151130000D01*
X214193095Y-151130000D01*
X209193095Y-154368095D02*
X214193095Y-154368095D01*
X211812142Y-156272857D02*
X211812142Y-157606190D01*
X209193095Y-158177619D02*
X209193095Y-156272857D01*
X214193095Y-156272857D01*
X214193095Y-158177619D01*
X80422857Y-150661666D02*
X80899047Y-150661666D01*
X80327619Y-150947380D02*
X80660952Y-149947380D01*
X80994285Y-150947380D01*
X81327619Y-150566428D02*
X82089523Y-150566428D01*
X119816666Y-150423571D02*
X120150000Y-150423571D01*
X120292857Y-150947380D02*
X119816666Y-150947380D01*
X119816666Y-149947380D01*
X120292857Y-149947380D01*
X120721428Y-150566428D02*
X121483333Y-150566428D01*
X121102380Y-150947380D02*
X121102380Y-150185476D01*
X141406666Y-150423571D02*
X141740000Y-150423571D01*
X141882857Y-150947380D02*
X141406666Y-150947380D01*
X141406666Y-149947380D01*
X141882857Y-149947380D01*
X142311428Y-150566428D02*
X143073333Y-150566428D01*
X142692380Y-150947380D02*
X142692380Y-150185476D01*
X38512857Y-150661666D02*
X38989047Y-150661666D01*
X38417619Y-150947380D02*
X38750952Y-149947380D01*
X39084285Y-150947380D01*
X39417619Y-150566428D02*
X40179523Y-150566428D01*
X53141666Y-151058571D02*
X53475000Y-151058571D01*
X53617857Y-151582380D02*
X53141666Y-151582380D01*
X53141666Y-150582380D01*
X53617857Y-150582380D01*
X54046428Y-151201428D02*
X54808333Y-151201428D01*
X54427380Y-151582380D02*
X54427380Y-150820476D01*
X128703095Y-38235000D02*
X128607857Y-38187380D01*
X128465000Y-38187380D01*
X128322142Y-38235000D01*
X128226904Y-38330238D01*
X128179285Y-38425476D01*
X128131666Y-38615952D01*
X128131666Y-38758809D01*
X128179285Y-38949285D01*
X128226904Y-39044523D01*
X128322142Y-39139761D01*
X128465000Y-39187380D01*
X128560238Y-39187380D01*
X128703095Y-39139761D01*
X128750714Y-39092142D01*
X128750714Y-38758809D01*
X128560238Y-38758809D01*
X129179285Y-39187380D02*
X129179285Y-38187380D01*
X129750714Y-39187380D01*
X129750714Y-38187380D01*
X130226904Y-39187380D02*
X130226904Y-38187380D01*
X130465000Y-38187380D01*
X130607857Y-38235000D01*
X130703095Y-38330238D01*
X130750714Y-38425476D01*
X130798333Y-38615952D01*
X130798333Y-38758809D01*
X130750714Y-38949285D01*
X130703095Y-39044523D01*
X130607857Y-39139761D01*
X130465000Y-39187380D01*
X130226904Y-39187380D01*
X72898095Y-30615000D02*
X72802857Y-30567380D01*
X72660000Y-30567380D01*
X72517142Y-30615000D01*
X72421904Y-30710238D01*
X72374285Y-30805476D01*
X72326666Y-30995952D01*
X72326666Y-31138809D01*
X72374285Y-31329285D01*
X72421904Y-31424523D01*
X72517142Y-31519761D01*
X72660000Y-31567380D01*
X72755238Y-31567380D01*
X72898095Y-31519761D01*
X72945714Y-31472142D01*
X72945714Y-31138809D01*
X72755238Y-31138809D01*
X73374285Y-31567380D02*
X73374285Y-30567380D01*
X73945714Y-31567380D01*
X73945714Y-30567380D01*
X74421904Y-31567380D02*
X74421904Y-30567380D01*
X74660000Y-30567380D01*
X74802857Y-30615000D01*
X74898095Y-30710238D01*
X74945714Y-30805476D01*
X74993333Y-30995952D01*
X74993333Y-31138809D01*
X74945714Y-31329285D01*
X74898095Y-31424523D01*
X74802857Y-31519761D01*
X74660000Y-31567380D01*
X74421904Y-31567380D01*
X134631666Y-39187380D02*
X134631666Y-38187380D01*
X135012619Y-38187380D01*
X135107857Y-38235000D01*
X135155476Y-38282619D01*
X135203095Y-38377857D01*
X135203095Y-38520714D01*
X135155476Y-38615952D01*
X135107857Y-38663571D01*
X135012619Y-38711190D01*
X134631666Y-38711190D01*
X135536428Y-38187380D02*
X135774523Y-39187380D01*
X135965000Y-38473095D01*
X136155476Y-39187380D01*
X136393571Y-38187380D01*
X137345952Y-39187380D02*
X137012619Y-38711190D01*
X136774523Y-39187380D02*
X136774523Y-38187380D01*
X137155476Y-38187380D01*
X137250714Y-38235000D01*
X137298333Y-38282619D01*
X137345952Y-38377857D01*
X137345952Y-38520714D01*
X137298333Y-38615952D01*
X137250714Y-38663571D01*
X137155476Y-38711190D01*
X136774523Y-38711190D01*
X78041666Y-31567380D02*
X78041666Y-30567380D01*
X78422619Y-30567380D01*
X78517857Y-30615000D01*
X78565476Y-30662619D01*
X78613095Y-30757857D01*
X78613095Y-30900714D01*
X78565476Y-30995952D01*
X78517857Y-31043571D01*
X78422619Y-31091190D01*
X78041666Y-31091190D01*
X78946428Y-30567380D02*
X79184523Y-31567380D01*
X79375000Y-30853095D01*
X79565476Y-31567380D01*
X79803571Y-30567380D01*
X80755952Y-31567380D02*
X80422619Y-31091190D01*
X80184523Y-31567380D02*
X80184523Y-30567380D01*
X80565476Y-30567380D01*
X80660714Y-30615000D01*
X80708333Y-30662619D01*
X80755952Y-30757857D01*
X80755952Y-30900714D01*
X80708333Y-30995952D01*
X80660714Y-31043571D01*
X80565476Y-31091190D01*
X80184523Y-31091190D01*
%TO.C,HX711 Breakout 6*%
X83455714Y-139517380D02*
X83455714Y-138517380D01*
X83455714Y-138993571D02*
X84027142Y-138993571D01*
X84027142Y-139517380D02*
X84027142Y-138517380D01*
X84408095Y-138517380D02*
X85074761Y-139517380D01*
X85074761Y-138517380D02*
X84408095Y-139517380D01*
X85360476Y-138517380D02*
X86027142Y-138517380D01*
X85598571Y-139517380D01*
X86931904Y-139517380D02*
X86360476Y-139517380D01*
X86646190Y-139517380D02*
X86646190Y-138517380D01*
X86550952Y-138660238D01*
X86455714Y-138755476D01*
X86360476Y-138803095D01*
X87884285Y-139517380D02*
X87312857Y-139517380D01*
X87598571Y-139517380D02*
X87598571Y-138517380D01*
X87503333Y-138660238D01*
X87408095Y-138755476D01*
X87312857Y-138803095D01*
X89408095Y-138993571D02*
X89550952Y-139041190D01*
X89598571Y-139088809D01*
X89646190Y-139184047D01*
X89646190Y-139326904D01*
X89598571Y-139422142D01*
X89550952Y-139469761D01*
X89455714Y-139517380D01*
X89074761Y-139517380D01*
X89074761Y-138517380D01*
X89408095Y-138517380D01*
X89503333Y-138565000D01*
X89550952Y-138612619D01*
X89598571Y-138707857D01*
X89598571Y-138803095D01*
X89550952Y-138898333D01*
X89503333Y-138945952D01*
X89408095Y-138993571D01*
X89074761Y-138993571D01*
X90074761Y-139517380D02*
X90074761Y-138850714D01*
X90074761Y-139041190D02*
X90122380Y-138945952D01*
X90170000Y-138898333D01*
X90265238Y-138850714D01*
X90360476Y-138850714D01*
X91074761Y-139469761D02*
X90979523Y-139517380D01*
X90789047Y-139517380D01*
X90693809Y-139469761D01*
X90646190Y-139374523D01*
X90646190Y-138993571D01*
X90693809Y-138898333D01*
X90789047Y-138850714D01*
X90979523Y-138850714D01*
X91074761Y-138898333D01*
X91122380Y-138993571D01*
X91122380Y-139088809D01*
X90646190Y-139184047D01*
X91979523Y-139517380D02*
X91979523Y-138993571D01*
X91931904Y-138898333D01*
X91836666Y-138850714D01*
X91646190Y-138850714D01*
X91550952Y-138898333D01*
X91979523Y-139469761D02*
X91884285Y-139517380D01*
X91646190Y-139517380D01*
X91550952Y-139469761D01*
X91503333Y-139374523D01*
X91503333Y-139279285D01*
X91550952Y-139184047D01*
X91646190Y-139136428D01*
X91884285Y-139136428D01*
X91979523Y-139088809D01*
X92455714Y-139517380D02*
X92455714Y-138517380D01*
X92550952Y-139136428D02*
X92836666Y-139517380D01*
X92836666Y-138850714D02*
X92455714Y-139231666D01*
X93408095Y-139517380D02*
X93312857Y-139469761D01*
X93265238Y-139422142D01*
X93217619Y-139326904D01*
X93217619Y-139041190D01*
X93265238Y-138945952D01*
X93312857Y-138898333D01*
X93408095Y-138850714D01*
X93550952Y-138850714D01*
X93646190Y-138898333D01*
X93693809Y-138945952D01*
X93741428Y-139041190D01*
X93741428Y-139326904D01*
X93693809Y-139422142D01*
X93646190Y-139469761D01*
X93550952Y-139517380D01*
X93408095Y-139517380D01*
X94598571Y-138850714D02*
X94598571Y-139517380D01*
X94170000Y-138850714D02*
X94170000Y-139374523D01*
X94217619Y-139469761D01*
X94312857Y-139517380D01*
X94455714Y-139517380D01*
X94550952Y-139469761D01*
X94598571Y-139422142D01*
X94931904Y-138850714D02*
X95312857Y-138850714D01*
X95074761Y-138517380D02*
X95074761Y-139374523D01*
X95122380Y-139469761D01*
X95217619Y-139517380D01*
X95312857Y-139517380D01*
X96836666Y-138517380D02*
X96646190Y-138517380D01*
X96550952Y-138565000D01*
X96503333Y-138612619D01*
X96408095Y-138755476D01*
X96360476Y-138945952D01*
X96360476Y-139326904D01*
X96408095Y-139422142D01*
X96455714Y-139469761D01*
X96550952Y-139517380D01*
X96741428Y-139517380D01*
X96836666Y-139469761D01*
X96884285Y-139422142D01*
X96931904Y-139326904D01*
X96931904Y-139088809D01*
X96884285Y-138993571D01*
X96836666Y-138945952D01*
X96741428Y-138898333D01*
X96550952Y-138898333D01*
X96455714Y-138945952D01*
X96408095Y-138993571D01*
X96360476Y-139088809D01*
%TO.C,R15*%
X136977380Y-146500357D02*
X136501190Y-146833690D01*
X136977380Y-147071785D02*
X135977380Y-147071785D01*
X135977380Y-146690833D01*
X136025000Y-146595595D01*
X136072619Y-146547976D01*
X136167857Y-146500357D01*
X136310714Y-146500357D01*
X136405952Y-146547976D01*
X136453571Y-146595595D01*
X136501190Y-146690833D01*
X136501190Y-147071785D01*
X136977380Y-145547976D02*
X136977380Y-146119404D01*
X136977380Y-145833690D02*
X135977380Y-145833690D01*
X136120238Y-145928928D01*
X136215476Y-146024166D01*
X136263095Y-146119404D01*
X135977380Y-144643214D02*
X135977380Y-145119404D01*
X136453571Y-145167023D01*
X136405952Y-145119404D01*
X136358333Y-145024166D01*
X136358333Y-144786071D01*
X136405952Y-144690833D01*
X136453571Y-144643214D01*
X136548809Y-144595595D01*
X136786904Y-144595595D01*
X136882142Y-144643214D01*
X136929761Y-144690833D01*
X136977380Y-144786071D01*
X136977380Y-145024166D01*
X136929761Y-145119404D01*
X136882142Y-145167023D01*
%TO.C,Servo 1 *%
X106124761Y-29614761D02*
X106267619Y-29662380D01*
X106505714Y-29662380D01*
X106600952Y-29614761D01*
X106648571Y-29567142D01*
X106696190Y-29471904D01*
X106696190Y-29376666D01*
X106648571Y-29281428D01*
X106600952Y-29233809D01*
X106505714Y-29186190D01*
X106315238Y-29138571D01*
X106220000Y-29090952D01*
X106172380Y-29043333D01*
X106124761Y-28948095D01*
X106124761Y-28852857D01*
X106172380Y-28757619D01*
X106220000Y-28710000D01*
X106315238Y-28662380D01*
X106553333Y-28662380D01*
X106696190Y-28710000D01*
X107505714Y-29614761D02*
X107410476Y-29662380D01*
X107220000Y-29662380D01*
X107124761Y-29614761D01*
X107077142Y-29519523D01*
X107077142Y-29138571D01*
X107124761Y-29043333D01*
X107220000Y-28995714D01*
X107410476Y-28995714D01*
X107505714Y-29043333D01*
X107553333Y-29138571D01*
X107553333Y-29233809D01*
X107077142Y-29329047D01*
X107981904Y-29662380D02*
X107981904Y-28995714D01*
X107981904Y-29186190D02*
X108029523Y-29090952D01*
X108077142Y-29043333D01*
X108172380Y-28995714D01*
X108267619Y-28995714D01*
X108505714Y-28995714D02*
X108743809Y-29662380D01*
X108981904Y-28995714D01*
X109505714Y-29662380D02*
X109410476Y-29614761D01*
X109362857Y-29567142D01*
X109315238Y-29471904D01*
X109315238Y-29186190D01*
X109362857Y-29090952D01*
X109410476Y-29043333D01*
X109505714Y-28995714D01*
X109648571Y-28995714D01*
X109743809Y-29043333D01*
X109791428Y-29090952D01*
X109839047Y-29186190D01*
X109839047Y-29471904D01*
X109791428Y-29567142D01*
X109743809Y-29614761D01*
X109648571Y-29662380D01*
X109505714Y-29662380D01*
X111553333Y-29662380D02*
X110981904Y-29662380D01*
X111267619Y-29662380D02*
X111267619Y-28662380D01*
X111172380Y-28805238D01*
X111077142Y-28900476D01*
X110981904Y-28948095D01*
%TO.C,Load Cell 8*%
X181427380Y-158678095D02*
X181427380Y-159154285D01*
X180427380Y-159154285D01*
X181427380Y-158201904D02*
X181379761Y-158297142D01*
X181332142Y-158344761D01*
X181236904Y-158392380D01*
X180951190Y-158392380D01*
X180855952Y-158344761D01*
X180808333Y-158297142D01*
X180760714Y-158201904D01*
X180760714Y-158059047D01*
X180808333Y-157963809D01*
X180855952Y-157916190D01*
X180951190Y-157868571D01*
X181236904Y-157868571D01*
X181332142Y-157916190D01*
X181379761Y-157963809D01*
X181427380Y-158059047D01*
X181427380Y-158201904D01*
X181427380Y-157011428D02*
X180903571Y-157011428D01*
X180808333Y-157059047D01*
X180760714Y-157154285D01*
X180760714Y-157344761D01*
X180808333Y-157440000D01*
X181379761Y-157011428D02*
X181427380Y-157106666D01*
X181427380Y-157344761D01*
X181379761Y-157440000D01*
X181284523Y-157487619D01*
X181189285Y-157487619D01*
X181094047Y-157440000D01*
X181046428Y-157344761D01*
X181046428Y-157106666D01*
X180998809Y-157011428D01*
X181427380Y-156106666D02*
X180427380Y-156106666D01*
X181379761Y-156106666D02*
X181427380Y-156201904D01*
X181427380Y-156392380D01*
X181379761Y-156487619D01*
X181332142Y-156535238D01*
X181236904Y-156582857D01*
X180951190Y-156582857D01*
X180855952Y-156535238D01*
X180808333Y-156487619D01*
X180760714Y-156392380D01*
X180760714Y-156201904D01*
X180808333Y-156106666D01*
X181332142Y-154297142D02*
X181379761Y-154344761D01*
X181427380Y-154487619D01*
X181427380Y-154582857D01*
X181379761Y-154725714D01*
X181284523Y-154820952D01*
X181189285Y-154868571D01*
X180998809Y-154916190D01*
X180855952Y-154916190D01*
X180665476Y-154868571D01*
X180570238Y-154820952D01*
X180475000Y-154725714D01*
X180427380Y-154582857D01*
X180427380Y-154487619D01*
X180475000Y-154344761D01*
X180522619Y-154297142D01*
X181379761Y-153487619D02*
X181427380Y-153582857D01*
X181427380Y-153773333D01*
X181379761Y-153868571D01*
X181284523Y-153916190D01*
X180903571Y-153916190D01*
X180808333Y-153868571D01*
X180760714Y-153773333D01*
X180760714Y-153582857D01*
X180808333Y-153487619D01*
X180903571Y-153440000D01*
X180998809Y-153440000D01*
X181094047Y-153916190D01*
X181427380Y-152868571D02*
X181379761Y-152963809D01*
X181284523Y-153011428D01*
X180427380Y-153011428D01*
X181427380Y-152344761D02*
X181379761Y-152440000D01*
X181284523Y-152487619D01*
X180427380Y-152487619D01*
X180855952Y-151059047D02*
X180808333Y-151154285D01*
X180760714Y-151201904D01*
X180665476Y-151249523D01*
X180617857Y-151249523D01*
X180522619Y-151201904D01*
X180475000Y-151154285D01*
X180427380Y-151059047D01*
X180427380Y-150868571D01*
X180475000Y-150773333D01*
X180522619Y-150725714D01*
X180617857Y-150678095D01*
X180665476Y-150678095D01*
X180760714Y-150725714D01*
X180808333Y-150773333D01*
X180855952Y-150868571D01*
X180855952Y-151059047D01*
X180903571Y-151154285D01*
X180951190Y-151201904D01*
X181046428Y-151249523D01*
X181236904Y-151249523D01*
X181332142Y-151201904D01*
X181379761Y-151154285D01*
X181427380Y-151059047D01*
X181427380Y-150868571D01*
X181379761Y-150773333D01*
X181332142Y-150725714D01*
X181236904Y-150678095D01*
X181046428Y-150678095D01*
X180951190Y-150725714D01*
X180903571Y-150773333D01*
X180855952Y-150868571D01*
%TO.C,Load Cell Backup 2*%
X50340476Y-171267380D02*
X49864285Y-171267380D01*
X49864285Y-170267380D01*
X50816666Y-171267380D02*
X50721428Y-171219761D01*
X50673809Y-171172142D01*
X50626190Y-171076904D01*
X50626190Y-170791190D01*
X50673809Y-170695952D01*
X50721428Y-170648333D01*
X50816666Y-170600714D01*
X50959523Y-170600714D01*
X51054761Y-170648333D01*
X51102380Y-170695952D01*
X51150000Y-170791190D01*
X51150000Y-171076904D01*
X51102380Y-171172142D01*
X51054761Y-171219761D01*
X50959523Y-171267380D01*
X50816666Y-171267380D01*
X52007142Y-171267380D02*
X52007142Y-170743571D01*
X51959523Y-170648333D01*
X51864285Y-170600714D01*
X51673809Y-170600714D01*
X51578571Y-170648333D01*
X52007142Y-171219761D02*
X51911904Y-171267380D01*
X51673809Y-171267380D01*
X51578571Y-171219761D01*
X51530952Y-171124523D01*
X51530952Y-171029285D01*
X51578571Y-170934047D01*
X51673809Y-170886428D01*
X51911904Y-170886428D01*
X52007142Y-170838809D01*
X52911904Y-171267380D02*
X52911904Y-170267380D01*
X52911904Y-171219761D02*
X52816666Y-171267380D01*
X52626190Y-171267380D01*
X52530952Y-171219761D01*
X52483333Y-171172142D01*
X52435714Y-171076904D01*
X52435714Y-170791190D01*
X52483333Y-170695952D01*
X52530952Y-170648333D01*
X52626190Y-170600714D01*
X52816666Y-170600714D01*
X52911904Y-170648333D01*
X54721428Y-171172142D02*
X54673809Y-171219761D01*
X54530952Y-171267380D01*
X54435714Y-171267380D01*
X54292857Y-171219761D01*
X54197619Y-171124523D01*
X54150000Y-171029285D01*
X54102380Y-170838809D01*
X54102380Y-170695952D01*
X54150000Y-170505476D01*
X54197619Y-170410238D01*
X54292857Y-170315000D01*
X54435714Y-170267380D01*
X54530952Y-170267380D01*
X54673809Y-170315000D01*
X54721428Y-170362619D01*
X55530952Y-171219761D02*
X55435714Y-171267380D01*
X55245238Y-171267380D01*
X55150000Y-171219761D01*
X55102380Y-171124523D01*
X55102380Y-170743571D01*
X55150000Y-170648333D01*
X55245238Y-170600714D01*
X55435714Y-170600714D01*
X55530952Y-170648333D01*
X55578571Y-170743571D01*
X55578571Y-170838809D01*
X55102380Y-170934047D01*
X56150000Y-171267380D02*
X56054761Y-171219761D01*
X56007142Y-171124523D01*
X56007142Y-170267380D01*
X56673809Y-171267380D02*
X56578571Y-171219761D01*
X56530952Y-171124523D01*
X56530952Y-170267380D01*
X58150000Y-170743571D02*
X58292857Y-170791190D01*
X58340476Y-170838809D01*
X58388095Y-170934047D01*
X58388095Y-171076904D01*
X58340476Y-171172142D01*
X58292857Y-171219761D01*
X58197619Y-171267380D01*
X57816666Y-171267380D01*
X57816666Y-170267380D01*
X58150000Y-170267380D01*
X58245238Y-170315000D01*
X58292857Y-170362619D01*
X58340476Y-170457857D01*
X58340476Y-170553095D01*
X58292857Y-170648333D01*
X58245238Y-170695952D01*
X58150000Y-170743571D01*
X57816666Y-170743571D01*
X59245238Y-171267380D02*
X59245238Y-170743571D01*
X59197619Y-170648333D01*
X59102380Y-170600714D01*
X58911904Y-170600714D01*
X58816666Y-170648333D01*
X59245238Y-171219761D02*
X59150000Y-171267380D01*
X58911904Y-171267380D01*
X58816666Y-171219761D01*
X58769047Y-171124523D01*
X58769047Y-171029285D01*
X58816666Y-170934047D01*
X58911904Y-170886428D01*
X59150000Y-170886428D01*
X59245238Y-170838809D01*
X60150000Y-171219761D02*
X60054761Y-171267380D01*
X59864285Y-171267380D01*
X59769047Y-171219761D01*
X59721428Y-171172142D01*
X59673809Y-171076904D01*
X59673809Y-170791190D01*
X59721428Y-170695952D01*
X59769047Y-170648333D01*
X59864285Y-170600714D01*
X60054761Y-170600714D01*
X60150000Y-170648333D01*
X60578571Y-171267380D02*
X60578571Y-170267380D01*
X60673809Y-170886428D02*
X60959523Y-171267380D01*
X60959523Y-170600714D02*
X60578571Y-170981666D01*
X61816666Y-170600714D02*
X61816666Y-171267380D01*
X61388095Y-170600714D02*
X61388095Y-171124523D01*
X61435714Y-171219761D01*
X61530952Y-171267380D01*
X61673809Y-171267380D01*
X61769047Y-171219761D01*
X61816666Y-171172142D01*
X62292857Y-170600714D02*
X62292857Y-171600714D01*
X62292857Y-170648333D02*
X62388095Y-170600714D01*
X62578571Y-170600714D01*
X62673809Y-170648333D01*
X62721428Y-170695952D01*
X62769047Y-170791190D01*
X62769047Y-171076904D01*
X62721428Y-171172142D01*
X62673809Y-171219761D01*
X62578571Y-171267380D01*
X62388095Y-171267380D01*
X62292857Y-171219761D01*
X63911904Y-170362619D02*
X63959523Y-170315000D01*
X64054761Y-170267380D01*
X64292857Y-170267380D01*
X64388095Y-170315000D01*
X64435714Y-170362619D01*
X64483333Y-170457857D01*
X64483333Y-170553095D01*
X64435714Y-170695952D01*
X63864285Y-171267380D01*
X64483333Y-171267380D01*
%TO.C,HX711 Breakout 4*%
X185690714Y-110942380D02*
X185690714Y-109942380D01*
X185690714Y-110418571D02*
X186262142Y-110418571D01*
X186262142Y-110942380D02*
X186262142Y-109942380D01*
X186643095Y-109942380D02*
X187309761Y-110942380D01*
X187309761Y-109942380D02*
X186643095Y-110942380D01*
X187595476Y-109942380D02*
X188262142Y-109942380D01*
X187833571Y-110942380D01*
X189166904Y-110942380D02*
X188595476Y-110942380D01*
X188881190Y-110942380D02*
X188881190Y-109942380D01*
X188785952Y-110085238D01*
X188690714Y-110180476D01*
X188595476Y-110228095D01*
X190119285Y-110942380D02*
X189547857Y-110942380D01*
X189833571Y-110942380D02*
X189833571Y-109942380D01*
X189738333Y-110085238D01*
X189643095Y-110180476D01*
X189547857Y-110228095D01*
X191643095Y-110418571D02*
X191785952Y-110466190D01*
X191833571Y-110513809D01*
X191881190Y-110609047D01*
X191881190Y-110751904D01*
X191833571Y-110847142D01*
X191785952Y-110894761D01*
X191690714Y-110942380D01*
X191309761Y-110942380D01*
X191309761Y-109942380D01*
X191643095Y-109942380D01*
X191738333Y-109990000D01*
X191785952Y-110037619D01*
X191833571Y-110132857D01*
X191833571Y-110228095D01*
X191785952Y-110323333D01*
X191738333Y-110370952D01*
X191643095Y-110418571D01*
X191309761Y-110418571D01*
X192309761Y-110942380D02*
X192309761Y-110275714D01*
X192309761Y-110466190D02*
X192357380Y-110370952D01*
X192405000Y-110323333D01*
X192500238Y-110275714D01*
X192595476Y-110275714D01*
X193309761Y-110894761D02*
X193214523Y-110942380D01*
X193024047Y-110942380D01*
X192928809Y-110894761D01*
X192881190Y-110799523D01*
X192881190Y-110418571D01*
X192928809Y-110323333D01*
X193024047Y-110275714D01*
X193214523Y-110275714D01*
X193309761Y-110323333D01*
X193357380Y-110418571D01*
X193357380Y-110513809D01*
X192881190Y-110609047D01*
X194214523Y-110942380D02*
X194214523Y-110418571D01*
X194166904Y-110323333D01*
X194071666Y-110275714D01*
X193881190Y-110275714D01*
X193785952Y-110323333D01*
X194214523Y-110894761D02*
X194119285Y-110942380D01*
X193881190Y-110942380D01*
X193785952Y-110894761D01*
X193738333Y-110799523D01*
X193738333Y-110704285D01*
X193785952Y-110609047D01*
X193881190Y-110561428D01*
X194119285Y-110561428D01*
X194214523Y-110513809D01*
X194690714Y-110942380D02*
X194690714Y-109942380D01*
X194785952Y-110561428D02*
X195071666Y-110942380D01*
X195071666Y-110275714D02*
X194690714Y-110656666D01*
X195643095Y-110942380D02*
X195547857Y-110894761D01*
X195500238Y-110847142D01*
X195452619Y-110751904D01*
X195452619Y-110466190D01*
X195500238Y-110370952D01*
X195547857Y-110323333D01*
X195643095Y-110275714D01*
X195785952Y-110275714D01*
X195881190Y-110323333D01*
X195928809Y-110370952D01*
X195976428Y-110466190D01*
X195976428Y-110751904D01*
X195928809Y-110847142D01*
X195881190Y-110894761D01*
X195785952Y-110942380D01*
X195643095Y-110942380D01*
X196833571Y-110275714D02*
X196833571Y-110942380D01*
X196405000Y-110275714D02*
X196405000Y-110799523D01*
X196452619Y-110894761D01*
X196547857Y-110942380D01*
X196690714Y-110942380D01*
X196785952Y-110894761D01*
X196833571Y-110847142D01*
X197166904Y-110275714D02*
X197547857Y-110275714D01*
X197309761Y-109942380D02*
X197309761Y-110799523D01*
X197357380Y-110894761D01*
X197452619Y-110942380D01*
X197547857Y-110942380D01*
X199071666Y-110275714D02*
X199071666Y-110942380D01*
X198833571Y-109894761D02*
X198595476Y-110609047D01*
X199214523Y-110609047D01*
%TO.C,HX711 Breakout 1*%
X34560714Y-105227380D02*
X34560714Y-104227380D01*
X34560714Y-104703571D02*
X35132142Y-104703571D01*
X35132142Y-105227380D02*
X35132142Y-104227380D01*
X35513095Y-104227380D02*
X36179761Y-105227380D01*
X36179761Y-104227380D02*
X35513095Y-105227380D01*
X36465476Y-104227380D02*
X37132142Y-104227380D01*
X36703571Y-105227380D01*
X38036904Y-105227380D02*
X37465476Y-105227380D01*
X37751190Y-105227380D02*
X37751190Y-104227380D01*
X37655952Y-104370238D01*
X37560714Y-104465476D01*
X37465476Y-104513095D01*
X38989285Y-105227380D02*
X38417857Y-105227380D01*
X38703571Y-105227380D02*
X38703571Y-104227380D01*
X38608333Y-104370238D01*
X38513095Y-104465476D01*
X38417857Y-104513095D01*
X40513095Y-104703571D02*
X40655952Y-104751190D01*
X40703571Y-104798809D01*
X40751190Y-104894047D01*
X40751190Y-105036904D01*
X40703571Y-105132142D01*
X40655952Y-105179761D01*
X40560714Y-105227380D01*
X40179761Y-105227380D01*
X40179761Y-104227380D01*
X40513095Y-104227380D01*
X40608333Y-104275000D01*
X40655952Y-104322619D01*
X40703571Y-104417857D01*
X40703571Y-104513095D01*
X40655952Y-104608333D01*
X40608333Y-104655952D01*
X40513095Y-104703571D01*
X40179761Y-104703571D01*
X41179761Y-105227380D02*
X41179761Y-104560714D01*
X41179761Y-104751190D02*
X41227380Y-104655952D01*
X41275000Y-104608333D01*
X41370238Y-104560714D01*
X41465476Y-104560714D01*
X42179761Y-105179761D02*
X42084523Y-105227380D01*
X41894047Y-105227380D01*
X41798809Y-105179761D01*
X41751190Y-105084523D01*
X41751190Y-104703571D01*
X41798809Y-104608333D01*
X41894047Y-104560714D01*
X42084523Y-104560714D01*
X42179761Y-104608333D01*
X42227380Y-104703571D01*
X42227380Y-104798809D01*
X41751190Y-104894047D01*
X43084523Y-105227380D02*
X43084523Y-104703571D01*
X43036904Y-104608333D01*
X42941666Y-104560714D01*
X42751190Y-104560714D01*
X42655952Y-104608333D01*
X43084523Y-105179761D02*
X42989285Y-105227380D01*
X42751190Y-105227380D01*
X42655952Y-105179761D01*
X42608333Y-105084523D01*
X42608333Y-104989285D01*
X42655952Y-104894047D01*
X42751190Y-104846428D01*
X42989285Y-104846428D01*
X43084523Y-104798809D01*
X43560714Y-105227380D02*
X43560714Y-104227380D01*
X43655952Y-104846428D02*
X43941666Y-105227380D01*
X43941666Y-104560714D02*
X43560714Y-104941666D01*
X44513095Y-105227380D02*
X44417857Y-105179761D01*
X44370238Y-105132142D01*
X44322619Y-105036904D01*
X44322619Y-104751190D01*
X44370238Y-104655952D01*
X44417857Y-104608333D01*
X44513095Y-104560714D01*
X44655952Y-104560714D01*
X44751190Y-104608333D01*
X44798809Y-104655952D01*
X44846428Y-104751190D01*
X44846428Y-105036904D01*
X44798809Y-105132142D01*
X44751190Y-105179761D01*
X44655952Y-105227380D01*
X44513095Y-105227380D01*
X45703571Y-104560714D02*
X45703571Y-105227380D01*
X45275000Y-104560714D02*
X45275000Y-105084523D01*
X45322619Y-105179761D01*
X45417857Y-105227380D01*
X45560714Y-105227380D01*
X45655952Y-105179761D01*
X45703571Y-105132142D01*
X46036904Y-104560714D02*
X46417857Y-104560714D01*
X46179761Y-104227380D02*
X46179761Y-105084523D01*
X46227380Y-105179761D01*
X46322619Y-105227380D01*
X46417857Y-105227380D01*
X48036904Y-105227380D02*
X47465476Y-105227380D01*
X47751190Y-105227380D02*
X47751190Y-104227380D01*
X47655952Y-104370238D01*
X47560714Y-104465476D01*
X47465476Y-104513095D01*
%TO.C,Battery*%
X189158571Y-29396428D02*
X189206190Y-29253571D01*
X189253809Y-29205952D01*
X189349047Y-29158333D01*
X189491904Y-29158333D01*
X189587142Y-29205952D01*
X189634761Y-29253571D01*
X189682380Y-29348809D01*
X189682380Y-29729761D01*
X188682380Y-29729761D01*
X188682380Y-29396428D01*
X188730000Y-29301190D01*
X188777619Y-29253571D01*
X188872857Y-29205952D01*
X188968095Y-29205952D01*
X189063333Y-29253571D01*
X189110952Y-29301190D01*
X189158571Y-29396428D01*
X189158571Y-29729761D01*
X189682380Y-28301190D02*
X189158571Y-28301190D01*
X189063333Y-28348809D01*
X189015714Y-28444047D01*
X189015714Y-28634523D01*
X189063333Y-28729761D01*
X189634761Y-28301190D02*
X189682380Y-28396428D01*
X189682380Y-28634523D01*
X189634761Y-28729761D01*
X189539523Y-28777380D01*
X189444285Y-28777380D01*
X189349047Y-28729761D01*
X189301428Y-28634523D01*
X189301428Y-28396428D01*
X189253809Y-28301190D01*
X189015714Y-27967857D02*
X189015714Y-27586904D01*
X188682380Y-27825000D02*
X189539523Y-27825000D01*
X189634761Y-27777380D01*
X189682380Y-27682142D01*
X189682380Y-27586904D01*
X189015714Y-27396428D02*
X189015714Y-27015476D01*
X188682380Y-27253571D02*
X189539523Y-27253571D01*
X189634761Y-27205952D01*
X189682380Y-27110714D01*
X189682380Y-27015476D01*
X189634761Y-26301190D02*
X189682380Y-26396428D01*
X189682380Y-26586904D01*
X189634761Y-26682142D01*
X189539523Y-26729761D01*
X189158571Y-26729761D01*
X189063333Y-26682142D01*
X189015714Y-26586904D01*
X189015714Y-26396428D01*
X189063333Y-26301190D01*
X189158571Y-26253571D01*
X189253809Y-26253571D01*
X189349047Y-26729761D01*
X189682380Y-25825000D02*
X189015714Y-25825000D01*
X189206190Y-25825000D02*
X189110952Y-25777380D01*
X189063333Y-25729761D01*
X189015714Y-25634523D01*
X189015714Y-25539285D01*
X189015714Y-25301190D02*
X189682380Y-25063095D01*
X189015714Y-24825000D02*
X189682380Y-25063095D01*
X189920476Y-25158333D01*
X189968095Y-25205952D01*
X190015714Y-25301190D01*
%TO.C,R4*%
X96972380Y-144946666D02*
X96496190Y-145280000D01*
X96972380Y-145518095D02*
X95972380Y-145518095D01*
X95972380Y-145137142D01*
X96020000Y-145041904D01*
X96067619Y-144994285D01*
X96162857Y-144946666D01*
X96305714Y-144946666D01*
X96400952Y-144994285D01*
X96448571Y-145041904D01*
X96496190Y-145137142D01*
X96496190Y-145518095D01*
X96305714Y-144089523D02*
X96972380Y-144089523D01*
X95924761Y-144327619D02*
X96639047Y-144565714D01*
X96639047Y-143946666D01*
%TO.C,Load Cell Backup 6*%
X116380476Y-171267380D02*
X115904285Y-171267380D01*
X115904285Y-170267380D01*
X116856666Y-171267380D02*
X116761428Y-171219761D01*
X116713809Y-171172142D01*
X116666190Y-171076904D01*
X116666190Y-170791190D01*
X116713809Y-170695952D01*
X116761428Y-170648333D01*
X116856666Y-170600714D01*
X116999523Y-170600714D01*
X117094761Y-170648333D01*
X117142380Y-170695952D01*
X117190000Y-170791190D01*
X117190000Y-171076904D01*
X117142380Y-171172142D01*
X117094761Y-171219761D01*
X116999523Y-171267380D01*
X116856666Y-171267380D01*
X118047142Y-171267380D02*
X118047142Y-170743571D01*
X117999523Y-170648333D01*
X117904285Y-170600714D01*
X117713809Y-170600714D01*
X117618571Y-170648333D01*
X118047142Y-171219761D02*
X117951904Y-171267380D01*
X117713809Y-171267380D01*
X117618571Y-171219761D01*
X117570952Y-171124523D01*
X117570952Y-171029285D01*
X117618571Y-170934047D01*
X117713809Y-170886428D01*
X117951904Y-170886428D01*
X118047142Y-170838809D01*
X118951904Y-171267380D02*
X118951904Y-170267380D01*
X118951904Y-171219761D02*
X118856666Y-171267380D01*
X118666190Y-171267380D01*
X118570952Y-171219761D01*
X118523333Y-171172142D01*
X118475714Y-171076904D01*
X118475714Y-170791190D01*
X118523333Y-170695952D01*
X118570952Y-170648333D01*
X118666190Y-170600714D01*
X118856666Y-170600714D01*
X118951904Y-170648333D01*
X120761428Y-171172142D02*
X120713809Y-171219761D01*
X120570952Y-171267380D01*
X120475714Y-171267380D01*
X120332857Y-171219761D01*
X120237619Y-171124523D01*
X120190000Y-171029285D01*
X120142380Y-170838809D01*
X120142380Y-170695952D01*
X120190000Y-170505476D01*
X120237619Y-170410238D01*
X120332857Y-170315000D01*
X120475714Y-170267380D01*
X120570952Y-170267380D01*
X120713809Y-170315000D01*
X120761428Y-170362619D01*
X121570952Y-171219761D02*
X121475714Y-171267380D01*
X121285238Y-171267380D01*
X121190000Y-171219761D01*
X121142380Y-171124523D01*
X121142380Y-170743571D01*
X121190000Y-170648333D01*
X121285238Y-170600714D01*
X121475714Y-170600714D01*
X121570952Y-170648333D01*
X121618571Y-170743571D01*
X121618571Y-170838809D01*
X121142380Y-170934047D01*
X122190000Y-171267380D02*
X122094761Y-171219761D01*
X122047142Y-171124523D01*
X122047142Y-170267380D01*
X122713809Y-171267380D02*
X122618571Y-171219761D01*
X122570952Y-171124523D01*
X122570952Y-170267380D01*
X124190000Y-170743571D02*
X124332857Y-170791190D01*
X124380476Y-170838809D01*
X124428095Y-170934047D01*
X124428095Y-171076904D01*
X124380476Y-171172142D01*
X124332857Y-171219761D01*
X124237619Y-171267380D01*
X123856666Y-171267380D01*
X123856666Y-170267380D01*
X124190000Y-170267380D01*
X124285238Y-170315000D01*
X124332857Y-170362619D01*
X124380476Y-170457857D01*
X124380476Y-170553095D01*
X124332857Y-170648333D01*
X124285238Y-170695952D01*
X124190000Y-170743571D01*
X123856666Y-170743571D01*
X125285238Y-171267380D02*
X125285238Y-170743571D01*
X125237619Y-170648333D01*
X125142380Y-170600714D01*
X124951904Y-170600714D01*
X124856666Y-170648333D01*
X125285238Y-171219761D02*
X125190000Y-171267380D01*
X124951904Y-171267380D01*
X124856666Y-171219761D01*
X124809047Y-171124523D01*
X124809047Y-171029285D01*
X124856666Y-170934047D01*
X124951904Y-170886428D01*
X125190000Y-170886428D01*
X125285238Y-170838809D01*
X126190000Y-171219761D02*
X126094761Y-171267380D01*
X125904285Y-171267380D01*
X125809047Y-171219761D01*
X125761428Y-171172142D01*
X125713809Y-171076904D01*
X125713809Y-170791190D01*
X125761428Y-170695952D01*
X125809047Y-170648333D01*
X125904285Y-170600714D01*
X126094761Y-170600714D01*
X126190000Y-170648333D01*
X126618571Y-171267380D02*
X126618571Y-170267380D01*
X126713809Y-170886428D02*
X126999523Y-171267380D01*
X126999523Y-170600714D02*
X126618571Y-170981666D01*
X127856666Y-170600714D02*
X127856666Y-171267380D01*
X127428095Y-170600714D02*
X127428095Y-171124523D01*
X127475714Y-171219761D01*
X127570952Y-171267380D01*
X127713809Y-171267380D01*
X127809047Y-171219761D01*
X127856666Y-171172142D01*
X128332857Y-170600714D02*
X128332857Y-171600714D01*
X128332857Y-170648333D02*
X128428095Y-170600714D01*
X128618571Y-170600714D01*
X128713809Y-170648333D01*
X128761428Y-170695952D01*
X128809047Y-170791190D01*
X128809047Y-171076904D01*
X128761428Y-171172142D01*
X128713809Y-171219761D01*
X128618571Y-171267380D01*
X128428095Y-171267380D01*
X128332857Y-171219761D01*
X130428095Y-170267380D02*
X130237619Y-170267380D01*
X130142380Y-170315000D01*
X130094761Y-170362619D01*
X129999523Y-170505476D01*
X129951904Y-170695952D01*
X129951904Y-171076904D01*
X129999523Y-171172142D01*
X130047142Y-171219761D01*
X130142380Y-171267380D01*
X130332857Y-171267380D01*
X130428095Y-171219761D01*
X130475714Y-171172142D01*
X130523333Y-171076904D01*
X130523333Y-170838809D01*
X130475714Y-170743571D01*
X130428095Y-170695952D01*
X130332857Y-170648333D01*
X130142380Y-170648333D01*
X130047142Y-170695952D01*
X129999523Y-170743571D01*
X129951904Y-170838809D01*
%TO.C,R17*%
X69667380Y-145772283D02*
X69191190Y-146105616D01*
X69667380Y-146343711D02*
X68667380Y-146343711D01*
X68667380Y-145962759D01*
X68715000Y-145867521D01*
X68762619Y-145819902D01*
X68857857Y-145772283D01*
X69000714Y-145772283D01*
X69095952Y-145819902D01*
X69143571Y-145867521D01*
X69191190Y-145962759D01*
X69191190Y-146343711D01*
X69667380Y-144819902D02*
X69667380Y-145391330D01*
X69667380Y-145105616D02*
X68667380Y-145105616D01*
X68810238Y-145200854D01*
X68905476Y-145296092D01*
X68953095Y-145391330D01*
X68667380Y-144486568D02*
X68667380Y-143819902D01*
X69667380Y-144248473D01*
%TO.C,Load Cell 2*%
X48712380Y-158678095D02*
X48712380Y-159154285D01*
X47712380Y-159154285D01*
X48712380Y-158201904D02*
X48664761Y-158297142D01*
X48617142Y-158344761D01*
X48521904Y-158392380D01*
X48236190Y-158392380D01*
X48140952Y-158344761D01*
X48093333Y-158297142D01*
X48045714Y-158201904D01*
X48045714Y-158059047D01*
X48093333Y-157963809D01*
X48140952Y-157916190D01*
X48236190Y-157868571D01*
X48521904Y-157868571D01*
X48617142Y-157916190D01*
X48664761Y-157963809D01*
X48712380Y-158059047D01*
X48712380Y-158201904D01*
X48712380Y-157011428D02*
X48188571Y-157011428D01*
X48093333Y-157059047D01*
X48045714Y-157154285D01*
X48045714Y-157344761D01*
X48093333Y-157440000D01*
X48664761Y-157011428D02*
X48712380Y-157106666D01*
X48712380Y-157344761D01*
X48664761Y-157440000D01*
X48569523Y-157487619D01*
X48474285Y-157487619D01*
X48379047Y-157440000D01*
X48331428Y-157344761D01*
X48331428Y-157106666D01*
X48283809Y-157011428D01*
X48712380Y-156106666D02*
X47712380Y-156106666D01*
X48664761Y-156106666D02*
X48712380Y-156201904D01*
X48712380Y-156392380D01*
X48664761Y-156487619D01*
X48617142Y-156535238D01*
X48521904Y-156582857D01*
X48236190Y-156582857D01*
X48140952Y-156535238D01*
X48093333Y-156487619D01*
X48045714Y-156392380D01*
X48045714Y-156201904D01*
X48093333Y-156106666D01*
X48617142Y-154297142D02*
X48664761Y-154344761D01*
X48712380Y-154487619D01*
X48712380Y-154582857D01*
X48664761Y-154725714D01*
X48569523Y-154820952D01*
X48474285Y-154868571D01*
X48283809Y-154916190D01*
X48140952Y-154916190D01*
X47950476Y-154868571D01*
X47855238Y-154820952D01*
X47760000Y-154725714D01*
X47712380Y-154582857D01*
X47712380Y-154487619D01*
X47760000Y-154344761D01*
X47807619Y-154297142D01*
X48664761Y-153487619D02*
X48712380Y-153582857D01*
X48712380Y-153773333D01*
X48664761Y-153868571D01*
X48569523Y-153916190D01*
X48188571Y-153916190D01*
X48093333Y-153868571D01*
X48045714Y-153773333D01*
X48045714Y-153582857D01*
X48093333Y-153487619D01*
X48188571Y-153440000D01*
X48283809Y-153440000D01*
X48379047Y-153916190D01*
X48712380Y-152868571D02*
X48664761Y-152963809D01*
X48569523Y-153011428D01*
X47712380Y-153011428D01*
X48712380Y-152344761D02*
X48664761Y-152440000D01*
X48569523Y-152487619D01*
X47712380Y-152487619D01*
X47807619Y-151249523D02*
X47760000Y-151201904D01*
X47712380Y-151106666D01*
X47712380Y-150868571D01*
X47760000Y-150773333D01*
X47807619Y-150725714D01*
X47902857Y-150678095D01*
X47998095Y-150678095D01*
X48140952Y-150725714D01*
X48712380Y-151297142D01*
X48712380Y-150678095D01*
%TO.C,ESP32*%
X151058543Y-61833684D02*
X151058543Y-61500222D01*
X151582555Y-61357310D02*
X151582555Y-61833684D01*
X150582169Y-61833684D01*
X150582169Y-61357310D01*
X151534918Y-60976210D02*
X151582555Y-60833298D01*
X151582555Y-60595111D01*
X151534918Y-60499836D01*
X151487280Y-60452198D01*
X151392005Y-60404561D01*
X151296731Y-60404561D01*
X151201456Y-60452198D01*
X151153818Y-60499836D01*
X151106181Y-60595111D01*
X151058543Y-60785660D01*
X151010906Y-60880935D01*
X150963269Y-60928573D01*
X150867994Y-60976210D01*
X150772719Y-60976210D01*
X150677444Y-60928573D01*
X150629807Y-60880935D01*
X150582169Y-60785660D01*
X150582169Y-60547473D01*
X150629807Y-60404561D01*
X151582555Y-59975824D02*
X150582169Y-59975824D01*
X150582169Y-59594725D01*
X150629807Y-59499450D01*
X150677444Y-59451812D01*
X150772719Y-59404175D01*
X150915631Y-59404175D01*
X151010906Y-59451812D01*
X151058543Y-59499450D01*
X151106181Y-59594725D01*
X151106181Y-59975824D01*
X150582169Y-59070713D02*
X150582169Y-58451426D01*
X150963269Y-58784888D01*
X150963269Y-58641976D01*
X151010906Y-58546701D01*
X151058543Y-58499064D01*
X151153818Y-58451426D01*
X151392005Y-58451426D01*
X151487280Y-58499064D01*
X151534918Y-58546701D01*
X151582555Y-58641976D01*
X151582555Y-58927801D01*
X151534918Y-59023076D01*
X151487280Y-59070713D01*
X150677444Y-58070327D02*
X150629807Y-58022690D01*
X150582169Y-57927415D01*
X150582169Y-57689228D01*
X150629807Y-57593953D01*
X150677444Y-57546315D01*
X150772719Y-57498678D01*
X150867994Y-57498678D01*
X151010906Y-57546315D01*
X151582555Y-58117964D01*
X151582555Y-57498678D01*
%TO.C,R1*%
X34107380Y-144946666D02*
X33631190Y-145280000D01*
X34107380Y-145518095D02*
X33107380Y-145518095D01*
X33107380Y-145137142D01*
X33155000Y-145041904D01*
X33202619Y-144994285D01*
X33297857Y-144946666D01*
X33440714Y-144946666D01*
X33535952Y-144994285D01*
X33583571Y-145041904D01*
X33631190Y-145137142D01*
X33631190Y-145518095D01*
X34107380Y-143994285D02*
X34107380Y-144565714D01*
X34107380Y-144280000D02*
X33107380Y-144280000D01*
X33250238Y-144375238D01*
X33345476Y-144470476D01*
X33393095Y-144565714D01*
%TO.C,HX711 Breakout 2*%
X84090714Y-110942380D02*
X84090714Y-109942380D01*
X84090714Y-110418571D02*
X84662142Y-110418571D01*
X84662142Y-110942380D02*
X84662142Y-109942380D01*
X85043095Y-109942380D02*
X85709761Y-110942380D01*
X85709761Y-109942380D02*
X85043095Y-110942380D01*
X85995476Y-109942380D02*
X86662142Y-109942380D01*
X86233571Y-110942380D01*
X87566904Y-110942380D02*
X86995476Y-110942380D01*
X87281190Y-110942380D02*
X87281190Y-109942380D01*
X87185952Y-110085238D01*
X87090714Y-110180476D01*
X86995476Y-110228095D01*
X88519285Y-110942380D02*
X87947857Y-110942380D01*
X88233571Y-110942380D02*
X88233571Y-109942380D01*
X88138333Y-110085238D01*
X88043095Y-110180476D01*
X87947857Y-110228095D01*
X90043095Y-110418571D02*
X90185952Y-110466190D01*
X90233571Y-110513809D01*
X90281190Y-110609047D01*
X90281190Y-110751904D01*
X90233571Y-110847142D01*
X90185952Y-110894761D01*
X90090714Y-110942380D01*
X89709761Y-110942380D01*
X89709761Y-109942380D01*
X90043095Y-109942380D01*
X90138333Y-109990000D01*
X90185952Y-110037619D01*
X90233571Y-110132857D01*
X90233571Y-110228095D01*
X90185952Y-110323333D01*
X90138333Y-110370952D01*
X90043095Y-110418571D01*
X89709761Y-110418571D01*
X90709761Y-110942380D02*
X90709761Y-110275714D01*
X90709761Y-110466190D02*
X90757380Y-110370952D01*
X90805000Y-110323333D01*
X90900238Y-110275714D01*
X90995476Y-110275714D01*
X91709761Y-110894761D02*
X91614523Y-110942380D01*
X91424047Y-110942380D01*
X91328809Y-110894761D01*
X91281190Y-110799523D01*
X91281190Y-110418571D01*
X91328809Y-110323333D01*
X91424047Y-110275714D01*
X91614523Y-110275714D01*
X91709761Y-110323333D01*
X91757380Y-110418571D01*
X91757380Y-110513809D01*
X91281190Y-110609047D01*
X92614523Y-110942380D02*
X92614523Y-110418571D01*
X92566904Y-110323333D01*
X92471666Y-110275714D01*
X92281190Y-110275714D01*
X92185952Y-110323333D01*
X92614523Y-110894761D02*
X92519285Y-110942380D01*
X92281190Y-110942380D01*
X92185952Y-110894761D01*
X92138333Y-110799523D01*
X92138333Y-110704285D01*
X92185952Y-110609047D01*
X92281190Y-110561428D01*
X92519285Y-110561428D01*
X92614523Y-110513809D01*
X93090714Y-110942380D02*
X93090714Y-109942380D01*
X93185952Y-110561428D02*
X93471666Y-110942380D01*
X93471666Y-110275714D02*
X93090714Y-110656666D01*
X94043095Y-110942380D02*
X93947857Y-110894761D01*
X93900238Y-110847142D01*
X93852619Y-110751904D01*
X93852619Y-110466190D01*
X93900238Y-110370952D01*
X93947857Y-110323333D01*
X94043095Y-110275714D01*
X94185952Y-110275714D01*
X94281190Y-110323333D01*
X94328809Y-110370952D01*
X94376428Y-110466190D01*
X94376428Y-110751904D01*
X94328809Y-110847142D01*
X94281190Y-110894761D01*
X94185952Y-110942380D01*
X94043095Y-110942380D01*
X95233571Y-110275714D02*
X95233571Y-110942380D01*
X94805000Y-110275714D02*
X94805000Y-110799523D01*
X94852619Y-110894761D01*
X94947857Y-110942380D01*
X95090714Y-110942380D01*
X95185952Y-110894761D01*
X95233571Y-110847142D01*
X95566904Y-110275714D02*
X95947857Y-110275714D01*
X95709761Y-109942380D02*
X95709761Y-110799523D01*
X95757380Y-110894761D01*
X95852619Y-110942380D01*
X95947857Y-110942380D01*
X96995476Y-110037619D02*
X97043095Y-109990000D01*
X97138333Y-109942380D01*
X97376428Y-109942380D01*
X97471666Y-109990000D01*
X97519285Y-110037619D01*
X97566904Y-110132857D01*
X97566904Y-110228095D01*
X97519285Y-110370952D01*
X96947857Y-110942380D01*
X97566904Y-110942380D01*
%TO.C,R12*%
X189682380Y-146782519D02*
X189206190Y-147115852D01*
X189682380Y-147353947D02*
X188682380Y-147353947D01*
X188682380Y-146972995D01*
X188730000Y-146877757D01*
X188777619Y-146830138D01*
X188872857Y-146782519D01*
X189015714Y-146782519D01*
X189110952Y-146830138D01*
X189158571Y-146877757D01*
X189206190Y-146972995D01*
X189206190Y-147353947D01*
X189682380Y-145830138D02*
X189682380Y-146401566D01*
X189682380Y-146115852D02*
X188682380Y-146115852D01*
X188825238Y-146211090D01*
X188920476Y-146306328D01*
X188968095Y-146401566D01*
X188777619Y-145449185D02*
X188730000Y-145401566D01*
X188682380Y-145306328D01*
X188682380Y-145068233D01*
X188730000Y-144972995D01*
X188777619Y-144925376D01*
X188872857Y-144877757D01*
X188968095Y-144877757D01*
X189110952Y-144925376D01*
X189682380Y-145496804D01*
X189682380Y-144877757D01*
%TO.C,Flow Meter *%
X74224047Y-43108571D02*
X73890714Y-43108571D01*
X73890714Y-43632380D02*
X73890714Y-42632380D01*
X74366904Y-42632380D01*
X74890714Y-43632380D02*
X74795476Y-43584761D01*
X74747857Y-43489523D01*
X74747857Y-42632380D01*
X75414523Y-43632380D02*
X75319285Y-43584761D01*
X75271666Y-43537142D01*
X75224047Y-43441904D01*
X75224047Y-43156190D01*
X75271666Y-43060952D01*
X75319285Y-43013333D01*
X75414523Y-42965714D01*
X75557380Y-42965714D01*
X75652619Y-43013333D01*
X75700238Y-43060952D01*
X75747857Y-43156190D01*
X75747857Y-43441904D01*
X75700238Y-43537142D01*
X75652619Y-43584761D01*
X75557380Y-43632380D01*
X75414523Y-43632380D01*
X76081190Y-42965714D02*
X76271666Y-43632380D01*
X76462142Y-43156190D01*
X76652619Y-43632380D01*
X76843095Y-42965714D01*
X77985952Y-43632380D02*
X77985952Y-42632380D01*
X78319285Y-43346666D01*
X78652619Y-42632380D01*
X78652619Y-43632380D01*
X79509761Y-43584761D02*
X79414523Y-43632380D01*
X79224047Y-43632380D01*
X79128809Y-43584761D01*
X79081190Y-43489523D01*
X79081190Y-43108571D01*
X79128809Y-43013333D01*
X79224047Y-42965714D01*
X79414523Y-42965714D01*
X79509761Y-43013333D01*
X79557380Y-43108571D01*
X79557380Y-43203809D01*
X79081190Y-43299047D01*
X79843095Y-42965714D02*
X80224047Y-42965714D01*
X79985952Y-42632380D02*
X79985952Y-43489523D01*
X80033571Y-43584761D01*
X80128809Y-43632380D01*
X80224047Y-43632380D01*
X80938333Y-43584761D02*
X80843095Y-43632380D01*
X80652619Y-43632380D01*
X80557380Y-43584761D01*
X80509761Y-43489523D01*
X80509761Y-43108571D01*
X80557380Y-43013333D01*
X80652619Y-42965714D01*
X80843095Y-42965714D01*
X80938333Y-43013333D01*
X80985952Y-43108571D01*
X80985952Y-43203809D01*
X80509761Y-43299047D01*
X81414523Y-43632380D02*
X81414523Y-42965714D01*
X81414523Y-43156190D02*
X81462142Y-43060952D01*
X81509761Y-43013333D01*
X81605000Y-42965714D01*
X81700238Y-42965714D01*
%TO.C,R3*%
X102052380Y-144946666D02*
X101576190Y-145280000D01*
X102052380Y-145518095D02*
X101052380Y-145518095D01*
X101052380Y-145137142D01*
X101100000Y-145041904D01*
X101147619Y-144994285D01*
X101242857Y-144946666D01*
X101385714Y-144946666D01*
X101480952Y-144994285D01*
X101528571Y-145041904D01*
X101576190Y-145137142D01*
X101576190Y-145518095D01*
X101052380Y-144613333D02*
X101052380Y-143994285D01*
X101433333Y-144327619D01*
X101433333Y-144184761D01*
X101480952Y-144089523D01*
X101528571Y-144041904D01*
X101623809Y-143994285D01*
X101861904Y-143994285D01*
X101957142Y-144041904D01*
X102004761Y-144089523D01*
X102052380Y-144184761D01*
X102052380Y-144470476D01*
X102004761Y-144565714D01*
X101957142Y-144613333D01*
%TO.C,HX711 Breakout 3*%
X134255714Y-110942380D02*
X134255714Y-109942380D01*
X134255714Y-110418571D02*
X134827142Y-110418571D01*
X134827142Y-110942380D02*
X134827142Y-109942380D01*
X135208095Y-109942380D02*
X135874761Y-110942380D01*
X135874761Y-109942380D02*
X135208095Y-110942380D01*
X136160476Y-109942380D02*
X136827142Y-109942380D01*
X136398571Y-110942380D01*
X137731904Y-110942380D02*
X137160476Y-110942380D01*
X137446190Y-110942380D02*
X137446190Y-109942380D01*
X137350952Y-110085238D01*
X137255714Y-110180476D01*
X137160476Y-110228095D01*
X138684285Y-110942380D02*
X138112857Y-110942380D01*
X138398571Y-110942380D02*
X138398571Y-109942380D01*
X138303333Y-110085238D01*
X138208095Y-110180476D01*
X138112857Y-110228095D01*
X140208095Y-110418571D02*
X140350952Y-110466190D01*
X140398571Y-110513809D01*
X140446190Y-110609047D01*
X140446190Y-110751904D01*
X140398571Y-110847142D01*
X140350952Y-110894761D01*
X140255714Y-110942380D01*
X139874761Y-110942380D01*
X139874761Y-109942380D01*
X140208095Y-109942380D01*
X140303333Y-109990000D01*
X140350952Y-110037619D01*
X140398571Y-110132857D01*
X140398571Y-110228095D01*
X140350952Y-110323333D01*
X140303333Y-110370952D01*
X140208095Y-110418571D01*
X139874761Y-110418571D01*
X140874761Y-110942380D02*
X140874761Y-110275714D01*
X140874761Y-110466190D02*
X140922380Y-110370952D01*
X140970000Y-110323333D01*
X141065238Y-110275714D01*
X141160476Y-110275714D01*
X141874761Y-110894761D02*
X141779523Y-110942380D01*
X141589047Y-110942380D01*
X141493809Y-110894761D01*
X141446190Y-110799523D01*
X141446190Y-110418571D01*
X141493809Y-110323333D01*
X141589047Y-110275714D01*
X141779523Y-110275714D01*
X141874761Y-110323333D01*
X141922380Y-110418571D01*
X141922380Y-110513809D01*
X141446190Y-110609047D01*
X142779523Y-110942380D02*
X142779523Y-110418571D01*
X142731904Y-110323333D01*
X142636666Y-110275714D01*
X142446190Y-110275714D01*
X142350952Y-110323333D01*
X142779523Y-110894761D02*
X142684285Y-110942380D01*
X142446190Y-110942380D01*
X142350952Y-110894761D01*
X142303333Y-110799523D01*
X142303333Y-110704285D01*
X142350952Y-110609047D01*
X142446190Y-110561428D01*
X142684285Y-110561428D01*
X142779523Y-110513809D01*
X143255714Y-110942380D02*
X143255714Y-109942380D01*
X143350952Y-110561428D02*
X143636666Y-110942380D01*
X143636666Y-110275714D02*
X143255714Y-110656666D01*
X144208095Y-110942380D02*
X144112857Y-110894761D01*
X144065238Y-110847142D01*
X144017619Y-110751904D01*
X144017619Y-110466190D01*
X144065238Y-110370952D01*
X144112857Y-110323333D01*
X144208095Y-110275714D01*
X144350952Y-110275714D01*
X144446190Y-110323333D01*
X144493809Y-110370952D01*
X144541428Y-110466190D01*
X144541428Y-110751904D01*
X144493809Y-110847142D01*
X144446190Y-110894761D01*
X144350952Y-110942380D01*
X144208095Y-110942380D01*
X145398571Y-110275714D02*
X145398571Y-110942380D01*
X144970000Y-110275714D02*
X144970000Y-110799523D01*
X145017619Y-110894761D01*
X145112857Y-110942380D01*
X145255714Y-110942380D01*
X145350952Y-110894761D01*
X145398571Y-110847142D01*
X145731904Y-110275714D02*
X146112857Y-110275714D01*
X145874761Y-109942380D02*
X145874761Y-110799523D01*
X145922380Y-110894761D01*
X146017619Y-110942380D01*
X146112857Y-110942380D01*
X147112857Y-109942380D02*
X147731904Y-109942380D01*
X147398571Y-110323333D01*
X147541428Y-110323333D01*
X147636666Y-110370952D01*
X147684285Y-110418571D01*
X147731904Y-110513809D01*
X147731904Y-110751904D01*
X147684285Y-110847142D01*
X147636666Y-110894761D01*
X147541428Y-110942380D01*
X147255714Y-110942380D01*
X147160476Y-110894761D01*
X147112857Y-110847142D01*
%TO.C,REF\u002A\u002A*%
X24066666Y-14667380D02*
X23733333Y-14191190D01*
X23495238Y-14667380D02*
X23495238Y-13667380D01*
X23876190Y-13667380D01*
X23971428Y-13715000D01*
X24019047Y-13762619D01*
X24066666Y-13857857D01*
X24066666Y-14000714D01*
X24019047Y-14095952D01*
X23971428Y-14143571D01*
X23876190Y-14191190D01*
X23495238Y-14191190D01*
X24495238Y-14143571D02*
X24828571Y-14143571D01*
X24971428Y-14667380D02*
X24495238Y-14667380D01*
X24495238Y-13667380D01*
X24971428Y-13667380D01*
X25733333Y-14143571D02*
X25400000Y-14143571D01*
X25400000Y-14667380D02*
X25400000Y-13667380D01*
X25876190Y-13667380D01*
X26400000Y-13667380D02*
X26400000Y-13905476D01*
X26161904Y-13810238D02*
X26400000Y-13905476D01*
X26638095Y-13810238D01*
X26257142Y-14095952D02*
X26400000Y-13905476D01*
X26542857Y-14095952D01*
X27161904Y-13667380D02*
X27161904Y-13905476D01*
X26923809Y-13810238D02*
X27161904Y-13905476D01*
X27400000Y-13810238D01*
X27019047Y-14095952D02*
X27161904Y-13905476D01*
X27304761Y-14095952D01*
%TO.C,R9*%
X70937380Y-53506666D02*
X70461190Y-53840000D01*
X70937380Y-54078095D02*
X69937380Y-54078095D01*
X69937380Y-53697142D01*
X69985000Y-53601904D01*
X70032619Y-53554285D01*
X70127857Y-53506666D01*
X70270714Y-53506666D01*
X70365952Y-53554285D01*
X70413571Y-53601904D01*
X70461190Y-53697142D01*
X70461190Y-54078095D01*
X70937380Y-53030476D02*
X70937380Y-52840000D01*
X70889761Y-52744761D01*
X70842142Y-52697142D01*
X70699285Y-52601904D01*
X70508809Y-52554285D01*
X70127857Y-52554285D01*
X70032619Y-52601904D01*
X69985000Y-52649523D01*
X69937380Y-52744761D01*
X69937380Y-52935238D01*
X69985000Y-53030476D01*
X70032619Y-53078095D01*
X70127857Y-53125714D01*
X70365952Y-53125714D01*
X70461190Y-53078095D01*
X70508809Y-53030476D01*
X70556428Y-52935238D01*
X70556428Y-52744761D01*
X70508809Y-52649523D01*
X70461190Y-52601904D01*
X70365952Y-52554285D01*
%TO.C,HX711 Breakout 8*%
X185690714Y-138882380D02*
X185690714Y-137882380D01*
X185690714Y-138358571D02*
X186262142Y-138358571D01*
X186262142Y-138882380D02*
X186262142Y-137882380D01*
X186643095Y-137882380D02*
X187309761Y-138882380D01*
X187309761Y-137882380D02*
X186643095Y-138882380D01*
X187595476Y-137882380D02*
X188262142Y-137882380D01*
X187833571Y-138882380D01*
X189166904Y-138882380D02*
X188595476Y-138882380D01*
X188881190Y-138882380D02*
X188881190Y-137882380D01*
X188785952Y-138025238D01*
X188690714Y-138120476D01*
X188595476Y-138168095D01*
X190119285Y-138882380D02*
X189547857Y-138882380D01*
X189833571Y-138882380D02*
X189833571Y-137882380D01*
X189738333Y-138025238D01*
X189643095Y-138120476D01*
X189547857Y-138168095D01*
X191643095Y-138358571D02*
X191785952Y-138406190D01*
X191833571Y-138453809D01*
X191881190Y-138549047D01*
X191881190Y-138691904D01*
X191833571Y-138787142D01*
X191785952Y-138834761D01*
X191690714Y-138882380D01*
X191309761Y-138882380D01*
X191309761Y-137882380D01*
X191643095Y-137882380D01*
X191738333Y-137930000D01*
X191785952Y-137977619D01*
X191833571Y-138072857D01*
X191833571Y-138168095D01*
X191785952Y-138263333D01*
X191738333Y-138310952D01*
X191643095Y-138358571D01*
X191309761Y-138358571D01*
X192309761Y-138882380D02*
X192309761Y-138215714D01*
X192309761Y-138406190D02*
X192357380Y-138310952D01*
X192405000Y-138263333D01*
X192500238Y-138215714D01*
X192595476Y-138215714D01*
X193309761Y-138834761D02*
X193214523Y-138882380D01*
X193024047Y-138882380D01*
X192928809Y-138834761D01*
X192881190Y-138739523D01*
X192881190Y-138358571D01*
X192928809Y-138263333D01*
X193024047Y-138215714D01*
X193214523Y-138215714D01*
X193309761Y-138263333D01*
X193357380Y-138358571D01*
X193357380Y-138453809D01*
X192881190Y-138549047D01*
X194214523Y-138882380D02*
X194214523Y-138358571D01*
X194166904Y-138263333D01*
X194071666Y-138215714D01*
X193881190Y-138215714D01*
X193785952Y-138263333D01*
X194214523Y-138834761D02*
X194119285Y-138882380D01*
X193881190Y-138882380D01*
X193785952Y-138834761D01*
X193738333Y-138739523D01*
X193738333Y-138644285D01*
X193785952Y-138549047D01*
X193881190Y-138501428D01*
X194119285Y-138501428D01*
X194214523Y-138453809D01*
X194690714Y-138882380D02*
X194690714Y-137882380D01*
X194785952Y-138501428D02*
X195071666Y-138882380D01*
X195071666Y-138215714D02*
X194690714Y-138596666D01*
X195643095Y-138882380D02*
X195547857Y-138834761D01*
X195500238Y-138787142D01*
X195452619Y-138691904D01*
X195452619Y-138406190D01*
X195500238Y-138310952D01*
X195547857Y-138263333D01*
X195643095Y-138215714D01*
X195785952Y-138215714D01*
X195881190Y-138263333D01*
X195928809Y-138310952D01*
X195976428Y-138406190D01*
X195976428Y-138691904D01*
X195928809Y-138787142D01*
X195881190Y-138834761D01*
X195785952Y-138882380D01*
X195643095Y-138882380D01*
X196833571Y-138215714D02*
X196833571Y-138882380D01*
X196405000Y-138215714D02*
X196405000Y-138739523D01*
X196452619Y-138834761D01*
X196547857Y-138882380D01*
X196690714Y-138882380D01*
X196785952Y-138834761D01*
X196833571Y-138787142D01*
X197166904Y-138215714D02*
X197547857Y-138215714D01*
X197309761Y-137882380D02*
X197309761Y-138739523D01*
X197357380Y-138834761D01*
X197452619Y-138882380D01*
X197547857Y-138882380D01*
X198785952Y-138310952D02*
X198690714Y-138263333D01*
X198643095Y-138215714D01*
X198595476Y-138120476D01*
X198595476Y-138072857D01*
X198643095Y-137977619D01*
X198690714Y-137930000D01*
X198785952Y-137882380D01*
X198976428Y-137882380D01*
X199071666Y-137930000D01*
X199119285Y-137977619D01*
X199166904Y-138072857D01*
X199166904Y-138120476D01*
X199119285Y-138215714D01*
X199071666Y-138263333D01*
X198976428Y-138310952D01*
X198785952Y-138310952D01*
X198690714Y-138358571D01*
X198643095Y-138406190D01*
X198595476Y-138501428D01*
X198595476Y-138691904D01*
X198643095Y-138787142D01*
X198690714Y-138834761D01*
X198785952Y-138882380D01*
X198976428Y-138882380D01*
X199071666Y-138834761D01*
X199119285Y-138787142D01*
X199166904Y-138691904D01*
X199166904Y-138501428D01*
X199119285Y-138406190D01*
X199071666Y-138358571D01*
X198976428Y-138310952D01*
%TO.C,*%
%TO.C,R5*%
X166187380Y-146127003D02*
X165711190Y-146460337D01*
X166187380Y-146698432D02*
X165187380Y-146698432D01*
X165187380Y-146317479D01*
X165235000Y-146222241D01*
X165282619Y-146174622D01*
X165377857Y-146127003D01*
X165520714Y-146127003D01*
X165615952Y-146174622D01*
X165663571Y-146222241D01*
X165711190Y-146317479D01*
X165711190Y-146698432D01*
X165187380Y-145222241D02*
X165187380Y-145698432D01*
X165663571Y-145746051D01*
X165615952Y-145698432D01*
X165568333Y-145603194D01*
X165568333Y-145365098D01*
X165615952Y-145269860D01*
X165663571Y-145222241D01*
X165758809Y-145174622D01*
X165996904Y-145174622D01*
X166092142Y-145222241D01*
X166139761Y-145269860D01*
X166187380Y-145365098D01*
X166187380Y-145603194D01*
X166139761Y-145698432D01*
X166092142Y-145746051D01*
%TO.C,Servo 2 *%
X136604761Y-30249761D02*
X136747619Y-30297380D01*
X136985714Y-30297380D01*
X137080952Y-30249761D01*
X137128571Y-30202142D01*
X137176190Y-30106904D01*
X137176190Y-30011666D01*
X137128571Y-29916428D01*
X137080952Y-29868809D01*
X136985714Y-29821190D01*
X136795238Y-29773571D01*
X136700000Y-29725952D01*
X136652380Y-29678333D01*
X136604761Y-29583095D01*
X136604761Y-29487857D01*
X136652380Y-29392619D01*
X136700000Y-29345000D01*
X136795238Y-29297380D01*
X137033333Y-29297380D01*
X137176190Y-29345000D01*
X137985714Y-30249761D02*
X137890476Y-30297380D01*
X137700000Y-30297380D01*
X137604761Y-30249761D01*
X137557142Y-30154523D01*
X137557142Y-29773571D01*
X137604761Y-29678333D01*
X137700000Y-29630714D01*
X137890476Y-29630714D01*
X137985714Y-29678333D01*
X138033333Y-29773571D01*
X138033333Y-29868809D01*
X137557142Y-29964047D01*
X138461904Y-30297380D02*
X138461904Y-29630714D01*
X138461904Y-29821190D02*
X138509523Y-29725952D01*
X138557142Y-29678333D01*
X138652380Y-29630714D01*
X138747619Y-29630714D01*
X138985714Y-29630714D02*
X139223809Y-30297380D01*
X139461904Y-29630714D01*
X139985714Y-30297380D02*
X139890476Y-30249761D01*
X139842857Y-30202142D01*
X139795238Y-30106904D01*
X139795238Y-29821190D01*
X139842857Y-29725952D01*
X139890476Y-29678333D01*
X139985714Y-29630714D01*
X140128571Y-29630714D01*
X140223809Y-29678333D01*
X140271428Y-29725952D01*
X140319047Y-29821190D01*
X140319047Y-30106904D01*
X140271428Y-30202142D01*
X140223809Y-30249761D01*
X140128571Y-30297380D01*
X139985714Y-30297380D01*
X141461904Y-29392619D02*
X141509523Y-29345000D01*
X141604761Y-29297380D01*
X141842857Y-29297380D01*
X141938095Y-29345000D01*
X141985714Y-29392619D01*
X142033333Y-29487857D01*
X142033333Y-29583095D01*
X141985714Y-29725952D01*
X141414285Y-30297380D01*
X142033333Y-30297380D01*
%TO.C,Load Cell 7*%
X158567380Y-158043095D02*
X158567380Y-158519285D01*
X157567380Y-158519285D01*
X158567380Y-157566904D02*
X158519761Y-157662142D01*
X158472142Y-157709761D01*
X158376904Y-157757380D01*
X158091190Y-157757380D01*
X157995952Y-157709761D01*
X157948333Y-157662142D01*
X157900714Y-157566904D01*
X157900714Y-157424047D01*
X157948333Y-157328809D01*
X157995952Y-157281190D01*
X158091190Y-157233571D01*
X158376904Y-157233571D01*
X158472142Y-157281190D01*
X158519761Y-157328809D01*
X158567380Y-157424047D01*
X158567380Y-157566904D01*
X158567380Y-156376428D02*
X158043571Y-156376428D01*
X157948333Y-156424047D01*
X157900714Y-156519285D01*
X157900714Y-156709761D01*
X157948333Y-156805000D01*
X158519761Y-156376428D02*
X158567380Y-156471666D01*
X158567380Y-156709761D01*
X158519761Y-156805000D01*
X158424523Y-156852619D01*
X158329285Y-156852619D01*
X158234047Y-156805000D01*
X158186428Y-156709761D01*
X158186428Y-156471666D01*
X158138809Y-156376428D01*
X158567380Y-155471666D02*
X157567380Y-155471666D01*
X158519761Y-155471666D02*
X158567380Y-155566904D01*
X158567380Y-155757380D01*
X158519761Y-155852619D01*
X158472142Y-155900238D01*
X158376904Y-155947857D01*
X158091190Y-155947857D01*
X157995952Y-155900238D01*
X157948333Y-155852619D01*
X157900714Y-155757380D01*
X157900714Y-155566904D01*
X157948333Y-155471666D01*
X158472142Y-153662142D02*
X158519761Y-153709761D01*
X158567380Y-153852619D01*
X158567380Y-153947857D01*
X158519761Y-154090714D01*
X158424523Y-154185952D01*
X158329285Y-154233571D01*
X158138809Y-154281190D01*
X157995952Y-154281190D01*
X157805476Y-154233571D01*
X157710238Y-154185952D01*
X157615000Y-154090714D01*
X157567380Y-153947857D01*
X157567380Y-153852619D01*
X157615000Y-153709761D01*
X157662619Y-153662142D01*
X158519761Y-152852619D02*
X158567380Y-152947857D01*
X158567380Y-153138333D01*
X158519761Y-153233571D01*
X158424523Y-153281190D01*
X158043571Y-153281190D01*
X157948333Y-153233571D01*
X157900714Y-153138333D01*
X157900714Y-152947857D01*
X157948333Y-152852619D01*
X158043571Y-152805000D01*
X158138809Y-152805000D01*
X158234047Y-153281190D01*
X158567380Y-152233571D02*
X158519761Y-152328809D01*
X158424523Y-152376428D01*
X157567380Y-152376428D01*
X158567380Y-151709761D02*
X158519761Y-151805000D01*
X158424523Y-151852619D01*
X157567380Y-151852619D01*
X157567380Y-150662142D02*
X157567380Y-149995476D01*
X158567380Y-150424047D01*
%TO.C,R10*%
X53157380Y-145422857D02*
X52681190Y-145756190D01*
X53157380Y-145994285D02*
X52157380Y-145994285D01*
X52157380Y-145613333D01*
X52205000Y-145518095D01*
X52252619Y-145470476D01*
X52347857Y-145422857D01*
X52490714Y-145422857D01*
X52585952Y-145470476D01*
X52633571Y-145518095D01*
X52681190Y-145613333D01*
X52681190Y-145994285D01*
X53157380Y-144470476D02*
X53157380Y-145041904D01*
X53157380Y-144756190D02*
X52157380Y-144756190D01*
X52300238Y-144851428D01*
X52395476Y-144946666D01*
X52443095Y-145041904D01*
X52157380Y-143851428D02*
X52157380Y-143756190D01*
X52205000Y-143660952D01*
X52252619Y-143613333D01*
X52347857Y-143565714D01*
X52538333Y-143518095D01*
X52776428Y-143518095D01*
X52966904Y-143565714D01*
X53062142Y-143613333D01*
X53109761Y-143660952D01*
X53157380Y-143756190D01*
X53157380Y-143851428D01*
X53109761Y-143946666D01*
X53062142Y-143994285D01*
X52966904Y-144041904D01*
X52776428Y-144089523D01*
X52538333Y-144089523D01*
X52347857Y-144041904D01*
X52252619Y-143994285D01*
X52205000Y-143946666D01*
X52157380Y-143851428D01*
%TO.C,Load Cell Backup 8*%
X160195476Y-171267380D02*
X159719285Y-171267380D01*
X159719285Y-170267380D01*
X160671666Y-171267380D02*
X160576428Y-171219761D01*
X160528809Y-171172142D01*
X160481190Y-171076904D01*
X160481190Y-170791190D01*
X160528809Y-170695952D01*
X160576428Y-170648333D01*
X160671666Y-170600714D01*
X160814523Y-170600714D01*
X160909761Y-170648333D01*
X160957380Y-170695952D01*
X161005000Y-170791190D01*
X161005000Y-171076904D01*
X160957380Y-171172142D01*
X160909761Y-171219761D01*
X160814523Y-171267380D01*
X160671666Y-171267380D01*
X161862142Y-171267380D02*
X161862142Y-170743571D01*
X161814523Y-170648333D01*
X161719285Y-170600714D01*
X161528809Y-170600714D01*
X161433571Y-170648333D01*
X161862142Y-171219761D02*
X161766904Y-171267380D01*
X161528809Y-171267380D01*
X161433571Y-171219761D01*
X161385952Y-171124523D01*
X161385952Y-171029285D01*
X161433571Y-170934047D01*
X161528809Y-170886428D01*
X161766904Y-170886428D01*
X161862142Y-170838809D01*
X162766904Y-171267380D02*
X162766904Y-170267380D01*
X162766904Y-171219761D02*
X162671666Y-171267380D01*
X162481190Y-171267380D01*
X162385952Y-171219761D01*
X162338333Y-171172142D01*
X162290714Y-171076904D01*
X162290714Y-170791190D01*
X162338333Y-170695952D01*
X162385952Y-170648333D01*
X162481190Y-170600714D01*
X162671666Y-170600714D01*
X162766904Y-170648333D01*
X164576428Y-171172142D02*
X164528809Y-171219761D01*
X164385952Y-171267380D01*
X164290714Y-171267380D01*
X164147857Y-171219761D01*
X164052619Y-171124523D01*
X164005000Y-171029285D01*
X163957380Y-170838809D01*
X163957380Y-170695952D01*
X164005000Y-170505476D01*
X164052619Y-170410238D01*
X164147857Y-170315000D01*
X164290714Y-170267380D01*
X164385952Y-170267380D01*
X164528809Y-170315000D01*
X164576428Y-170362619D01*
X165385952Y-171219761D02*
X165290714Y-171267380D01*
X165100238Y-171267380D01*
X165005000Y-171219761D01*
X164957380Y-171124523D01*
X164957380Y-170743571D01*
X165005000Y-170648333D01*
X165100238Y-170600714D01*
X165290714Y-170600714D01*
X165385952Y-170648333D01*
X165433571Y-170743571D01*
X165433571Y-170838809D01*
X164957380Y-170934047D01*
X166005000Y-171267380D02*
X165909761Y-171219761D01*
X165862142Y-171124523D01*
X165862142Y-170267380D01*
X166528809Y-171267380D02*
X166433571Y-171219761D01*
X166385952Y-171124523D01*
X166385952Y-170267380D01*
X168005000Y-170743571D02*
X168147857Y-170791190D01*
X168195476Y-170838809D01*
X168243095Y-170934047D01*
X168243095Y-171076904D01*
X168195476Y-171172142D01*
X168147857Y-171219761D01*
X168052619Y-171267380D01*
X167671666Y-171267380D01*
X167671666Y-170267380D01*
X168005000Y-170267380D01*
X168100238Y-170315000D01*
X168147857Y-170362619D01*
X168195476Y-170457857D01*
X168195476Y-170553095D01*
X168147857Y-170648333D01*
X168100238Y-170695952D01*
X168005000Y-170743571D01*
X167671666Y-170743571D01*
X169100238Y-171267380D02*
X169100238Y-170743571D01*
X169052619Y-170648333D01*
X168957380Y-170600714D01*
X168766904Y-170600714D01*
X168671666Y-170648333D01*
X169100238Y-171219761D02*
X169005000Y-171267380D01*
X168766904Y-171267380D01*
X168671666Y-171219761D01*
X168624047Y-171124523D01*
X168624047Y-171029285D01*
X168671666Y-170934047D01*
X168766904Y-170886428D01*
X169005000Y-170886428D01*
X169100238Y-170838809D01*
X170005000Y-171219761D02*
X169909761Y-171267380D01*
X169719285Y-171267380D01*
X169624047Y-171219761D01*
X169576428Y-171172142D01*
X169528809Y-171076904D01*
X169528809Y-170791190D01*
X169576428Y-170695952D01*
X169624047Y-170648333D01*
X169719285Y-170600714D01*
X169909761Y-170600714D01*
X170005000Y-170648333D01*
X170433571Y-171267380D02*
X170433571Y-170267380D01*
X170528809Y-170886428D02*
X170814523Y-171267380D01*
X170814523Y-170600714D02*
X170433571Y-170981666D01*
X171671666Y-170600714D02*
X171671666Y-171267380D01*
X171243095Y-170600714D02*
X171243095Y-171124523D01*
X171290714Y-171219761D01*
X171385952Y-171267380D01*
X171528809Y-171267380D01*
X171624047Y-171219761D01*
X171671666Y-171172142D01*
X172147857Y-170600714D02*
X172147857Y-171600714D01*
X172147857Y-170648333D02*
X172243095Y-170600714D01*
X172433571Y-170600714D01*
X172528809Y-170648333D01*
X172576428Y-170695952D01*
X172624047Y-170791190D01*
X172624047Y-171076904D01*
X172576428Y-171172142D01*
X172528809Y-171219761D01*
X172433571Y-171267380D01*
X172243095Y-171267380D01*
X172147857Y-171219761D01*
X173957380Y-170695952D02*
X173862142Y-170648333D01*
X173814523Y-170600714D01*
X173766904Y-170505476D01*
X173766904Y-170457857D01*
X173814523Y-170362619D01*
X173862142Y-170315000D01*
X173957380Y-170267380D01*
X174147857Y-170267380D01*
X174243095Y-170315000D01*
X174290714Y-170362619D01*
X174338333Y-170457857D01*
X174338333Y-170505476D01*
X174290714Y-170600714D01*
X174243095Y-170648333D01*
X174147857Y-170695952D01*
X173957380Y-170695952D01*
X173862142Y-170743571D01*
X173814523Y-170791190D01*
X173766904Y-170886428D01*
X173766904Y-171076904D01*
X173814523Y-171172142D01*
X173862142Y-171219761D01*
X173957380Y-171267380D01*
X174147857Y-171267380D01*
X174243095Y-171219761D01*
X174290714Y-171172142D01*
X174338333Y-171076904D01*
X174338333Y-170886428D01*
X174290714Y-170791190D01*
X174243095Y-170743571D01*
X174147857Y-170695952D01*
%TO.C,R14*%
X142057380Y-146605910D02*
X141581190Y-146939243D01*
X142057380Y-147177338D02*
X141057380Y-147177338D01*
X141057380Y-146796386D01*
X141105000Y-146701148D01*
X141152619Y-146653529D01*
X141247857Y-146605910D01*
X141390714Y-146605910D01*
X141485952Y-146653529D01*
X141533571Y-146701148D01*
X141581190Y-146796386D01*
X141581190Y-147177338D01*
X142057380Y-145653529D02*
X142057380Y-146224957D01*
X142057380Y-145939243D02*
X141057380Y-145939243D01*
X141200238Y-146034481D01*
X141295476Y-146129719D01*
X141343095Y-146224957D01*
X141390714Y-144796386D02*
X142057380Y-144796386D01*
X141009761Y-145034481D02*
X141724047Y-145272576D01*
X141724047Y-144653529D01*
%TO.C,HX711 Breakout 7*%
X134890714Y-139517380D02*
X134890714Y-138517380D01*
X134890714Y-138993571D02*
X135462142Y-138993571D01*
X135462142Y-139517380D02*
X135462142Y-138517380D01*
X135843095Y-138517380D02*
X136509761Y-139517380D01*
X136509761Y-138517380D02*
X135843095Y-139517380D01*
X136795476Y-138517380D02*
X137462142Y-138517380D01*
X137033571Y-139517380D01*
X138366904Y-139517380D02*
X137795476Y-139517380D01*
X138081190Y-139517380D02*
X138081190Y-138517380D01*
X137985952Y-138660238D01*
X137890714Y-138755476D01*
X137795476Y-138803095D01*
X139319285Y-139517380D02*
X138747857Y-139517380D01*
X139033571Y-139517380D02*
X139033571Y-138517380D01*
X138938333Y-138660238D01*
X138843095Y-138755476D01*
X138747857Y-138803095D01*
X140843095Y-138993571D02*
X140985952Y-139041190D01*
X141033571Y-139088809D01*
X141081190Y-139184047D01*
X141081190Y-139326904D01*
X141033571Y-139422142D01*
X140985952Y-139469761D01*
X140890714Y-139517380D01*
X140509761Y-139517380D01*
X140509761Y-138517380D01*
X140843095Y-138517380D01*
X140938333Y-138565000D01*
X140985952Y-138612619D01*
X141033571Y-138707857D01*
X141033571Y-138803095D01*
X140985952Y-138898333D01*
X140938333Y-138945952D01*
X140843095Y-138993571D01*
X140509761Y-138993571D01*
X141509761Y-139517380D02*
X141509761Y-138850714D01*
X141509761Y-139041190D02*
X141557380Y-138945952D01*
X141605000Y-138898333D01*
X141700238Y-138850714D01*
X141795476Y-138850714D01*
X142509761Y-139469761D02*
X142414523Y-139517380D01*
X142224047Y-139517380D01*
X142128809Y-139469761D01*
X142081190Y-139374523D01*
X142081190Y-138993571D01*
X142128809Y-138898333D01*
X142224047Y-138850714D01*
X142414523Y-138850714D01*
X142509761Y-138898333D01*
X142557380Y-138993571D01*
X142557380Y-139088809D01*
X142081190Y-139184047D01*
X143414523Y-139517380D02*
X143414523Y-138993571D01*
X143366904Y-138898333D01*
X143271666Y-138850714D01*
X143081190Y-138850714D01*
X142985952Y-138898333D01*
X143414523Y-139469761D02*
X143319285Y-139517380D01*
X143081190Y-139517380D01*
X142985952Y-139469761D01*
X142938333Y-139374523D01*
X142938333Y-139279285D01*
X142985952Y-139184047D01*
X143081190Y-139136428D01*
X143319285Y-139136428D01*
X143414523Y-139088809D01*
X143890714Y-139517380D02*
X143890714Y-138517380D01*
X143985952Y-139136428D02*
X144271666Y-139517380D01*
X144271666Y-138850714D02*
X143890714Y-139231666D01*
X144843095Y-139517380D02*
X144747857Y-139469761D01*
X144700238Y-139422142D01*
X144652619Y-139326904D01*
X144652619Y-139041190D01*
X144700238Y-138945952D01*
X144747857Y-138898333D01*
X144843095Y-138850714D01*
X144985952Y-138850714D01*
X145081190Y-138898333D01*
X145128809Y-138945952D01*
X145176428Y-139041190D01*
X145176428Y-139326904D01*
X145128809Y-139422142D01*
X145081190Y-139469761D01*
X144985952Y-139517380D01*
X144843095Y-139517380D01*
X146033571Y-138850714D02*
X146033571Y-139517380D01*
X145605000Y-138850714D02*
X145605000Y-139374523D01*
X145652619Y-139469761D01*
X145747857Y-139517380D01*
X145890714Y-139517380D01*
X145985952Y-139469761D01*
X146033571Y-139422142D01*
X146366904Y-138850714D02*
X146747857Y-138850714D01*
X146509761Y-138517380D02*
X146509761Y-139374523D01*
X146557380Y-139469761D01*
X146652619Y-139517380D01*
X146747857Y-139517380D01*
X147747857Y-138517380D02*
X148414523Y-138517380D01*
X147985952Y-139517380D01*
%TO.C,Igniter 1 Backup*%
X146304761Y-16962380D02*
X146304761Y-15962380D01*
X147209523Y-16295714D02*
X147209523Y-17105238D01*
X147161904Y-17200476D01*
X147114285Y-17248095D01*
X147019047Y-17295714D01*
X146876190Y-17295714D01*
X146780952Y-17248095D01*
X147209523Y-16914761D02*
X147114285Y-16962380D01*
X146923809Y-16962380D01*
X146828571Y-16914761D01*
X146780952Y-16867142D01*
X146733333Y-16771904D01*
X146733333Y-16486190D01*
X146780952Y-16390952D01*
X146828571Y-16343333D01*
X146923809Y-16295714D01*
X147114285Y-16295714D01*
X147209523Y-16343333D01*
X147685714Y-16295714D02*
X147685714Y-16962380D01*
X147685714Y-16390952D02*
X147733333Y-16343333D01*
X147828571Y-16295714D01*
X147971428Y-16295714D01*
X148066666Y-16343333D01*
X148114285Y-16438571D01*
X148114285Y-16962380D01*
X148590476Y-16962380D02*
X148590476Y-16295714D01*
X148590476Y-15962380D02*
X148542857Y-16010000D01*
X148590476Y-16057619D01*
X148638095Y-16010000D01*
X148590476Y-15962380D01*
X148590476Y-16057619D01*
X148923809Y-16295714D02*
X149304761Y-16295714D01*
X149066666Y-15962380D02*
X149066666Y-16819523D01*
X149114285Y-16914761D01*
X149209523Y-16962380D01*
X149304761Y-16962380D01*
X150019047Y-16914761D02*
X149923809Y-16962380D01*
X149733333Y-16962380D01*
X149638095Y-16914761D01*
X149590476Y-16819523D01*
X149590476Y-16438571D01*
X149638095Y-16343333D01*
X149733333Y-16295714D01*
X149923809Y-16295714D01*
X150019047Y-16343333D01*
X150066666Y-16438571D01*
X150066666Y-16533809D01*
X149590476Y-16629047D01*
X150495238Y-16962380D02*
X150495238Y-16295714D01*
X150495238Y-16486190D02*
X150542857Y-16390952D01*
X150590476Y-16343333D01*
X150685714Y-16295714D01*
X150780952Y-16295714D01*
X152400000Y-16962380D02*
X151828571Y-16962380D01*
X152114285Y-16962380D02*
X152114285Y-15962380D01*
X152019047Y-16105238D01*
X151923809Y-16200476D01*
X151828571Y-16248095D01*
X153923809Y-16438571D02*
X154066666Y-16486190D01*
X154114285Y-16533809D01*
X154161904Y-16629047D01*
X154161904Y-16771904D01*
X154114285Y-16867142D01*
X154066666Y-16914761D01*
X153971428Y-16962380D01*
X153590476Y-16962380D01*
X153590476Y-15962380D01*
X153923809Y-15962380D01*
X154019047Y-16010000D01*
X154066666Y-16057619D01*
X154114285Y-16152857D01*
X154114285Y-16248095D01*
X154066666Y-16343333D01*
X154019047Y-16390952D01*
X153923809Y-16438571D01*
X153590476Y-16438571D01*
X155019047Y-16962380D02*
X155019047Y-16438571D01*
X154971428Y-16343333D01*
X154876190Y-16295714D01*
X154685714Y-16295714D01*
X154590476Y-16343333D01*
X155019047Y-16914761D02*
X154923809Y-16962380D01*
X154685714Y-16962380D01*
X154590476Y-16914761D01*
X154542857Y-16819523D01*
X154542857Y-16724285D01*
X154590476Y-16629047D01*
X154685714Y-16581428D01*
X154923809Y-16581428D01*
X155019047Y-16533809D01*
X155923809Y-16914761D02*
X155828571Y-16962380D01*
X155638095Y-16962380D01*
X155542857Y-16914761D01*
X155495238Y-16867142D01*
X155447619Y-16771904D01*
X155447619Y-16486190D01*
X155495238Y-16390952D01*
X155542857Y-16343333D01*
X155638095Y-16295714D01*
X155828571Y-16295714D01*
X155923809Y-16343333D01*
X156352380Y-16962380D02*
X156352380Y-15962380D01*
X156447619Y-16581428D02*
X156733333Y-16962380D01*
X156733333Y-16295714D02*
X156352380Y-16676666D01*
X157590476Y-16295714D02*
X157590476Y-16962380D01*
X157161904Y-16295714D02*
X157161904Y-16819523D01*
X157209523Y-16914761D01*
X157304761Y-16962380D01*
X157447619Y-16962380D01*
X157542857Y-16914761D01*
X157590476Y-16867142D01*
X158066666Y-16295714D02*
X158066666Y-17295714D01*
X158066666Y-16343333D02*
X158161904Y-16295714D01*
X158352380Y-16295714D01*
X158447619Y-16343333D01*
X158495238Y-16390952D01*
X158542857Y-16486190D01*
X158542857Y-16771904D01*
X158495238Y-16867142D01*
X158447619Y-16914761D01*
X158352380Y-16962380D01*
X158161904Y-16962380D01*
X158066666Y-16914761D01*
%TO.C,Igniter 2 Backup*%
X160909761Y-16962380D02*
X160909761Y-15962380D01*
X161814523Y-16295714D02*
X161814523Y-17105238D01*
X161766904Y-17200476D01*
X161719285Y-17248095D01*
X161624047Y-17295714D01*
X161481190Y-17295714D01*
X161385952Y-17248095D01*
X161814523Y-16914761D02*
X161719285Y-16962380D01*
X161528809Y-16962380D01*
X161433571Y-16914761D01*
X161385952Y-16867142D01*
X161338333Y-16771904D01*
X161338333Y-16486190D01*
X161385952Y-16390952D01*
X161433571Y-16343333D01*
X161528809Y-16295714D01*
X161719285Y-16295714D01*
X161814523Y-16343333D01*
X162290714Y-16295714D02*
X162290714Y-16962380D01*
X162290714Y-16390952D02*
X162338333Y-16343333D01*
X162433571Y-16295714D01*
X162576428Y-16295714D01*
X162671666Y-16343333D01*
X162719285Y-16438571D01*
X162719285Y-16962380D01*
X163195476Y-16962380D02*
X163195476Y-16295714D01*
X163195476Y-15962380D02*
X163147857Y-16010000D01*
X163195476Y-16057619D01*
X163243095Y-16010000D01*
X163195476Y-15962380D01*
X163195476Y-16057619D01*
X163528809Y-16295714D02*
X163909761Y-16295714D01*
X163671666Y-15962380D02*
X163671666Y-16819523D01*
X163719285Y-16914761D01*
X163814523Y-16962380D01*
X163909761Y-16962380D01*
X164624047Y-16914761D02*
X164528809Y-16962380D01*
X164338333Y-16962380D01*
X164243095Y-16914761D01*
X164195476Y-16819523D01*
X164195476Y-16438571D01*
X164243095Y-16343333D01*
X164338333Y-16295714D01*
X164528809Y-16295714D01*
X164624047Y-16343333D01*
X164671666Y-16438571D01*
X164671666Y-16533809D01*
X164195476Y-16629047D01*
X165100238Y-16962380D02*
X165100238Y-16295714D01*
X165100238Y-16486190D02*
X165147857Y-16390952D01*
X165195476Y-16343333D01*
X165290714Y-16295714D01*
X165385952Y-16295714D01*
X166433571Y-16057619D02*
X166481190Y-16010000D01*
X166576428Y-15962380D01*
X166814523Y-15962380D01*
X166909761Y-16010000D01*
X166957380Y-16057619D01*
X167005000Y-16152857D01*
X167005000Y-16248095D01*
X166957380Y-16390952D01*
X166385952Y-16962380D01*
X167005000Y-16962380D01*
X168528809Y-16438571D02*
X168671666Y-16486190D01*
X168719285Y-16533809D01*
X168766904Y-16629047D01*
X168766904Y-16771904D01*
X168719285Y-16867142D01*
X168671666Y-16914761D01*
X168576428Y-16962380D01*
X168195476Y-16962380D01*
X168195476Y-15962380D01*
X168528809Y-15962380D01*
X168624047Y-16010000D01*
X168671666Y-16057619D01*
X168719285Y-16152857D01*
X168719285Y-16248095D01*
X168671666Y-16343333D01*
X168624047Y-16390952D01*
X168528809Y-16438571D01*
X168195476Y-16438571D01*
X169624047Y-16962380D02*
X169624047Y-16438571D01*
X169576428Y-16343333D01*
X169481190Y-16295714D01*
X169290714Y-16295714D01*
X169195476Y-16343333D01*
X169624047Y-16914761D02*
X169528809Y-16962380D01*
X169290714Y-16962380D01*
X169195476Y-16914761D01*
X169147857Y-16819523D01*
X169147857Y-16724285D01*
X169195476Y-16629047D01*
X169290714Y-16581428D01*
X169528809Y-16581428D01*
X169624047Y-16533809D01*
X170528809Y-16914761D02*
X170433571Y-16962380D01*
X170243095Y-16962380D01*
X170147857Y-16914761D01*
X170100238Y-16867142D01*
X170052619Y-16771904D01*
X170052619Y-16486190D01*
X170100238Y-16390952D01*
X170147857Y-16343333D01*
X170243095Y-16295714D01*
X170433571Y-16295714D01*
X170528809Y-16343333D01*
X170957380Y-16962380D02*
X170957380Y-15962380D01*
X171052619Y-16581428D02*
X171338333Y-16962380D01*
X171338333Y-16295714D02*
X170957380Y-16676666D01*
X172195476Y-16295714D02*
X172195476Y-16962380D01*
X171766904Y-16295714D02*
X171766904Y-16819523D01*
X171814523Y-16914761D01*
X171909761Y-16962380D01*
X172052619Y-16962380D01*
X172147857Y-16914761D01*
X172195476Y-16867142D01*
X172671666Y-16295714D02*
X172671666Y-17295714D01*
X172671666Y-16343333D02*
X172766904Y-16295714D01*
X172957380Y-16295714D01*
X173052619Y-16343333D01*
X173100238Y-16390952D01*
X173147857Y-16486190D01*
X173147857Y-16771904D01*
X173100238Y-16867142D01*
X173052619Y-16914761D01*
X172957380Y-16962380D01*
X172766904Y-16962380D01*
X172671666Y-16914761D01*
%TO.C,Load Cell 3*%
X70937380Y-157953095D02*
X70937380Y-158429285D01*
X69937380Y-158429285D01*
X70937380Y-157476904D02*
X70889761Y-157572142D01*
X70842142Y-157619761D01*
X70746904Y-157667380D01*
X70461190Y-157667380D01*
X70365952Y-157619761D01*
X70318333Y-157572142D01*
X70270714Y-157476904D01*
X70270714Y-157334047D01*
X70318333Y-157238809D01*
X70365952Y-157191190D01*
X70461190Y-157143571D01*
X70746904Y-157143571D01*
X70842142Y-157191190D01*
X70889761Y-157238809D01*
X70937380Y-157334047D01*
X70937380Y-157476904D01*
X70937380Y-156286428D02*
X70413571Y-156286428D01*
X70318333Y-156334047D01*
X70270714Y-156429285D01*
X70270714Y-156619761D01*
X70318333Y-156715000D01*
X70889761Y-156286428D02*
X70937380Y-156381666D01*
X70937380Y-156619761D01*
X70889761Y-156715000D01*
X70794523Y-156762619D01*
X70699285Y-156762619D01*
X70604047Y-156715000D01*
X70556428Y-156619761D01*
X70556428Y-156381666D01*
X70508809Y-156286428D01*
X70937380Y-155381666D02*
X69937380Y-155381666D01*
X70889761Y-155381666D02*
X70937380Y-155476904D01*
X70937380Y-155667380D01*
X70889761Y-155762619D01*
X70842142Y-155810238D01*
X70746904Y-155857857D01*
X70461190Y-155857857D01*
X70365952Y-155810238D01*
X70318333Y-155762619D01*
X70270714Y-155667380D01*
X70270714Y-155476904D01*
X70318333Y-155381666D01*
X70842142Y-153572142D02*
X70889761Y-153619761D01*
X70937380Y-153762619D01*
X70937380Y-153857857D01*
X70889761Y-154000714D01*
X70794523Y-154095952D01*
X70699285Y-154143571D01*
X70508809Y-154191190D01*
X70365952Y-154191190D01*
X70175476Y-154143571D01*
X70080238Y-154095952D01*
X69985000Y-154000714D01*
X69937380Y-153857857D01*
X69937380Y-153762619D01*
X69985000Y-153619761D01*
X70032619Y-153572142D01*
X70889761Y-152762619D02*
X70937380Y-152857857D01*
X70937380Y-153048333D01*
X70889761Y-153143571D01*
X70794523Y-153191190D01*
X70413571Y-153191190D01*
X70318333Y-153143571D01*
X70270714Y-153048333D01*
X70270714Y-152857857D01*
X70318333Y-152762619D01*
X70413571Y-152715000D01*
X70508809Y-152715000D01*
X70604047Y-153191190D01*
X70937380Y-152143571D02*
X70889761Y-152238809D01*
X70794523Y-152286428D01*
X69937380Y-152286428D01*
X70937380Y-151619761D02*
X70889761Y-151715000D01*
X70794523Y-151762619D01*
X69937380Y-151762619D01*
X69937380Y-150572142D02*
X69937380Y-149953095D01*
X70318333Y-150286428D01*
X70318333Y-150143571D01*
X70365952Y-150048333D01*
X70413571Y-150000714D01*
X70508809Y-149953095D01*
X70746904Y-149953095D01*
X70842142Y-150000714D01*
X70889761Y-150048333D01*
X70937380Y-150143571D01*
X70937380Y-150429285D01*
X70889761Y-150524523D01*
X70842142Y-150572142D01*
%TO.C,Load Cell Backup 3*%
X72565476Y-171267380D02*
X72089285Y-171267380D01*
X72089285Y-170267380D01*
X73041666Y-171267380D02*
X72946428Y-171219761D01*
X72898809Y-171172142D01*
X72851190Y-171076904D01*
X72851190Y-170791190D01*
X72898809Y-170695952D01*
X72946428Y-170648333D01*
X73041666Y-170600714D01*
X73184523Y-170600714D01*
X73279761Y-170648333D01*
X73327380Y-170695952D01*
X73375000Y-170791190D01*
X73375000Y-171076904D01*
X73327380Y-171172142D01*
X73279761Y-171219761D01*
X73184523Y-171267380D01*
X73041666Y-171267380D01*
X74232142Y-171267380D02*
X74232142Y-170743571D01*
X74184523Y-170648333D01*
X74089285Y-170600714D01*
X73898809Y-170600714D01*
X73803571Y-170648333D01*
X74232142Y-171219761D02*
X74136904Y-171267380D01*
X73898809Y-171267380D01*
X73803571Y-171219761D01*
X73755952Y-171124523D01*
X73755952Y-171029285D01*
X73803571Y-170934047D01*
X73898809Y-170886428D01*
X74136904Y-170886428D01*
X74232142Y-170838809D01*
X75136904Y-171267380D02*
X75136904Y-170267380D01*
X75136904Y-171219761D02*
X75041666Y-171267380D01*
X74851190Y-171267380D01*
X74755952Y-171219761D01*
X74708333Y-171172142D01*
X74660714Y-171076904D01*
X74660714Y-170791190D01*
X74708333Y-170695952D01*
X74755952Y-170648333D01*
X74851190Y-170600714D01*
X75041666Y-170600714D01*
X75136904Y-170648333D01*
X76946428Y-171172142D02*
X76898809Y-171219761D01*
X76755952Y-171267380D01*
X76660714Y-171267380D01*
X76517857Y-171219761D01*
X76422619Y-171124523D01*
X76375000Y-171029285D01*
X76327380Y-170838809D01*
X76327380Y-170695952D01*
X76375000Y-170505476D01*
X76422619Y-170410238D01*
X76517857Y-170315000D01*
X76660714Y-170267380D01*
X76755952Y-170267380D01*
X76898809Y-170315000D01*
X76946428Y-170362619D01*
X77755952Y-171219761D02*
X77660714Y-171267380D01*
X77470238Y-171267380D01*
X77375000Y-171219761D01*
X77327380Y-171124523D01*
X77327380Y-170743571D01*
X77375000Y-170648333D01*
X77470238Y-170600714D01*
X77660714Y-170600714D01*
X77755952Y-170648333D01*
X77803571Y-170743571D01*
X77803571Y-170838809D01*
X77327380Y-170934047D01*
X78375000Y-171267380D02*
X78279761Y-171219761D01*
X78232142Y-171124523D01*
X78232142Y-170267380D01*
X78898809Y-171267380D02*
X78803571Y-171219761D01*
X78755952Y-171124523D01*
X78755952Y-170267380D01*
X80375000Y-170743571D02*
X80517857Y-170791190D01*
X80565476Y-170838809D01*
X80613095Y-170934047D01*
X80613095Y-171076904D01*
X80565476Y-171172142D01*
X80517857Y-171219761D01*
X80422619Y-171267380D01*
X80041666Y-171267380D01*
X80041666Y-170267380D01*
X80375000Y-170267380D01*
X80470238Y-170315000D01*
X80517857Y-170362619D01*
X80565476Y-170457857D01*
X80565476Y-170553095D01*
X80517857Y-170648333D01*
X80470238Y-170695952D01*
X80375000Y-170743571D01*
X80041666Y-170743571D01*
X81470238Y-171267380D02*
X81470238Y-170743571D01*
X81422619Y-170648333D01*
X81327380Y-170600714D01*
X81136904Y-170600714D01*
X81041666Y-170648333D01*
X81470238Y-171219761D02*
X81375000Y-171267380D01*
X81136904Y-171267380D01*
X81041666Y-171219761D01*
X80994047Y-171124523D01*
X80994047Y-171029285D01*
X81041666Y-170934047D01*
X81136904Y-170886428D01*
X81375000Y-170886428D01*
X81470238Y-170838809D01*
X82375000Y-171219761D02*
X82279761Y-171267380D01*
X82089285Y-171267380D01*
X81994047Y-171219761D01*
X81946428Y-171172142D01*
X81898809Y-171076904D01*
X81898809Y-170791190D01*
X81946428Y-170695952D01*
X81994047Y-170648333D01*
X82089285Y-170600714D01*
X82279761Y-170600714D01*
X82375000Y-170648333D01*
X82803571Y-171267380D02*
X82803571Y-170267380D01*
X82898809Y-170886428D02*
X83184523Y-171267380D01*
X83184523Y-170600714D02*
X82803571Y-170981666D01*
X84041666Y-170600714D02*
X84041666Y-171267380D01*
X83613095Y-170600714D02*
X83613095Y-171124523D01*
X83660714Y-171219761D01*
X83755952Y-171267380D01*
X83898809Y-171267380D01*
X83994047Y-171219761D01*
X84041666Y-171172142D01*
X84517857Y-170600714D02*
X84517857Y-171600714D01*
X84517857Y-170648333D02*
X84613095Y-170600714D01*
X84803571Y-170600714D01*
X84898809Y-170648333D01*
X84946428Y-170695952D01*
X84994047Y-170791190D01*
X84994047Y-171076904D01*
X84946428Y-171172142D01*
X84898809Y-171219761D01*
X84803571Y-171267380D01*
X84613095Y-171267380D01*
X84517857Y-171219761D01*
X86089285Y-170267380D02*
X86708333Y-170267380D01*
X86375000Y-170648333D01*
X86517857Y-170648333D01*
X86613095Y-170695952D01*
X86660714Y-170743571D01*
X86708333Y-170838809D01*
X86708333Y-171076904D01*
X86660714Y-171172142D01*
X86613095Y-171219761D01*
X86517857Y-171267380D01*
X86232142Y-171267380D01*
X86136904Y-171219761D01*
X86089285Y-171172142D01*
%TO.C,Load Cell Backup 4*%
X95425476Y-171267380D02*
X94949285Y-171267380D01*
X94949285Y-170267380D01*
X95901666Y-171267380D02*
X95806428Y-171219761D01*
X95758809Y-171172142D01*
X95711190Y-171076904D01*
X95711190Y-170791190D01*
X95758809Y-170695952D01*
X95806428Y-170648333D01*
X95901666Y-170600714D01*
X96044523Y-170600714D01*
X96139761Y-170648333D01*
X96187380Y-170695952D01*
X96235000Y-170791190D01*
X96235000Y-171076904D01*
X96187380Y-171172142D01*
X96139761Y-171219761D01*
X96044523Y-171267380D01*
X95901666Y-171267380D01*
X97092142Y-171267380D02*
X97092142Y-170743571D01*
X97044523Y-170648333D01*
X96949285Y-170600714D01*
X96758809Y-170600714D01*
X96663571Y-170648333D01*
X97092142Y-171219761D02*
X96996904Y-171267380D01*
X96758809Y-171267380D01*
X96663571Y-171219761D01*
X96615952Y-171124523D01*
X96615952Y-171029285D01*
X96663571Y-170934047D01*
X96758809Y-170886428D01*
X96996904Y-170886428D01*
X97092142Y-170838809D01*
X97996904Y-171267380D02*
X97996904Y-170267380D01*
X97996904Y-171219761D02*
X97901666Y-171267380D01*
X97711190Y-171267380D01*
X97615952Y-171219761D01*
X97568333Y-171172142D01*
X97520714Y-171076904D01*
X97520714Y-170791190D01*
X97568333Y-170695952D01*
X97615952Y-170648333D01*
X97711190Y-170600714D01*
X97901666Y-170600714D01*
X97996904Y-170648333D01*
X99806428Y-171172142D02*
X99758809Y-171219761D01*
X99615952Y-171267380D01*
X99520714Y-171267380D01*
X99377857Y-171219761D01*
X99282619Y-171124523D01*
X99235000Y-171029285D01*
X99187380Y-170838809D01*
X99187380Y-170695952D01*
X99235000Y-170505476D01*
X99282619Y-170410238D01*
X99377857Y-170315000D01*
X99520714Y-170267380D01*
X99615952Y-170267380D01*
X99758809Y-170315000D01*
X99806428Y-170362619D01*
X100615952Y-171219761D02*
X100520714Y-171267380D01*
X100330238Y-171267380D01*
X100235000Y-171219761D01*
X100187380Y-171124523D01*
X100187380Y-170743571D01*
X100235000Y-170648333D01*
X100330238Y-170600714D01*
X100520714Y-170600714D01*
X100615952Y-170648333D01*
X100663571Y-170743571D01*
X100663571Y-170838809D01*
X100187380Y-170934047D01*
X101235000Y-171267380D02*
X101139761Y-171219761D01*
X101092142Y-171124523D01*
X101092142Y-170267380D01*
X101758809Y-171267380D02*
X101663571Y-171219761D01*
X101615952Y-171124523D01*
X101615952Y-170267380D01*
X103235000Y-170743571D02*
X103377857Y-170791190D01*
X103425476Y-170838809D01*
X103473095Y-170934047D01*
X103473095Y-171076904D01*
X103425476Y-171172142D01*
X103377857Y-171219761D01*
X103282619Y-171267380D01*
X102901666Y-171267380D01*
X102901666Y-170267380D01*
X103235000Y-170267380D01*
X103330238Y-170315000D01*
X103377857Y-170362619D01*
X103425476Y-170457857D01*
X103425476Y-170553095D01*
X103377857Y-170648333D01*
X103330238Y-170695952D01*
X103235000Y-170743571D01*
X102901666Y-170743571D01*
X104330238Y-171267380D02*
X104330238Y-170743571D01*
X104282619Y-170648333D01*
X104187380Y-170600714D01*
X103996904Y-170600714D01*
X103901666Y-170648333D01*
X104330238Y-171219761D02*
X104235000Y-171267380D01*
X103996904Y-171267380D01*
X103901666Y-171219761D01*
X103854047Y-171124523D01*
X103854047Y-171029285D01*
X103901666Y-170934047D01*
X103996904Y-170886428D01*
X104235000Y-170886428D01*
X104330238Y-170838809D01*
X105235000Y-171219761D02*
X105139761Y-171267380D01*
X104949285Y-171267380D01*
X104854047Y-171219761D01*
X104806428Y-171172142D01*
X104758809Y-171076904D01*
X104758809Y-170791190D01*
X104806428Y-170695952D01*
X104854047Y-170648333D01*
X104949285Y-170600714D01*
X105139761Y-170600714D01*
X105235000Y-170648333D01*
X105663571Y-171267380D02*
X105663571Y-170267380D01*
X105758809Y-170886428D02*
X106044523Y-171267380D01*
X106044523Y-170600714D02*
X105663571Y-170981666D01*
X106901666Y-170600714D02*
X106901666Y-171267380D01*
X106473095Y-170600714D02*
X106473095Y-171124523D01*
X106520714Y-171219761D01*
X106615952Y-171267380D01*
X106758809Y-171267380D01*
X106854047Y-171219761D01*
X106901666Y-171172142D01*
X107377857Y-170600714D02*
X107377857Y-171600714D01*
X107377857Y-170648333D02*
X107473095Y-170600714D01*
X107663571Y-170600714D01*
X107758809Y-170648333D01*
X107806428Y-170695952D01*
X107854047Y-170791190D01*
X107854047Y-171076904D01*
X107806428Y-171172142D01*
X107758809Y-171219761D01*
X107663571Y-171267380D01*
X107473095Y-171267380D01*
X107377857Y-171219761D01*
X109473095Y-170600714D02*
X109473095Y-171267380D01*
X109235000Y-170219761D02*
X108996904Y-170934047D01*
X109615952Y-170934047D01*
%TO.C,Igniter 2 *%
X171862380Y-34519761D02*
X170862380Y-34519761D01*
X171195714Y-33615000D02*
X172005238Y-33615000D01*
X172100476Y-33662619D01*
X172148095Y-33710238D01*
X172195714Y-33805476D01*
X172195714Y-33948333D01*
X172148095Y-34043571D01*
X171814761Y-33615000D02*
X171862380Y-33710238D01*
X171862380Y-33900714D01*
X171814761Y-33995952D01*
X171767142Y-34043571D01*
X171671904Y-34091190D01*
X171386190Y-34091190D01*
X171290952Y-34043571D01*
X171243333Y-33995952D01*
X171195714Y-33900714D01*
X171195714Y-33710238D01*
X171243333Y-33615000D01*
X171195714Y-33138809D02*
X171862380Y-33138809D01*
X171290952Y-33138809D02*
X171243333Y-33091190D01*
X171195714Y-32995952D01*
X171195714Y-32853095D01*
X171243333Y-32757857D01*
X171338571Y-32710238D01*
X171862380Y-32710238D01*
X171862380Y-32234047D02*
X171195714Y-32234047D01*
X170862380Y-32234047D02*
X170910000Y-32281666D01*
X170957619Y-32234047D01*
X170910000Y-32186428D01*
X170862380Y-32234047D01*
X170957619Y-32234047D01*
X171195714Y-31900714D02*
X171195714Y-31519761D01*
X170862380Y-31757857D02*
X171719523Y-31757857D01*
X171814761Y-31710238D01*
X171862380Y-31615000D01*
X171862380Y-31519761D01*
X171814761Y-30805476D02*
X171862380Y-30900714D01*
X171862380Y-31091190D01*
X171814761Y-31186428D01*
X171719523Y-31234047D01*
X171338571Y-31234047D01*
X171243333Y-31186428D01*
X171195714Y-31091190D01*
X171195714Y-30900714D01*
X171243333Y-30805476D01*
X171338571Y-30757857D01*
X171433809Y-30757857D01*
X171529047Y-31234047D01*
X171862380Y-30329285D02*
X171195714Y-30329285D01*
X171386190Y-30329285D02*
X171290952Y-30281666D01*
X171243333Y-30234047D01*
X171195714Y-30138809D01*
X171195714Y-30043571D01*
X170957619Y-28995952D02*
X170910000Y-28948333D01*
X170862380Y-28853095D01*
X170862380Y-28615000D01*
X170910000Y-28519761D01*
X170957619Y-28472142D01*
X171052857Y-28424523D01*
X171148095Y-28424523D01*
X171290952Y-28472142D01*
X171862380Y-29043571D01*
X171862380Y-28424523D01*
%TO.C,R16*%
X76017380Y-145772283D02*
X75541190Y-146105616D01*
X76017380Y-146343711D02*
X75017380Y-146343711D01*
X75017380Y-145962759D01*
X75065000Y-145867521D01*
X75112619Y-145819902D01*
X75207857Y-145772283D01*
X75350714Y-145772283D01*
X75445952Y-145819902D01*
X75493571Y-145867521D01*
X75541190Y-145962759D01*
X75541190Y-146343711D01*
X76017380Y-144819902D02*
X76017380Y-145391330D01*
X76017380Y-145105616D02*
X75017380Y-145105616D01*
X75160238Y-145200854D01*
X75255476Y-145296092D01*
X75303095Y-145391330D01*
X75017380Y-143962759D02*
X75017380Y-144153235D01*
X75065000Y-144248473D01*
X75112619Y-144296092D01*
X75255476Y-144391330D01*
X75445952Y-144438949D01*
X75826904Y-144438949D01*
X75922142Y-144391330D01*
X75969761Y-144343711D01*
X76017380Y-144248473D01*
X76017380Y-144057997D01*
X75969761Y-143962759D01*
X75922142Y-143915140D01*
X75826904Y-143867521D01*
X75588809Y-143867521D01*
X75493571Y-143915140D01*
X75445952Y-143962759D01*
X75398333Y-144057997D01*
X75398333Y-144248473D01*
X75445952Y-144343711D01*
X75493571Y-144391330D01*
X75588809Y-144438949D01*
%TO.C,R6*%
X160472380Y-146090118D02*
X159996190Y-146423452D01*
X160472380Y-146661547D02*
X159472380Y-146661547D01*
X159472380Y-146280594D01*
X159520000Y-146185356D01*
X159567619Y-146137737D01*
X159662857Y-146090118D01*
X159805714Y-146090118D01*
X159900952Y-146137737D01*
X159948571Y-146185356D01*
X159996190Y-146280594D01*
X159996190Y-146661547D01*
X159472380Y-145232975D02*
X159472380Y-145423452D01*
X159520000Y-145518690D01*
X159567619Y-145566309D01*
X159710476Y-145661547D01*
X159900952Y-145709166D01*
X160281904Y-145709166D01*
X160377142Y-145661547D01*
X160424761Y-145613928D01*
X160472380Y-145518690D01*
X160472380Y-145328213D01*
X160424761Y-145232975D01*
X160377142Y-145185356D01*
X160281904Y-145137737D01*
X160043809Y-145137737D01*
X159948571Y-145185356D01*
X159900952Y-145232975D01*
X159853333Y-145328213D01*
X159853333Y-145518690D01*
X159900952Y-145613928D01*
X159948571Y-145661547D01*
X160043809Y-145709166D01*
%TO.C,Load Cell Backup 9*%
X182420476Y-171267380D02*
X181944285Y-171267380D01*
X181944285Y-170267380D01*
X182896666Y-171267380D02*
X182801428Y-171219761D01*
X182753809Y-171172142D01*
X182706190Y-171076904D01*
X182706190Y-170791190D01*
X182753809Y-170695952D01*
X182801428Y-170648333D01*
X182896666Y-170600714D01*
X183039523Y-170600714D01*
X183134761Y-170648333D01*
X183182380Y-170695952D01*
X183230000Y-170791190D01*
X183230000Y-171076904D01*
X183182380Y-171172142D01*
X183134761Y-171219761D01*
X183039523Y-171267380D01*
X182896666Y-171267380D01*
X184087142Y-171267380D02*
X184087142Y-170743571D01*
X184039523Y-170648333D01*
X183944285Y-170600714D01*
X183753809Y-170600714D01*
X183658571Y-170648333D01*
X184087142Y-171219761D02*
X183991904Y-171267380D01*
X183753809Y-171267380D01*
X183658571Y-171219761D01*
X183610952Y-171124523D01*
X183610952Y-171029285D01*
X183658571Y-170934047D01*
X183753809Y-170886428D01*
X183991904Y-170886428D01*
X184087142Y-170838809D01*
X184991904Y-171267380D02*
X184991904Y-170267380D01*
X184991904Y-171219761D02*
X184896666Y-171267380D01*
X184706190Y-171267380D01*
X184610952Y-171219761D01*
X184563333Y-171172142D01*
X184515714Y-171076904D01*
X184515714Y-170791190D01*
X184563333Y-170695952D01*
X184610952Y-170648333D01*
X184706190Y-170600714D01*
X184896666Y-170600714D01*
X184991904Y-170648333D01*
X186801428Y-171172142D02*
X186753809Y-171219761D01*
X186610952Y-171267380D01*
X186515714Y-171267380D01*
X186372857Y-171219761D01*
X186277619Y-171124523D01*
X186230000Y-171029285D01*
X186182380Y-170838809D01*
X186182380Y-170695952D01*
X186230000Y-170505476D01*
X186277619Y-170410238D01*
X186372857Y-170315000D01*
X186515714Y-170267380D01*
X186610952Y-170267380D01*
X186753809Y-170315000D01*
X186801428Y-170362619D01*
X187610952Y-171219761D02*
X187515714Y-171267380D01*
X187325238Y-171267380D01*
X187230000Y-171219761D01*
X187182380Y-171124523D01*
X187182380Y-170743571D01*
X187230000Y-170648333D01*
X187325238Y-170600714D01*
X187515714Y-170600714D01*
X187610952Y-170648333D01*
X187658571Y-170743571D01*
X187658571Y-170838809D01*
X187182380Y-170934047D01*
X188230000Y-171267380D02*
X188134761Y-171219761D01*
X188087142Y-171124523D01*
X188087142Y-170267380D01*
X188753809Y-171267380D02*
X188658571Y-171219761D01*
X188610952Y-171124523D01*
X188610952Y-170267380D01*
X190230000Y-170743571D02*
X190372857Y-170791190D01*
X190420476Y-170838809D01*
X190468095Y-170934047D01*
X190468095Y-171076904D01*
X190420476Y-171172142D01*
X190372857Y-171219761D01*
X190277619Y-171267380D01*
X189896666Y-171267380D01*
X189896666Y-170267380D01*
X190230000Y-170267380D01*
X190325238Y-170315000D01*
X190372857Y-170362619D01*
X190420476Y-170457857D01*
X190420476Y-170553095D01*
X190372857Y-170648333D01*
X190325238Y-170695952D01*
X190230000Y-170743571D01*
X189896666Y-170743571D01*
X191325238Y-171267380D02*
X191325238Y-170743571D01*
X191277619Y-170648333D01*
X191182380Y-170600714D01*
X190991904Y-170600714D01*
X190896666Y-170648333D01*
X191325238Y-171219761D02*
X191230000Y-171267380D01*
X190991904Y-171267380D01*
X190896666Y-171219761D01*
X190849047Y-171124523D01*
X190849047Y-171029285D01*
X190896666Y-170934047D01*
X190991904Y-170886428D01*
X191230000Y-170886428D01*
X191325238Y-170838809D01*
X192230000Y-171219761D02*
X192134761Y-171267380D01*
X191944285Y-171267380D01*
X191849047Y-171219761D01*
X191801428Y-171172142D01*
X191753809Y-171076904D01*
X191753809Y-170791190D01*
X191801428Y-170695952D01*
X191849047Y-170648333D01*
X191944285Y-170600714D01*
X192134761Y-170600714D01*
X192230000Y-170648333D01*
X192658571Y-171267380D02*
X192658571Y-170267380D01*
X192753809Y-170886428D02*
X193039523Y-171267380D01*
X193039523Y-170600714D02*
X192658571Y-170981666D01*
X193896666Y-170600714D02*
X193896666Y-171267380D01*
X193468095Y-170600714D02*
X193468095Y-171124523D01*
X193515714Y-171219761D01*
X193610952Y-171267380D01*
X193753809Y-171267380D01*
X193849047Y-171219761D01*
X193896666Y-171172142D01*
X194372857Y-170600714D02*
X194372857Y-171600714D01*
X194372857Y-170648333D02*
X194468095Y-170600714D01*
X194658571Y-170600714D01*
X194753809Y-170648333D01*
X194801428Y-170695952D01*
X194849047Y-170791190D01*
X194849047Y-171076904D01*
X194801428Y-171172142D01*
X194753809Y-171219761D01*
X194658571Y-171267380D01*
X194468095Y-171267380D01*
X194372857Y-171219761D01*
X196087142Y-171267380D02*
X196277619Y-171267380D01*
X196372857Y-171219761D01*
X196420476Y-171172142D01*
X196515714Y-171029285D01*
X196563333Y-170838809D01*
X196563333Y-170457857D01*
X196515714Y-170362619D01*
X196468095Y-170315000D01*
X196372857Y-170267380D01*
X196182380Y-170267380D01*
X196087142Y-170315000D01*
X196039523Y-170362619D01*
X195991904Y-170457857D01*
X195991904Y-170695952D01*
X196039523Y-170791190D01*
X196087142Y-170838809D01*
X196182380Y-170886428D01*
X196372857Y-170886428D01*
X196468095Y-170838809D01*
X196515714Y-170791190D01*
X196563333Y-170695952D01*
%TO.C,R2*%
X27757380Y-144946666D02*
X27281190Y-145280000D01*
X27757380Y-145518095D02*
X26757380Y-145518095D01*
X26757380Y-145137142D01*
X26805000Y-145041904D01*
X26852619Y-144994285D01*
X26947857Y-144946666D01*
X27090714Y-144946666D01*
X27185952Y-144994285D01*
X27233571Y-145041904D01*
X27281190Y-145137142D01*
X27281190Y-145518095D01*
X26852619Y-144565714D02*
X26805000Y-144518095D01*
X26757380Y-144422857D01*
X26757380Y-144184761D01*
X26805000Y-144089523D01*
X26852619Y-144041904D01*
X26947857Y-143994285D01*
X27043095Y-143994285D01*
X27185952Y-144041904D01*
X27757380Y-144613333D01*
X27757380Y-143994285D01*
%TO.C,Load Cell 5*%
X115387380Y-158043095D02*
X115387380Y-158519285D01*
X114387380Y-158519285D01*
X115387380Y-157566904D02*
X115339761Y-157662142D01*
X115292142Y-157709761D01*
X115196904Y-157757380D01*
X114911190Y-157757380D01*
X114815952Y-157709761D01*
X114768333Y-157662142D01*
X114720714Y-157566904D01*
X114720714Y-157424047D01*
X114768333Y-157328809D01*
X114815952Y-157281190D01*
X114911190Y-157233571D01*
X115196904Y-157233571D01*
X115292142Y-157281190D01*
X115339761Y-157328809D01*
X115387380Y-157424047D01*
X115387380Y-157566904D01*
X115387380Y-156376428D02*
X114863571Y-156376428D01*
X114768333Y-156424047D01*
X114720714Y-156519285D01*
X114720714Y-156709761D01*
X114768333Y-156805000D01*
X115339761Y-156376428D02*
X115387380Y-156471666D01*
X115387380Y-156709761D01*
X115339761Y-156805000D01*
X115244523Y-156852619D01*
X115149285Y-156852619D01*
X115054047Y-156805000D01*
X115006428Y-156709761D01*
X115006428Y-156471666D01*
X114958809Y-156376428D01*
X115387380Y-155471666D02*
X114387380Y-155471666D01*
X115339761Y-155471666D02*
X115387380Y-155566904D01*
X115387380Y-155757380D01*
X115339761Y-155852619D01*
X115292142Y-155900238D01*
X115196904Y-155947857D01*
X114911190Y-155947857D01*
X114815952Y-155900238D01*
X114768333Y-155852619D01*
X114720714Y-155757380D01*
X114720714Y-155566904D01*
X114768333Y-155471666D01*
X115292142Y-153662142D02*
X115339761Y-153709761D01*
X115387380Y-153852619D01*
X115387380Y-153947857D01*
X115339761Y-154090714D01*
X115244523Y-154185952D01*
X115149285Y-154233571D01*
X114958809Y-154281190D01*
X114815952Y-154281190D01*
X114625476Y-154233571D01*
X114530238Y-154185952D01*
X114435000Y-154090714D01*
X114387380Y-153947857D01*
X114387380Y-153852619D01*
X114435000Y-153709761D01*
X114482619Y-153662142D01*
X115339761Y-152852619D02*
X115387380Y-152947857D01*
X115387380Y-153138333D01*
X115339761Y-153233571D01*
X115244523Y-153281190D01*
X114863571Y-153281190D01*
X114768333Y-153233571D01*
X114720714Y-153138333D01*
X114720714Y-152947857D01*
X114768333Y-152852619D01*
X114863571Y-152805000D01*
X114958809Y-152805000D01*
X115054047Y-153281190D01*
X115387380Y-152233571D02*
X115339761Y-152328809D01*
X115244523Y-152376428D01*
X114387380Y-152376428D01*
X115387380Y-151709761D02*
X115339761Y-151805000D01*
X115244523Y-151852619D01*
X114387380Y-151852619D01*
X114387380Y-150090714D02*
X114387380Y-150566904D01*
X114863571Y-150614523D01*
X114815952Y-150566904D01*
X114768333Y-150471666D01*
X114768333Y-150233571D01*
X114815952Y-150138333D01*
X114863571Y-150090714D01*
X114958809Y-150043095D01*
X115196904Y-150043095D01*
X115292142Y-150090714D01*
X115339761Y-150138333D01*
X115387380Y-150233571D01*
X115387380Y-150471666D01*
X115339761Y-150566904D01*
X115292142Y-150614523D01*
%TO.C,Relay Board*%
X186103095Y-34742380D02*
X185769761Y-34266190D01*
X185531666Y-34742380D02*
X185531666Y-33742380D01*
X185912619Y-33742380D01*
X186007857Y-33790000D01*
X186055476Y-33837619D01*
X186103095Y-33932857D01*
X186103095Y-34075714D01*
X186055476Y-34170952D01*
X186007857Y-34218571D01*
X185912619Y-34266190D01*
X185531666Y-34266190D01*
X186912619Y-34694761D02*
X186817380Y-34742380D01*
X186626904Y-34742380D01*
X186531666Y-34694761D01*
X186484047Y-34599523D01*
X186484047Y-34218571D01*
X186531666Y-34123333D01*
X186626904Y-34075714D01*
X186817380Y-34075714D01*
X186912619Y-34123333D01*
X186960238Y-34218571D01*
X186960238Y-34313809D01*
X186484047Y-34409047D01*
X187531666Y-34742380D02*
X187436428Y-34694761D01*
X187388809Y-34599523D01*
X187388809Y-33742380D01*
X188341190Y-34742380D02*
X188341190Y-34218571D01*
X188293571Y-34123333D01*
X188198333Y-34075714D01*
X188007857Y-34075714D01*
X187912619Y-34123333D01*
X188341190Y-34694761D02*
X188245952Y-34742380D01*
X188007857Y-34742380D01*
X187912619Y-34694761D01*
X187865000Y-34599523D01*
X187865000Y-34504285D01*
X187912619Y-34409047D01*
X188007857Y-34361428D01*
X188245952Y-34361428D01*
X188341190Y-34313809D01*
X188722142Y-34075714D02*
X188960238Y-34742380D01*
X189198333Y-34075714D02*
X188960238Y-34742380D01*
X188865000Y-34980476D01*
X188817380Y-35028095D01*
X188722142Y-35075714D01*
X190674523Y-34218571D02*
X190817380Y-34266190D01*
X190865000Y-34313809D01*
X190912619Y-34409047D01*
X190912619Y-34551904D01*
X190865000Y-34647142D01*
X190817380Y-34694761D01*
X190722142Y-34742380D01*
X190341190Y-34742380D01*
X190341190Y-33742380D01*
X190674523Y-33742380D01*
X190769761Y-33790000D01*
X190817380Y-33837619D01*
X190865000Y-33932857D01*
X190865000Y-34028095D01*
X190817380Y-34123333D01*
X190769761Y-34170952D01*
X190674523Y-34218571D01*
X190341190Y-34218571D01*
X191484047Y-34742380D02*
X191388809Y-34694761D01*
X191341190Y-34647142D01*
X191293571Y-34551904D01*
X191293571Y-34266190D01*
X191341190Y-34170952D01*
X191388809Y-34123333D01*
X191484047Y-34075714D01*
X191626904Y-34075714D01*
X191722142Y-34123333D01*
X191769761Y-34170952D01*
X191817380Y-34266190D01*
X191817380Y-34551904D01*
X191769761Y-34647142D01*
X191722142Y-34694761D01*
X191626904Y-34742380D01*
X191484047Y-34742380D01*
X192674523Y-34742380D02*
X192674523Y-34218571D01*
X192626904Y-34123333D01*
X192531666Y-34075714D01*
X192341190Y-34075714D01*
X192245952Y-34123333D01*
X192674523Y-34694761D02*
X192579285Y-34742380D01*
X192341190Y-34742380D01*
X192245952Y-34694761D01*
X192198333Y-34599523D01*
X192198333Y-34504285D01*
X192245952Y-34409047D01*
X192341190Y-34361428D01*
X192579285Y-34361428D01*
X192674523Y-34313809D01*
X193150714Y-34742380D02*
X193150714Y-34075714D01*
X193150714Y-34266190D02*
X193198333Y-34170952D01*
X193245952Y-34123333D01*
X193341190Y-34075714D01*
X193436428Y-34075714D01*
X194198333Y-34742380D02*
X194198333Y-33742380D01*
X194198333Y-34694761D02*
X194103095Y-34742380D01*
X193912619Y-34742380D01*
X193817380Y-34694761D01*
X193769761Y-34647142D01*
X193722142Y-34551904D01*
X193722142Y-34266190D01*
X193769761Y-34170952D01*
X193817380Y-34123333D01*
X193912619Y-34075714D01*
X194103095Y-34075714D01*
X194198333Y-34123333D01*
%TO.C,Igniter 1 *%
X150265238Y-39187380D02*
X150265238Y-38187380D01*
X151170000Y-38520714D02*
X151170000Y-39330238D01*
X151122380Y-39425476D01*
X151074761Y-39473095D01*
X150979523Y-39520714D01*
X150836666Y-39520714D01*
X150741428Y-39473095D01*
X151170000Y-39139761D02*
X151074761Y-39187380D01*
X150884285Y-39187380D01*
X150789047Y-39139761D01*
X150741428Y-39092142D01*
X150693809Y-38996904D01*
X150693809Y-38711190D01*
X150741428Y-38615952D01*
X150789047Y-38568333D01*
X150884285Y-38520714D01*
X151074761Y-38520714D01*
X151170000Y-38568333D01*
X151646190Y-38520714D02*
X151646190Y-39187380D01*
X151646190Y-38615952D02*
X151693809Y-38568333D01*
X151789047Y-38520714D01*
X151931904Y-38520714D01*
X152027142Y-38568333D01*
X152074761Y-38663571D01*
X152074761Y-39187380D01*
X152550952Y-39187380D02*
X152550952Y-38520714D01*
X152550952Y-38187380D02*
X152503333Y-38235000D01*
X152550952Y-38282619D01*
X152598571Y-38235000D01*
X152550952Y-38187380D01*
X152550952Y-38282619D01*
X152884285Y-38520714D02*
X153265238Y-38520714D01*
X153027142Y-38187380D02*
X153027142Y-39044523D01*
X153074761Y-39139761D01*
X153170000Y-39187380D01*
X153265238Y-39187380D01*
X153979523Y-39139761D02*
X153884285Y-39187380D01*
X153693809Y-39187380D01*
X153598571Y-39139761D01*
X153550952Y-39044523D01*
X153550952Y-38663571D01*
X153598571Y-38568333D01*
X153693809Y-38520714D01*
X153884285Y-38520714D01*
X153979523Y-38568333D01*
X154027142Y-38663571D01*
X154027142Y-38758809D01*
X153550952Y-38854047D01*
X154455714Y-39187380D02*
X154455714Y-38520714D01*
X154455714Y-38711190D02*
X154503333Y-38615952D01*
X154550952Y-38568333D01*
X154646190Y-38520714D01*
X154741428Y-38520714D01*
X156360476Y-39187380D02*
X155789047Y-39187380D01*
X156074761Y-39187380D02*
X156074761Y-38187380D01*
X155979523Y-38330238D01*
X155884285Y-38425476D01*
X155789047Y-38473095D01*
%TO.C,R8*%
X117292380Y-146215158D02*
X116816190Y-146548492D01*
X117292380Y-146786587D02*
X116292380Y-146786587D01*
X116292380Y-146405634D01*
X116340000Y-146310396D01*
X116387619Y-146262777D01*
X116482857Y-146215158D01*
X116625714Y-146215158D01*
X116720952Y-146262777D01*
X116768571Y-146310396D01*
X116816190Y-146405634D01*
X116816190Y-146786587D01*
X116720952Y-145643730D02*
X116673333Y-145738968D01*
X116625714Y-145786587D01*
X116530476Y-145834206D01*
X116482857Y-145834206D01*
X116387619Y-145786587D01*
X116340000Y-145738968D01*
X116292380Y-145643730D01*
X116292380Y-145453253D01*
X116340000Y-145358015D01*
X116387619Y-145310396D01*
X116482857Y-145262777D01*
X116530476Y-145262777D01*
X116625714Y-145310396D01*
X116673333Y-145358015D01*
X116720952Y-145453253D01*
X116720952Y-145643730D01*
X116768571Y-145738968D01*
X116816190Y-145786587D01*
X116911428Y-145834206D01*
X117101904Y-145834206D01*
X117197142Y-145786587D01*
X117244761Y-145738968D01*
X117292380Y-145643730D01*
X117292380Y-145453253D01*
X117244761Y-145358015D01*
X117197142Y-145310396D01*
X117101904Y-145262777D01*
X116911428Y-145262777D01*
X116816190Y-145310396D01*
X116768571Y-145358015D01*
X116720952Y-145453253D01*
%TO.C,R7*%
X123007380Y-146400213D02*
X122531190Y-146733547D01*
X123007380Y-146971642D02*
X122007380Y-146971642D01*
X122007380Y-146590689D01*
X122055000Y-146495451D01*
X122102619Y-146447832D01*
X122197857Y-146400213D01*
X122340714Y-146400213D01*
X122435952Y-146447832D01*
X122483571Y-146495451D01*
X122531190Y-146590689D01*
X122531190Y-146971642D01*
X122007380Y-146066880D02*
X122007380Y-145400213D01*
X123007380Y-145828785D01*
%TO.C,Flow Meter Backup*%
X51848571Y-43108571D02*
X51515238Y-43108571D01*
X51515238Y-43632380D02*
X51515238Y-42632380D01*
X51991428Y-42632380D01*
X52515238Y-43632380D02*
X52420000Y-43584761D01*
X52372380Y-43489523D01*
X52372380Y-42632380D01*
X53039047Y-43632380D02*
X52943809Y-43584761D01*
X52896190Y-43537142D01*
X52848571Y-43441904D01*
X52848571Y-43156190D01*
X52896190Y-43060952D01*
X52943809Y-43013333D01*
X53039047Y-42965714D01*
X53181904Y-42965714D01*
X53277142Y-43013333D01*
X53324761Y-43060952D01*
X53372380Y-43156190D01*
X53372380Y-43441904D01*
X53324761Y-43537142D01*
X53277142Y-43584761D01*
X53181904Y-43632380D01*
X53039047Y-43632380D01*
X53705714Y-42965714D02*
X53896190Y-43632380D01*
X54086666Y-43156190D01*
X54277142Y-43632380D01*
X54467619Y-42965714D01*
X55610476Y-43632380D02*
X55610476Y-42632380D01*
X55943809Y-43346666D01*
X56277142Y-42632380D01*
X56277142Y-43632380D01*
X57134285Y-43584761D02*
X57039047Y-43632380D01*
X56848571Y-43632380D01*
X56753333Y-43584761D01*
X56705714Y-43489523D01*
X56705714Y-43108571D01*
X56753333Y-43013333D01*
X56848571Y-42965714D01*
X57039047Y-42965714D01*
X57134285Y-43013333D01*
X57181904Y-43108571D01*
X57181904Y-43203809D01*
X56705714Y-43299047D01*
X57467619Y-42965714D02*
X57848571Y-42965714D01*
X57610476Y-42632380D02*
X57610476Y-43489523D01*
X57658095Y-43584761D01*
X57753333Y-43632380D01*
X57848571Y-43632380D01*
X58562857Y-43584761D02*
X58467619Y-43632380D01*
X58277142Y-43632380D01*
X58181904Y-43584761D01*
X58134285Y-43489523D01*
X58134285Y-43108571D01*
X58181904Y-43013333D01*
X58277142Y-42965714D01*
X58467619Y-42965714D01*
X58562857Y-43013333D01*
X58610476Y-43108571D01*
X58610476Y-43203809D01*
X58134285Y-43299047D01*
X59039047Y-43632380D02*
X59039047Y-42965714D01*
X59039047Y-43156190D02*
X59086666Y-43060952D01*
X59134285Y-43013333D01*
X59229523Y-42965714D01*
X59324761Y-42965714D01*
X60753333Y-43108571D02*
X60896190Y-43156190D01*
X60943809Y-43203809D01*
X60991428Y-43299047D01*
X60991428Y-43441904D01*
X60943809Y-43537142D01*
X60896190Y-43584761D01*
X60800952Y-43632380D01*
X60420000Y-43632380D01*
X60420000Y-42632380D01*
X60753333Y-42632380D01*
X60848571Y-42680000D01*
X60896190Y-42727619D01*
X60943809Y-42822857D01*
X60943809Y-42918095D01*
X60896190Y-43013333D01*
X60848571Y-43060952D01*
X60753333Y-43108571D01*
X60420000Y-43108571D01*
X61848571Y-43632380D02*
X61848571Y-43108571D01*
X61800952Y-43013333D01*
X61705714Y-42965714D01*
X61515238Y-42965714D01*
X61420000Y-43013333D01*
X61848571Y-43584761D02*
X61753333Y-43632380D01*
X61515238Y-43632380D01*
X61420000Y-43584761D01*
X61372380Y-43489523D01*
X61372380Y-43394285D01*
X61420000Y-43299047D01*
X61515238Y-43251428D01*
X61753333Y-43251428D01*
X61848571Y-43203809D01*
X62753333Y-43584761D02*
X62658095Y-43632380D01*
X62467619Y-43632380D01*
X62372380Y-43584761D01*
X62324761Y-43537142D01*
X62277142Y-43441904D01*
X62277142Y-43156190D01*
X62324761Y-43060952D01*
X62372380Y-43013333D01*
X62467619Y-42965714D01*
X62658095Y-42965714D01*
X62753333Y-43013333D01*
X63181904Y-43632380D02*
X63181904Y-42632380D01*
X63277142Y-43251428D02*
X63562857Y-43632380D01*
X63562857Y-42965714D02*
X63181904Y-43346666D01*
X64420000Y-42965714D02*
X64420000Y-43632380D01*
X63991428Y-42965714D02*
X63991428Y-43489523D01*
X64039047Y-43584761D01*
X64134285Y-43632380D01*
X64277142Y-43632380D01*
X64372380Y-43584761D01*
X64420000Y-43537142D01*
X64896190Y-42965714D02*
X64896190Y-43965714D01*
X64896190Y-43013333D02*
X64991428Y-42965714D01*
X65181904Y-42965714D01*
X65277142Y-43013333D01*
X65324761Y-43060952D01*
X65372380Y-43156190D01*
X65372380Y-43441904D01*
X65324761Y-43537142D01*
X65277142Y-43584761D01*
X65181904Y-43632380D01*
X64991428Y-43632380D01*
X64896190Y-43584761D01*
%TO.C,HX711 Breakout 5*%
X34560714Y-131897380D02*
X34560714Y-130897380D01*
X34560714Y-131373571D02*
X35132142Y-131373571D01*
X35132142Y-131897380D02*
X35132142Y-130897380D01*
X35513095Y-130897380D02*
X36179761Y-131897380D01*
X36179761Y-130897380D02*
X35513095Y-131897380D01*
X36465476Y-130897380D02*
X37132142Y-130897380D01*
X36703571Y-131897380D01*
X38036904Y-131897380D02*
X37465476Y-131897380D01*
X37751190Y-131897380D02*
X37751190Y-130897380D01*
X37655952Y-131040238D01*
X37560714Y-131135476D01*
X37465476Y-131183095D01*
X38989285Y-131897380D02*
X38417857Y-131897380D01*
X38703571Y-131897380D02*
X38703571Y-130897380D01*
X38608333Y-131040238D01*
X38513095Y-131135476D01*
X38417857Y-131183095D01*
X40513095Y-131373571D02*
X40655952Y-131421190D01*
X40703571Y-131468809D01*
X40751190Y-131564047D01*
X40751190Y-131706904D01*
X40703571Y-131802142D01*
X40655952Y-131849761D01*
X40560714Y-131897380D01*
X40179761Y-131897380D01*
X40179761Y-130897380D01*
X40513095Y-130897380D01*
X40608333Y-130945000D01*
X40655952Y-130992619D01*
X40703571Y-131087857D01*
X40703571Y-131183095D01*
X40655952Y-131278333D01*
X40608333Y-131325952D01*
X40513095Y-131373571D01*
X40179761Y-131373571D01*
X41179761Y-131897380D02*
X41179761Y-131230714D01*
X41179761Y-131421190D02*
X41227380Y-131325952D01*
X41275000Y-131278333D01*
X41370238Y-131230714D01*
X41465476Y-131230714D01*
X42179761Y-131849761D02*
X42084523Y-131897380D01*
X41894047Y-131897380D01*
X41798809Y-131849761D01*
X41751190Y-131754523D01*
X41751190Y-131373571D01*
X41798809Y-131278333D01*
X41894047Y-131230714D01*
X42084523Y-131230714D01*
X42179761Y-131278333D01*
X42227380Y-131373571D01*
X42227380Y-131468809D01*
X41751190Y-131564047D01*
X43084523Y-131897380D02*
X43084523Y-131373571D01*
X43036904Y-131278333D01*
X42941666Y-131230714D01*
X42751190Y-131230714D01*
X42655952Y-131278333D01*
X43084523Y-131849761D02*
X42989285Y-131897380D01*
X42751190Y-131897380D01*
X42655952Y-131849761D01*
X42608333Y-131754523D01*
X42608333Y-131659285D01*
X42655952Y-131564047D01*
X42751190Y-131516428D01*
X42989285Y-131516428D01*
X43084523Y-131468809D01*
X43560714Y-131897380D02*
X43560714Y-130897380D01*
X43655952Y-131516428D02*
X43941666Y-131897380D01*
X43941666Y-131230714D02*
X43560714Y-131611666D01*
X44513095Y-131897380D02*
X44417857Y-131849761D01*
X44370238Y-131802142D01*
X44322619Y-131706904D01*
X44322619Y-131421190D01*
X44370238Y-131325952D01*
X44417857Y-131278333D01*
X44513095Y-131230714D01*
X44655952Y-131230714D01*
X44751190Y-131278333D01*
X44798809Y-131325952D01*
X44846428Y-131421190D01*
X44846428Y-131706904D01*
X44798809Y-131802142D01*
X44751190Y-131849761D01*
X44655952Y-131897380D01*
X44513095Y-131897380D01*
X45703571Y-131230714D02*
X45703571Y-131897380D01*
X45275000Y-131230714D02*
X45275000Y-131754523D01*
X45322619Y-131849761D01*
X45417857Y-131897380D01*
X45560714Y-131897380D01*
X45655952Y-131849761D01*
X45703571Y-131802142D01*
X46036904Y-131230714D02*
X46417857Y-131230714D01*
X46179761Y-130897380D02*
X46179761Y-131754523D01*
X46227380Y-131849761D01*
X46322619Y-131897380D01*
X46417857Y-131897380D01*
X47989285Y-130897380D02*
X47513095Y-130897380D01*
X47465476Y-131373571D01*
X47513095Y-131325952D01*
X47608333Y-131278333D01*
X47846428Y-131278333D01*
X47941666Y-131325952D01*
X47989285Y-131373571D01*
X48036904Y-131468809D01*
X48036904Y-131706904D01*
X47989285Y-131802142D01*
X47941666Y-131849761D01*
X47846428Y-131897380D01*
X47608333Y-131897380D01*
X47513095Y-131849761D01*
X47465476Y-131802142D01*
%TO.C,Servo 2 Backup*%
X139469761Y-26105714D02*
X139517380Y-25962857D01*
X139517380Y-25724761D01*
X139469761Y-25629523D01*
X139422142Y-25581904D01*
X139326904Y-25534285D01*
X139231666Y-25534285D01*
X139136428Y-25581904D01*
X139088809Y-25629523D01*
X139041190Y-25724761D01*
X138993571Y-25915238D01*
X138945952Y-26010476D01*
X138898333Y-26058095D01*
X138803095Y-26105714D01*
X138707857Y-26105714D01*
X138612619Y-26058095D01*
X138565000Y-26010476D01*
X138517380Y-25915238D01*
X138517380Y-25677142D01*
X138565000Y-25534285D01*
X139469761Y-24724761D02*
X139517380Y-24820000D01*
X139517380Y-25010476D01*
X139469761Y-25105714D01*
X139374523Y-25153333D01*
X138993571Y-25153333D01*
X138898333Y-25105714D01*
X138850714Y-25010476D01*
X138850714Y-24820000D01*
X138898333Y-24724761D01*
X138993571Y-24677142D01*
X139088809Y-24677142D01*
X139184047Y-25153333D01*
X139517380Y-24248571D02*
X138850714Y-24248571D01*
X139041190Y-24248571D02*
X138945952Y-24200952D01*
X138898333Y-24153333D01*
X138850714Y-24058095D01*
X138850714Y-23962857D01*
X138850714Y-23724761D02*
X139517380Y-23486666D01*
X138850714Y-23248571D01*
X139517380Y-22724761D02*
X139469761Y-22820000D01*
X139422142Y-22867619D01*
X139326904Y-22915238D01*
X139041190Y-22915238D01*
X138945952Y-22867619D01*
X138898333Y-22820000D01*
X138850714Y-22724761D01*
X138850714Y-22581904D01*
X138898333Y-22486666D01*
X138945952Y-22439047D01*
X139041190Y-22391428D01*
X139326904Y-22391428D01*
X139422142Y-22439047D01*
X139469761Y-22486666D01*
X139517380Y-22581904D01*
X139517380Y-22724761D01*
X138612619Y-21248571D02*
X138565000Y-21200952D01*
X138517380Y-21105714D01*
X138517380Y-20867619D01*
X138565000Y-20772380D01*
X138612619Y-20724761D01*
X138707857Y-20677142D01*
X138803095Y-20677142D01*
X138945952Y-20724761D01*
X139517380Y-21296190D01*
X139517380Y-20677142D01*
X138993571Y-19153333D02*
X139041190Y-19010476D01*
X139088809Y-18962857D01*
X139184047Y-18915238D01*
X139326904Y-18915238D01*
X139422142Y-18962857D01*
X139469761Y-19010476D01*
X139517380Y-19105714D01*
X139517380Y-19486666D01*
X138517380Y-19486666D01*
X138517380Y-19153333D01*
X138565000Y-19058095D01*
X138612619Y-19010476D01*
X138707857Y-18962857D01*
X138803095Y-18962857D01*
X138898333Y-19010476D01*
X138945952Y-19058095D01*
X138993571Y-19153333D01*
X138993571Y-19486666D01*
X139517380Y-18058095D02*
X138993571Y-18058095D01*
X138898333Y-18105714D01*
X138850714Y-18200952D01*
X138850714Y-18391428D01*
X138898333Y-18486666D01*
X139469761Y-18058095D02*
X139517380Y-18153333D01*
X139517380Y-18391428D01*
X139469761Y-18486666D01*
X139374523Y-18534285D01*
X139279285Y-18534285D01*
X139184047Y-18486666D01*
X139136428Y-18391428D01*
X139136428Y-18153333D01*
X139088809Y-18058095D01*
X139469761Y-17153333D02*
X139517380Y-17248571D01*
X139517380Y-17439047D01*
X139469761Y-17534285D01*
X139422142Y-17581904D01*
X139326904Y-17629523D01*
X139041190Y-17629523D01*
X138945952Y-17581904D01*
X138898333Y-17534285D01*
X138850714Y-17439047D01*
X138850714Y-17248571D01*
X138898333Y-17153333D01*
X139517380Y-16724761D02*
X138517380Y-16724761D01*
X139136428Y-16629523D02*
X139517380Y-16343809D01*
X138850714Y-16343809D02*
X139231666Y-16724761D01*
X138850714Y-15486666D02*
X139517380Y-15486666D01*
X138850714Y-15915238D02*
X139374523Y-15915238D01*
X139469761Y-15867619D01*
X139517380Y-15772380D01*
X139517380Y-15629523D01*
X139469761Y-15534285D01*
X139422142Y-15486666D01*
X138850714Y-15010476D02*
X139850714Y-15010476D01*
X138898333Y-15010476D02*
X138850714Y-14915238D01*
X138850714Y-14724761D01*
X138898333Y-14629523D01*
X138945952Y-14581904D01*
X139041190Y-14534285D01*
X139326904Y-14534285D01*
X139422142Y-14581904D01*
X139469761Y-14629523D01*
X139517380Y-14724761D01*
X139517380Y-14915238D01*
X139469761Y-15010476D01*
%TO.C,R13*%
X48077380Y-145422857D02*
X47601190Y-145756190D01*
X48077380Y-145994285D02*
X47077380Y-145994285D01*
X47077380Y-145613333D01*
X47125000Y-145518095D01*
X47172619Y-145470476D01*
X47267857Y-145422857D01*
X47410714Y-145422857D01*
X47505952Y-145470476D01*
X47553571Y-145518095D01*
X47601190Y-145613333D01*
X47601190Y-145994285D01*
X48077380Y-144470476D02*
X48077380Y-145041904D01*
X48077380Y-144756190D02*
X47077380Y-144756190D01*
X47220238Y-144851428D01*
X47315476Y-144946666D01*
X47363095Y-145041904D01*
X47077380Y-144137142D02*
X47077380Y-143518095D01*
X47458333Y-143851428D01*
X47458333Y-143708571D01*
X47505952Y-143613333D01*
X47553571Y-143565714D01*
X47648809Y-143518095D01*
X47886904Y-143518095D01*
X47982142Y-143565714D01*
X48029761Y-143613333D01*
X48077380Y-143708571D01*
X48077380Y-143994285D01*
X48029761Y-144089523D01*
X47982142Y-144137142D01*
%TO.C,*%
%TO.C,SD Card Reader*%
X37981666Y-48029761D02*
X38124523Y-48077380D01*
X38362619Y-48077380D01*
X38457857Y-48029761D01*
X38505476Y-47982142D01*
X38553095Y-47886904D01*
X38553095Y-47791666D01*
X38505476Y-47696428D01*
X38457857Y-47648809D01*
X38362619Y-47601190D01*
X38172142Y-47553571D01*
X38076904Y-47505952D01*
X38029285Y-47458333D01*
X37981666Y-47363095D01*
X37981666Y-47267857D01*
X38029285Y-47172619D01*
X38076904Y-47125000D01*
X38172142Y-47077380D01*
X38410238Y-47077380D01*
X38553095Y-47125000D01*
X38981666Y-48077380D02*
X38981666Y-47077380D01*
X39219761Y-47077380D01*
X39362619Y-47125000D01*
X39457857Y-47220238D01*
X39505476Y-47315476D01*
X39553095Y-47505952D01*
X39553095Y-47648809D01*
X39505476Y-47839285D01*
X39457857Y-47934523D01*
X39362619Y-48029761D01*
X39219761Y-48077380D01*
X38981666Y-48077380D01*
X41315000Y-47982142D02*
X41267380Y-48029761D01*
X41124523Y-48077380D01*
X41029285Y-48077380D01*
X40886428Y-48029761D01*
X40791190Y-47934523D01*
X40743571Y-47839285D01*
X40695952Y-47648809D01*
X40695952Y-47505952D01*
X40743571Y-47315476D01*
X40791190Y-47220238D01*
X40886428Y-47125000D01*
X41029285Y-47077380D01*
X41124523Y-47077380D01*
X41267380Y-47125000D01*
X41315000Y-47172619D01*
X42172142Y-48077380D02*
X42172142Y-47553571D01*
X42124523Y-47458333D01*
X42029285Y-47410714D01*
X41838809Y-47410714D01*
X41743571Y-47458333D01*
X42172142Y-48029761D02*
X42076904Y-48077380D01*
X41838809Y-48077380D01*
X41743571Y-48029761D01*
X41695952Y-47934523D01*
X41695952Y-47839285D01*
X41743571Y-47744047D01*
X41838809Y-47696428D01*
X42076904Y-47696428D01*
X42172142Y-47648809D01*
X42648333Y-48077380D02*
X42648333Y-47410714D01*
X42648333Y-47601190D02*
X42695952Y-47505952D01*
X42743571Y-47458333D01*
X42838809Y-47410714D01*
X42934047Y-47410714D01*
X43695952Y-48077380D02*
X43695952Y-47077380D01*
X43695952Y-48029761D02*
X43600714Y-48077380D01*
X43410238Y-48077380D01*
X43315000Y-48029761D01*
X43267380Y-47982142D01*
X43219761Y-47886904D01*
X43219761Y-47601190D01*
X43267380Y-47505952D01*
X43315000Y-47458333D01*
X43410238Y-47410714D01*
X43600714Y-47410714D01*
X43695952Y-47458333D01*
X45505476Y-48077380D02*
X45172142Y-47601190D01*
X44934047Y-48077380D02*
X44934047Y-47077380D01*
X45315000Y-47077380D01*
X45410238Y-47125000D01*
X45457857Y-47172619D01*
X45505476Y-47267857D01*
X45505476Y-47410714D01*
X45457857Y-47505952D01*
X45410238Y-47553571D01*
X45315000Y-47601190D01*
X44934047Y-47601190D01*
X46315000Y-48029761D02*
X46219761Y-48077380D01*
X46029285Y-48077380D01*
X45934047Y-48029761D01*
X45886428Y-47934523D01*
X45886428Y-47553571D01*
X45934047Y-47458333D01*
X46029285Y-47410714D01*
X46219761Y-47410714D01*
X46315000Y-47458333D01*
X46362619Y-47553571D01*
X46362619Y-47648809D01*
X45886428Y-47744047D01*
X47219761Y-48077380D02*
X47219761Y-47553571D01*
X47172142Y-47458333D01*
X47076904Y-47410714D01*
X46886428Y-47410714D01*
X46791190Y-47458333D01*
X47219761Y-48029761D02*
X47124523Y-48077380D01*
X46886428Y-48077380D01*
X46791190Y-48029761D01*
X46743571Y-47934523D01*
X46743571Y-47839285D01*
X46791190Y-47744047D01*
X46886428Y-47696428D01*
X47124523Y-47696428D01*
X47219761Y-47648809D01*
X48124523Y-48077380D02*
X48124523Y-47077380D01*
X48124523Y-48029761D02*
X48029285Y-48077380D01*
X47838809Y-48077380D01*
X47743571Y-48029761D01*
X47695952Y-47982142D01*
X47648333Y-47886904D01*
X47648333Y-47601190D01*
X47695952Y-47505952D01*
X47743571Y-47458333D01*
X47838809Y-47410714D01*
X48029285Y-47410714D01*
X48124523Y-47458333D01*
X48981666Y-48029761D02*
X48886428Y-48077380D01*
X48695952Y-48077380D01*
X48600714Y-48029761D01*
X48553095Y-47934523D01*
X48553095Y-47553571D01*
X48600714Y-47458333D01*
X48695952Y-47410714D01*
X48886428Y-47410714D01*
X48981666Y-47458333D01*
X49029285Y-47553571D01*
X49029285Y-47648809D01*
X48553095Y-47744047D01*
X49457857Y-48077380D02*
X49457857Y-47410714D01*
X49457857Y-47601190D02*
X49505476Y-47505952D01*
X49553095Y-47458333D01*
X49648333Y-47410714D01*
X49743571Y-47410714D01*
%TO.C,Load Cell 6*%
X137612380Y-158043095D02*
X137612380Y-158519285D01*
X136612380Y-158519285D01*
X137612380Y-157566904D02*
X137564761Y-157662142D01*
X137517142Y-157709761D01*
X137421904Y-157757380D01*
X137136190Y-157757380D01*
X137040952Y-157709761D01*
X136993333Y-157662142D01*
X136945714Y-157566904D01*
X136945714Y-157424047D01*
X136993333Y-157328809D01*
X137040952Y-157281190D01*
X137136190Y-157233571D01*
X137421904Y-157233571D01*
X137517142Y-157281190D01*
X137564761Y-157328809D01*
X137612380Y-157424047D01*
X137612380Y-157566904D01*
X137612380Y-156376428D02*
X137088571Y-156376428D01*
X136993333Y-156424047D01*
X136945714Y-156519285D01*
X136945714Y-156709761D01*
X136993333Y-156805000D01*
X137564761Y-156376428D02*
X137612380Y-156471666D01*
X137612380Y-156709761D01*
X137564761Y-156805000D01*
X137469523Y-156852619D01*
X137374285Y-156852619D01*
X137279047Y-156805000D01*
X137231428Y-156709761D01*
X137231428Y-156471666D01*
X137183809Y-156376428D01*
X137612380Y-155471666D02*
X136612380Y-155471666D01*
X137564761Y-155471666D02*
X137612380Y-155566904D01*
X137612380Y-155757380D01*
X137564761Y-155852619D01*
X137517142Y-155900238D01*
X137421904Y-155947857D01*
X137136190Y-155947857D01*
X137040952Y-155900238D01*
X136993333Y-155852619D01*
X136945714Y-155757380D01*
X136945714Y-155566904D01*
X136993333Y-155471666D01*
X137517142Y-153662142D02*
X137564761Y-153709761D01*
X137612380Y-153852619D01*
X137612380Y-153947857D01*
X137564761Y-154090714D01*
X137469523Y-154185952D01*
X137374285Y-154233571D01*
X137183809Y-154281190D01*
X137040952Y-154281190D01*
X136850476Y-154233571D01*
X136755238Y-154185952D01*
X136660000Y-154090714D01*
X136612380Y-153947857D01*
X136612380Y-153852619D01*
X136660000Y-153709761D01*
X136707619Y-153662142D01*
X137564761Y-152852619D02*
X137612380Y-152947857D01*
X137612380Y-153138333D01*
X137564761Y-153233571D01*
X137469523Y-153281190D01*
X137088571Y-153281190D01*
X136993333Y-153233571D01*
X136945714Y-153138333D01*
X136945714Y-152947857D01*
X136993333Y-152852619D01*
X137088571Y-152805000D01*
X137183809Y-152805000D01*
X137279047Y-153281190D01*
X137612380Y-152233571D02*
X137564761Y-152328809D01*
X137469523Y-152376428D01*
X136612380Y-152376428D01*
X137612380Y-151709761D02*
X137564761Y-151805000D01*
X137469523Y-151852619D01*
X136612380Y-151852619D01*
X136612380Y-150138333D02*
X136612380Y-150328809D01*
X136660000Y-150424047D01*
X136707619Y-150471666D01*
X136850476Y-150566904D01*
X137040952Y-150614523D01*
X137421904Y-150614523D01*
X137517142Y-150566904D01*
X137564761Y-150519285D01*
X137612380Y-150424047D01*
X137612380Y-150233571D01*
X137564761Y-150138333D01*
X137517142Y-150090714D01*
X137421904Y-150043095D01*
X137183809Y-150043095D01*
X137088571Y-150090714D01*
X137040952Y-150138333D01*
X136993333Y-150233571D01*
X136993333Y-150424047D01*
X137040952Y-150519285D01*
X137088571Y-150566904D01*
X137183809Y-150614523D01*
%TO.C,*%
%TO.C,Load Cell Backup 7*%
X138605476Y-171267380D02*
X138129285Y-171267380D01*
X138129285Y-170267380D01*
X139081666Y-171267380D02*
X138986428Y-171219761D01*
X138938809Y-171172142D01*
X138891190Y-171076904D01*
X138891190Y-170791190D01*
X138938809Y-170695952D01*
X138986428Y-170648333D01*
X139081666Y-170600714D01*
X139224523Y-170600714D01*
X139319761Y-170648333D01*
X139367380Y-170695952D01*
X139415000Y-170791190D01*
X139415000Y-171076904D01*
X139367380Y-171172142D01*
X139319761Y-171219761D01*
X139224523Y-171267380D01*
X139081666Y-171267380D01*
X140272142Y-171267380D02*
X140272142Y-170743571D01*
X140224523Y-170648333D01*
X140129285Y-170600714D01*
X139938809Y-170600714D01*
X139843571Y-170648333D01*
X140272142Y-171219761D02*
X140176904Y-171267380D01*
X139938809Y-171267380D01*
X139843571Y-171219761D01*
X139795952Y-171124523D01*
X139795952Y-171029285D01*
X139843571Y-170934047D01*
X139938809Y-170886428D01*
X140176904Y-170886428D01*
X140272142Y-170838809D01*
X141176904Y-171267380D02*
X141176904Y-170267380D01*
X141176904Y-171219761D02*
X141081666Y-171267380D01*
X140891190Y-171267380D01*
X140795952Y-171219761D01*
X140748333Y-171172142D01*
X140700714Y-171076904D01*
X140700714Y-170791190D01*
X140748333Y-170695952D01*
X140795952Y-170648333D01*
X140891190Y-170600714D01*
X141081666Y-170600714D01*
X141176904Y-170648333D01*
X142986428Y-171172142D02*
X142938809Y-171219761D01*
X142795952Y-171267380D01*
X142700714Y-171267380D01*
X142557857Y-171219761D01*
X142462619Y-171124523D01*
X142415000Y-171029285D01*
X142367380Y-170838809D01*
X142367380Y-170695952D01*
X142415000Y-170505476D01*
X142462619Y-170410238D01*
X142557857Y-170315000D01*
X142700714Y-170267380D01*
X142795952Y-170267380D01*
X142938809Y-170315000D01*
X142986428Y-170362619D01*
X143795952Y-171219761D02*
X143700714Y-171267380D01*
X143510238Y-171267380D01*
X143415000Y-171219761D01*
X143367380Y-171124523D01*
X143367380Y-170743571D01*
X143415000Y-170648333D01*
X143510238Y-170600714D01*
X143700714Y-170600714D01*
X143795952Y-170648333D01*
X143843571Y-170743571D01*
X143843571Y-170838809D01*
X143367380Y-170934047D01*
X144415000Y-171267380D02*
X144319761Y-171219761D01*
X144272142Y-171124523D01*
X144272142Y-170267380D01*
X144938809Y-171267380D02*
X144843571Y-171219761D01*
X144795952Y-171124523D01*
X144795952Y-170267380D01*
X146415000Y-170743571D02*
X146557857Y-170791190D01*
X146605476Y-170838809D01*
X146653095Y-170934047D01*
X146653095Y-171076904D01*
X146605476Y-171172142D01*
X146557857Y-171219761D01*
X146462619Y-171267380D01*
X146081666Y-171267380D01*
X146081666Y-170267380D01*
X146415000Y-170267380D01*
X146510238Y-170315000D01*
X146557857Y-170362619D01*
X146605476Y-170457857D01*
X146605476Y-170553095D01*
X146557857Y-170648333D01*
X146510238Y-170695952D01*
X146415000Y-170743571D01*
X146081666Y-170743571D01*
X147510238Y-171267380D02*
X147510238Y-170743571D01*
X147462619Y-170648333D01*
X147367380Y-170600714D01*
X147176904Y-170600714D01*
X147081666Y-170648333D01*
X147510238Y-171219761D02*
X147415000Y-171267380D01*
X147176904Y-171267380D01*
X147081666Y-171219761D01*
X147034047Y-171124523D01*
X147034047Y-171029285D01*
X147081666Y-170934047D01*
X147176904Y-170886428D01*
X147415000Y-170886428D01*
X147510238Y-170838809D01*
X148415000Y-171219761D02*
X148319761Y-171267380D01*
X148129285Y-171267380D01*
X148034047Y-171219761D01*
X147986428Y-171172142D01*
X147938809Y-171076904D01*
X147938809Y-170791190D01*
X147986428Y-170695952D01*
X148034047Y-170648333D01*
X148129285Y-170600714D01*
X148319761Y-170600714D01*
X148415000Y-170648333D01*
X148843571Y-171267380D02*
X148843571Y-170267380D01*
X148938809Y-170886428D02*
X149224523Y-171267380D01*
X149224523Y-170600714D02*
X148843571Y-170981666D01*
X150081666Y-170600714D02*
X150081666Y-171267380D01*
X149653095Y-170600714D02*
X149653095Y-171124523D01*
X149700714Y-171219761D01*
X149795952Y-171267380D01*
X149938809Y-171267380D01*
X150034047Y-171219761D01*
X150081666Y-171172142D01*
X150557857Y-170600714D02*
X150557857Y-171600714D01*
X150557857Y-170648333D02*
X150653095Y-170600714D01*
X150843571Y-170600714D01*
X150938809Y-170648333D01*
X150986428Y-170695952D01*
X151034047Y-170791190D01*
X151034047Y-171076904D01*
X150986428Y-171172142D01*
X150938809Y-171219761D01*
X150843571Y-171267380D01*
X150653095Y-171267380D01*
X150557857Y-171219761D01*
X152129285Y-170267380D02*
X152795952Y-170267380D01*
X152367380Y-171267380D01*
%TO.C,R11*%
X183332380Y-146819404D02*
X182856190Y-147152737D01*
X183332380Y-147390832D02*
X182332380Y-147390832D01*
X182332380Y-147009880D01*
X182380000Y-146914642D01*
X182427619Y-146867023D01*
X182522857Y-146819404D01*
X182665714Y-146819404D01*
X182760952Y-146867023D01*
X182808571Y-146914642D01*
X182856190Y-147009880D01*
X182856190Y-147390832D01*
X183332380Y-145867023D02*
X183332380Y-146438451D01*
X183332380Y-146152737D02*
X182332380Y-146152737D01*
X182475238Y-146247975D01*
X182570476Y-146343213D01*
X182618095Y-146438451D01*
X183332380Y-144914642D02*
X183332380Y-145486070D01*
X183332380Y-145200356D02*
X182332380Y-145200356D01*
X182475238Y-145295594D01*
X182570476Y-145390832D01*
X182618095Y-145486070D01*
%TO.C,Load Cell 1*%
X29027380Y-158043095D02*
X29027380Y-158519285D01*
X28027380Y-158519285D01*
X29027380Y-157566904D02*
X28979761Y-157662142D01*
X28932142Y-157709761D01*
X28836904Y-157757380D01*
X28551190Y-157757380D01*
X28455952Y-157709761D01*
X28408333Y-157662142D01*
X28360714Y-157566904D01*
X28360714Y-157424047D01*
X28408333Y-157328809D01*
X28455952Y-157281190D01*
X28551190Y-157233571D01*
X28836904Y-157233571D01*
X28932142Y-157281190D01*
X28979761Y-157328809D01*
X29027380Y-157424047D01*
X29027380Y-157566904D01*
X29027380Y-156376428D02*
X28503571Y-156376428D01*
X28408333Y-156424047D01*
X28360714Y-156519285D01*
X28360714Y-156709761D01*
X28408333Y-156805000D01*
X28979761Y-156376428D02*
X29027380Y-156471666D01*
X29027380Y-156709761D01*
X28979761Y-156805000D01*
X28884523Y-156852619D01*
X28789285Y-156852619D01*
X28694047Y-156805000D01*
X28646428Y-156709761D01*
X28646428Y-156471666D01*
X28598809Y-156376428D01*
X29027380Y-155471666D02*
X28027380Y-155471666D01*
X28979761Y-155471666D02*
X29027380Y-155566904D01*
X29027380Y-155757380D01*
X28979761Y-155852619D01*
X28932142Y-155900238D01*
X28836904Y-155947857D01*
X28551190Y-155947857D01*
X28455952Y-155900238D01*
X28408333Y-155852619D01*
X28360714Y-155757380D01*
X28360714Y-155566904D01*
X28408333Y-155471666D01*
X28932142Y-153662142D02*
X28979761Y-153709761D01*
X29027380Y-153852619D01*
X29027380Y-153947857D01*
X28979761Y-154090714D01*
X28884523Y-154185952D01*
X28789285Y-154233571D01*
X28598809Y-154281190D01*
X28455952Y-154281190D01*
X28265476Y-154233571D01*
X28170238Y-154185952D01*
X28075000Y-154090714D01*
X28027380Y-153947857D01*
X28027380Y-153852619D01*
X28075000Y-153709761D01*
X28122619Y-153662142D01*
X28979761Y-152852619D02*
X29027380Y-152947857D01*
X29027380Y-153138333D01*
X28979761Y-153233571D01*
X28884523Y-153281190D01*
X28503571Y-153281190D01*
X28408333Y-153233571D01*
X28360714Y-153138333D01*
X28360714Y-152947857D01*
X28408333Y-152852619D01*
X28503571Y-152805000D01*
X28598809Y-152805000D01*
X28694047Y-153281190D01*
X29027380Y-152233571D02*
X28979761Y-152328809D01*
X28884523Y-152376428D01*
X28027380Y-152376428D01*
X29027380Y-151709761D02*
X28979761Y-151805000D01*
X28884523Y-151852619D01*
X28027380Y-151852619D01*
X29027380Y-150043095D02*
X29027380Y-150614523D01*
X29027380Y-150328809D02*
X28027380Y-150328809D01*
X28170238Y-150424047D01*
X28265476Y-150519285D01*
X28313095Y-150614523D01*
%TO.C,Load Cell 4*%
X93797380Y-158043095D02*
X93797380Y-158519285D01*
X92797380Y-158519285D01*
X93797380Y-157566904D02*
X93749761Y-157662142D01*
X93702142Y-157709761D01*
X93606904Y-157757380D01*
X93321190Y-157757380D01*
X93225952Y-157709761D01*
X93178333Y-157662142D01*
X93130714Y-157566904D01*
X93130714Y-157424047D01*
X93178333Y-157328809D01*
X93225952Y-157281190D01*
X93321190Y-157233571D01*
X93606904Y-157233571D01*
X93702142Y-157281190D01*
X93749761Y-157328809D01*
X93797380Y-157424047D01*
X93797380Y-157566904D01*
X93797380Y-156376428D02*
X93273571Y-156376428D01*
X93178333Y-156424047D01*
X93130714Y-156519285D01*
X93130714Y-156709761D01*
X93178333Y-156805000D01*
X93749761Y-156376428D02*
X93797380Y-156471666D01*
X93797380Y-156709761D01*
X93749761Y-156805000D01*
X93654523Y-156852619D01*
X93559285Y-156852619D01*
X93464047Y-156805000D01*
X93416428Y-156709761D01*
X93416428Y-156471666D01*
X93368809Y-156376428D01*
X93797380Y-155471666D02*
X92797380Y-155471666D01*
X93749761Y-155471666D02*
X93797380Y-155566904D01*
X93797380Y-155757380D01*
X93749761Y-155852619D01*
X93702142Y-155900238D01*
X93606904Y-155947857D01*
X93321190Y-155947857D01*
X93225952Y-155900238D01*
X93178333Y-155852619D01*
X93130714Y-155757380D01*
X93130714Y-155566904D01*
X93178333Y-155471666D01*
X93702142Y-153662142D02*
X93749761Y-153709761D01*
X93797380Y-153852619D01*
X93797380Y-153947857D01*
X93749761Y-154090714D01*
X93654523Y-154185952D01*
X93559285Y-154233571D01*
X93368809Y-154281190D01*
X93225952Y-154281190D01*
X93035476Y-154233571D01*
X92940238Y-154185952D01*
X92845000Y-154090714D01*
X92797380Y-153947857D01*
X92797380Y-153852619D01*
X92845000Y-153709761D01*
X92892619Y-153662142D01*
X93749761Y-152852619D02*
X93797380Y-152947857D01*
X93797380Y-153138333D01*
X93749761Y-153233571D01*
X93654523Y-153281190D01*
X93273571Y-153281190D01*
X93178333Y-153233571D01*
X93130714Y-153138333D01*
X93130714Y-152947857D01*
X93178333Y-152852619D01*
X93273571Y-152805000D01*
X93368809Y-152805000D01*
X93464047Y-153281190D01*
X93797380Y-152233571D02*
X93749761Y-152328809D01*
X93654523Y-152376428D01*
X92797380Y-152376428D01*
X93797380Y-151709761D02*
X93749761Y-151805000D01*
X93654523Y-151852619D01*
X92797380Y-151852619D01*
X93130714Y-150138333D02*
X93797380Y-150138333D01*
X92749761Y-150376428D02*
X93464047Y-150614523D01*
X93464047Y-149995476D01*
%TO.C,Load Cell Backup 1*%
X30655476Y-171267380D02*
X30179285Y-171267380D01*
X30179285Y-170267380D01*
X31131666Y-171267380D02*
X31036428Y-171219761D01*
X30988809Y-171172142D01*
X30941190Y-171076904D01*
X30941190Y-170791190D01*
X30988809Y-170695952D01*
X31036428Y-170648333D01*
X31131666Y-170600714D01*
X31274523Y-170600714D01*
X31369761Y-170648333D01*
X31417380Y-170695952D01*
X31465000Y-170791190D01*
X31465000Y-171076904D01*
X31417380Y-171172142D01*
X31369761Y-171219761D01*
X31274523Y-171267380D01*
X31131666Y-171267380D01*
X32322142Y-171267380D02*
X32322142Y-170743571D01*
X32274523Y-170648333D01*
X32179285Y-170600714D01*
X31988809Y-170600714D01*
X31893571Y-170648333D01*
X32322142Y-171219761D02*
X32226904Y-171267380D01*
X31988809Y-171267380D01*
X31893571Y-171219761D01*
X31845952Y-171124523D01*
X31845952Y-171029285D01*
X31893571Y-170934047D01*
X31988809Y-170886428D01*
X32226904Y-170886428D01*
X32322142Y-170838809D01*
X33226904Y-171267380D02*
X33226904Y-170267380D01*
X33226904Y-171219761D02*
X33131666Y-171267380D01*
X32941190Y-171267380D01*
X32845952Y-171219761D01*
X32798333Y-171172142D01*
X32750714Y-171076904D01*
X32750714Y-170791190D01*
X32798333Y-170695952D01*
X32845952Y-170648333D01*
X32941190Y-170600714D01*
X33131666Y-170600714D01*
X33226904Y-170648333D01*
X35036428Y-171172142D02*
X34988809Y-171219761D01*
X34845952Y-171267380D01*
X34750714Y-171267380D01*
X34607857Y-171219761D01*
X34512619Y-171124523D01*
X34465000Y-171029285D01*
X34417380Y-170838809D01*
X34417380Y-170695952D01*
X34465000Y-170505476D01*
X34512619Y-170410238D01*
X34607857Y-170315000D01*
X34750714Y-170267380D01*
X34845952Y-170267380D01*
X34988809Y-170315000D01*
X35036428Y-170362619D01*
X35845952Y-171219761D02*
X35750714Y-171267380D01*
X35560238Y-171267380D01*
X35465000Y-171219761D01*
X35417380Y-171124523D01*
X35417380Y-170743571D01*
X35465000Y-170648333D01*
X35560238Y-170600714D01*
X35750714Y-170600714D01*
X35845952Y-170648333D01*
X35893571Y-170743571D01*
X35893571Y-170838809D01*
X35417380Y-170934047D01*
X36465000Y-171267380D02*
X36369761Y-171219761D01*
X36322142Y-171124523D01*
X36322142Y-170267380D01*
X36988809Y-171267380D02*
X36893571Y-171219761D01*
X36845952Y-171124523D01*
X36845952Y-170267380D01*
X38465000Y-170743571D02*
X38607857Y-170791190D01*
X38655476Y-170838809D01*
X38703095Y-170934047D01*
X38703095Y-171076904D01*
X38655476Y-171172142D01*
X38607857Y-171219761D01*
X38512619Y-171267380D01*
X38131666Y-171267380D01*
X38131666Y-170267380D01*
X38465000Y-170267380D01*
X38560238Y-170315000D01*
X38607857Y-170362619D01*
X38655476Y-170457857D01*
X38655476Y-170553095D01*
X38607857Y-170648333D01*
X38560238Y-170695952D01*
X38465000Y-170743571D01*
X38131666Y-170743571D01*
X39560238Y-171267380D02*
X39560238Y-170743571D01*
X39512619Y-170648333D01*
X39417380Y-170600714D01*
X39226904Y-170600714D01*
X39131666Y-170648333D01*
X39560238Y-171219761D02*
X39465000Y-171267380D01*
X39226904Y-171267380D01*
X39131666Y-171219761D01*
X39084047Y-171124523D01*
X39084047Y-171029285D01*
X39131666Y-170934047D01*
X39226904Y-170886428D01*
X39465000Y-170886428D01*
X39560238Y-170838809D01*
X40465000Y-171219761D02*
X40369761Y-171267380D01*
X40179285Y-171267380D01*
X40084047Y-171219761D01*
X40036428Y-171172142D01*
X39988809Y-171076904D01*
X39988809Y-170791190D01*
X40036428Y-170695952D01*
X40084047Y-170648333D01*
X40179285Y-170600714D01*
X40369761Y-170600714D01*
X40465000Y-170648333D01*
X40893571Y-171267380D02*
X40893571Y-170267380D01*
X40988809Y-170886428D02*
X41274523Y-171267380D01*
X41274523Y-170600714D02*
X40893571Y-170981666D01*
X42131666Y-170600714D02*
X42131666Y-171267380D01*
X41703095Y-170600714D02*
X41703095Y-171124523D01*
X41750714Y-171219761D01*
X41845952Y-171267380D01*
X41988809Y-171267380D01*
X42084047Y-171219761D01*
X42131666Y-171172142D01*
X42607857Y-170600714D02*
X42607857Y-171600714D01*
X42607857Y-170648333D02*
X42703095Y-170600714D01*
X42893571Y-170600714D01*
X42988809Y-170648333D01*
X43036428Y-170695952D01*
X43084047Y-170791190D01*
X43084047Y-171076904D01*
X43036428Y-171172142D01*
X42988809Y-171219761D01*
X42893571Y-171267380D01*
X42703095Y-171267380D01*
X42607857Y-171219761D01*
X44798333Y-171267380D02*
X44226904Y-171267380D01*
X44512619Y-171267380D02*
X44512619Y-170267380D01*
X44417380Y-170410238D01*
X44322142Y-170505476D01*
X44226904Y-170553095D01*
%TO.C,Servo 1 Backup*%
X107719761Y-26105714D02*
X107767380Y-25962857D01*
X107767380Y-25724761D01*
X107719761Y-25629523D01*
X107672142Y-25581904D01*
X107576904Y-25534285D01*
X107481666Y-25534285D01*
X107386428Y-25581904D01*
X107338809Y-25629523D01*
X107291190Y-25724761D01*
X107243571Y-25915238D01*
X107195952Y-26010476D01*
X107148333Y-26058095D01*
X107053095Y-26105714D01*
X106957857Y-26105714D01*
X106862619Y-26058095D01*
X106815000Y-26010476D01*
X106767380Y-25915238D01*
X106767380Y-25677142D01*
X106815000Y-25534285D01*
X107719761Y-24724761D02*
X107767380Y-24820000D01*
X107767380Y-25010476D01*
X107719761Y-25105714D01*
X107624523Y-25153333D01*
X107243571Y-25153333D01*
X107148333Y-25105714D01*
X107100714Y-25010476D01*
X107100714Y-24820000D01*
X107148333Y-24724761D01*
X107243571Y-24677142D01*
X107338809Y-24677142D01*
X107434047Y-25153333D01*
X107767380Y-24248571D02*
X107100714Y-24248571D01*
X107291190Y-24248571D02*
X107195952Y-24200952D01*
X107148333Y-24153333D01*
X107100714Y-24058095D01*
X107100714Y-23962857D01*
X107100714Y-23724761D02*
X107767380Y-23486666D01*
X107100714Y-23248571D01*
X107767380Y-22724761D02*
X107719761Y-22820000D01*
X107672142Y-22867619D01*
X107576904Y-22915238D01*
X107291190Y-22915238D01*
X107195952Y-22867619D01*
X107148333Y-22820000D01*
X107100714Y-22724761D01*
X107100714Y-22581904D01*
X107148333Y-22486666D01*
X107195952Y-22439047D01*
X107291190Y-22391428D01*
X107576904Y-22391428D01*
X107672142Y-22439047D01*
X107719761Y-22486666D01*
X107767380Y-22581904D01*
X107767380Y-22724761D01*
X107767380Y-20677142D02*
X107767380Y-21248571D01*
X107767380Y-20962857D02*
X106767380Y-20962857D01*
X106910238Y-21058095D01*
X107005476Y-21153333D01*
X107053095Y-21248571D01*
X107243571Y-19153333D02*
X107291190Y-19010476D01*
X107338809Y-18962857D01*
X107434047Y-18915238D01*
X107576904Y-18915238D01*
X107672142Y-18962857D01*
X107719761Y-19010476D01*
X107767380Y-19105714D01*
X107767380Y-19486666D01*
X106767380Y-19486666D01*
X106767380Y-19153333D01*
X106815000Y-19058095D01*
X106862619Y-19010476D01*
X106957857Y-18962857D01*
X107053095Y-18962857D01*
X107148333Y-19010476D01*
X107195952Y-19058095D01*
X107243571Y-19153333D01*
X107243571Y-19486666D01*
X107767380Y-18058095D02*
X107243571Y-18058095D01*
X107148333Y-18105714D01*
X107100714Y-18200952D01*
X107100714Y-18391428D01*
X107148333Y-18486666D01*
X107719761Y-18058095D02*
X107767380Y-18153333D01*
X107767380Y-18391428D01*
X107719761Y-18486666D01*
X107624523Y-18534285D01*
X107529285Y-18534285D01*
X107434047Y-18486666D01*
X107386428Y-18391428D01*
X107386428Y-18153333D01*
X107338809Y-18058095D01*
X107719761Y-17153333D02*
X107767380Y-17248571D01*
X107767380Y-17439047D01*
X107719761Y-17534285D01*
X107672142Y-17581904D01*
X107576904Y-17629523D01*
X107291190Y-17629523D01*
X107195952Y-17581904D01*
X107148333Y-17534285D01*
X107100714Y-17439047D01*
X107100714Y-17248571D01*
X107148333Y-17153333D01*
X107767380Y-16724761D02*
X106767380Y-16724761D01*
X107386428Y-16629523D02*
X107767380Y-16343809D01*
X107100714Y-16343809D02*
X107481666Y-16724761D01*
X107100714Y-15486666D02*
X107767380Y-15486666D01*
X107100714Y-15915238D02*
X107624523Y-15915238D01*
X107719761Y-15867619D01*
X107767380Y-15772380D01*
X107767380Y-15629523D01*
X107719761Y-15534285D01*
X107672142Y-15486666D01*
X107100714Y-15010476D02*
X108100714Y-15010476D01*
X107148333Y-15010476D02*
X107100714Y-14915238D01*
X107100714Y-14724761D01*
X107148333Y-14629523D01*
X107195952Y-14581904D01*
X107291190Y-14534285D01*
X107576904Y-14534285D01*
X107672142Y-14581904D01*
X107719761Y-14629523D01*
X107767380Y-14724761D01*
X107767380Y-14915238D01*
X107719761Y-15010476D01*
D11*
%TO.C,HX711 Breakout 6*%
X73025000Y-114300000D02*
X111125000Y-114300000D01*
X111125000Y-114300000D02*
X111125000Y-137160000D01*
X111125000Y-137160000D02*
X73025000Y-137160000D01*
X73025000Y-137160000D02*
X73025000Y-114300000D01*
%TO.C,R15*%
X133075000Y-145130436D02*
X133075000Y-146584564D01*
X134895000Y-145130436D02*
X134895000Y-146584564D01*
%TO.C,Servo 1 *%
X116955000Y-36740000D02*
X118755000Y-36740000D01*
X116955000Y-35990000D02*
X116955000Y-36740000D01*
X108645000Y-36750000D02*
X118765000Y-36750000D01*
X115455000Y-36740000D02*
X115455000Y-35990000D01*
X108645000Y-30780000D02*
X108645000Y-36750000D01*
X108655000Y-34490000D02*
X109405000Y-34490000D01*
X115455000Y-35990000D02*
X111955000Y-35990000D01*
X108655000Y-35990000D02*
X108655000Y-36740000D01*
X113705000Y-31540000D02*
X116945000Y-31540000D01*
X110455000Y-35990000D02*
X108655000Y-35990000D01*
X118765000Y-36750000D02*
X118765000Y-30780000D01*
X111955000Y-36740000D02*
X115455000Y-36740000D01*
X109405000Y-31540000D02*
X113705000Y-31540000D01*
X119055000Y-37040000D02*
X119055000Y-35790000D01*
X118755000Y-36740000D02*
X118755000Y-35990000D01*
X118755000Y-34490000D02*
X118005000Y-34490000D01*
X109405000Y-34490000D02*
X109405000Y-31540000D01*
X110455000Y-36740000D02*
X110455000Y-35990000D01*
X118005000Y-34490000D02*
X118005000Y-33150000D01*
X108655000Y-36740000D02*
X110455000Y-36740000D01*
X118765000Y-30780000D02*
X108645000Y-30780000D01*
X117805000Y-37040000D02*
X119055000Y-37040000D01*
X118755000Y-35990000D02*
X116955000Y-35990000D01*
X111955000Y-35990000D02*
X111955000Y-36740000D01*
%TO.C,Load Cell 8*%
X183550000Y-151955000D02*
X183550000Y-157925000D01*
X185360000Y-151965000D02*
X183560000Y-151965000D01*
X189860000Y-157165000D02*
X185370000Y-157165000D01*
X183260000Y-151665000D02*
X183260000Y-152915000D01*
X196170000Y-157925000D02*
X196170000Y-151955000D01*
X186860000Y-151965000D02*
X186860000Y-152715000D01*
X184310000Y-154215000D02*
X184310000Y-155555000D01*
X196170000Y-151955000D02*
X183550000Y-151955000D01*
X183550000Y-157925000D02*
X196170000Y-157925000D01*
X196160000Y-154215000D02*
X195410000Y-154215000D01*
X185360000Y-152715000D02*
X185360000Y-151965000D01*
X183560000Y-154215000D02*
X184310000Y-154215000D01*
X183560000Y-152715000D02*
X185360000Y-152715000D01*
X196160000Y-151965000D02*
X194360000Y-151965000D01*
X196160000Y-152715000D02*
X196160000Y-151965000D01*
X184510000Y-151665000D02*
X183260000Y-151665000D01*
X194360000Y-151965000D02*
X194360000Y-152715000D01*
X195410000Y-157165000D02*
X189860000Y-157165000D01*
X183560000Y-151965000D02*
X183560000Y-152715000D01*
X194360000Y-152715000D02*
X196160000Y-152715000D01*
X192860000Y-152715000D02*
X192860000Y-151965000D01*
X195410000Y-154215000D02*
X195410000Y-157165000D01*
X192860000Y-151965000D02*
X186860000Y-151965000D01*
X186860000Y-152715000D02*
X192860000Y-152715000D01*
%TO.C,Load Cell Backup 2*%
X52410000Y-167700000D02*
X63150000Y-167700000D01*
X52410000Y-168260000D02*
X63150000Y-168260000D01*
X52410000Y-162400000D02*
X63150000Y-162400000D01*
X52410000Y-161940000D02*
X52410000Y-168260000D01*
X52170000Y-167760000D02*
X52170000Y-168500000D01*
X63150000Y-161940000D02*
X63150000Y-168260000D01*
X52410000Y-161940000D02*
X63150000Y-161940000D01*
X52170000Y-168500000D02*
X52670000Y-168500000D01*
%TO.C,HX711 Breakout 4*%
X174625000Y-86360000D02*
X212725000Y-86360000D01*
X212725000Y-86360000D02*
X212725000Y-109220000D01*
X212725000Y-109220000D02*
X174625000Y-109220000D01*
X174625000Y-109220000D02*
X174625000Y-86360000D01*
%TO.C,HX711 Breakout 1*%
X23495000Y-80645000D02*
X61595000Y-80645000D01*
X61595000Y-80645000D02*
X61595000Y-103505000D01*
X61595000Y-103505000D02*
X23495000Y-103505000D01*
X23495000Y-103505000D02*
X23495000Y-80645000D01*
%TO.C,Battery*%
X187235000Y-27825000D02*
X187235000Y-26825000D01*
X187235000Y-29325000D02*
X186485000Y-29325000D01*
X187535000Y-23225000D02*
X186285000Y-23225000D01*
X187235000Y-25325000D02*
X187235000Y-23525000D01*
X187245000Y-23515000D02*
X181275000Y-23515000D01*
X182035000Y-27325000D02*
X182035000Y-25335000D01*
X181275000Y-31135000D02*
X187245000Y-31135000D01*
X187235000Y-23525000D02*
X186485000Y-23525000D01*
X186485000Y-26825000D02*
X186485000Y-27825000D01*
X187245000Y-31135000D02*
X187245000Y-23515000D01*
X184985000Y-24275000D02*
X183645000Y-24275000D01*
X184985000Y-23525000D02*
X184985000Y-24275000D01*
X186485000Y-25325000D02*
X187235000Y-25325000D01*
X184985000Y-31125000D02*
X184985000Y-30375000D01*
X186485000Y-23525000D02*
X186485000Y-25325000D01*
X184985000Y-30375000D02*
X182035000Y-30375000D01*
X186485000Y-27825000D02*
X187235000Y-27825000D01*
X187235000Y-31125000D02*
X187235000Y-29325000D01*
X186485000Y-29325000D02*
X186485000Y-31125000D01*
X182035000Y-30375000D02*
X182035000Y-27325000D01*
X187235000Y-26825000D02*
X186485000Y-26825000D01*
X186485000Y-31125000D02*
X187235000Y-31125000D01*
X181275000Y-23515000D02*
X181275000Y-31135000D01*
X187535000Y-24475000D02*
X187535000Y-23225000D01*
%TO.C,R4*%
X92435000Y-144052936D02*
X92435000Y-145507064D01*
X94255000Y-144052936D02*
X94255000Y-145507064D01*
%TO.C,Load Cell Backup 6*%
X118517983Y-162319965D02*
X129257983Y-162319965D01*
X118277983Y-167679965D02*
X118277983Y-168419965D01*
X118517983Y-161859965D02*
X118517983Y-168179965D01*
X118517983Y-168179965D02*
X129257983Y-168179965D01*
X118277983Y-168419965D02*
X118777983Y-168419965D01*
X118517983Y-167619965D02*
X129257983Y-167619965D01*
X129257983Y-161859965D02*
X129257983Y-168179965D01*
X118517983Y-161859965D02*
X129257983Y-161859965D01*
%TO.C,R17*%
X67206168Y-144402362D02*
X67206168Y-145856490D01*
X65386168Y-144402362D02*
X65386168Y-145856490D01*
%TO.C,Load Cell 2*%
X51160000Y-152190000D02*
X51160000Y-153440000D01*
X62260000Y-152490000D02*
X62260000Y-153240000D01*
X53260000Y-153240000D02*
X53260000Y-152490000D01*
X51450000Y-158450000D02*
X64070000Y-158450000D01*
X51450000Y-152480000D02*
X51450000Y-158450000D01*
X52210000Y-154740000D02*
X52210000Y-156080000D01*
X57760000Y-157690000D02*
X53270000Y-157690000D01*
X54760000Y-152490000D02*
X54760000Y-153240000D01*
X64060000Y-152490000D02*
X62260000Y-152490000D01*
X51460000Y-154740000D02*
X52210000Y-154740000D01*
X60760000Y-153240000D02*
X60760000Y-152490000D01*
X54760000Y-153240000D02*
X60760000Y-153240000D01*
X60760000Y-152490000D02*
X54760000Y-152490000D01*
X62260000Y-153240000D02*
X64060000Y-153240000D01*
X51460000Y-152490000D02*
X51460000Y-153240000D01*
X52410000Y-152190000D02*
X51160000Y-152190000D01*
X51460000Y-153240000D02*
X53260000Y-153240000D01*
X64060000Y-153240000D02*
X64060000Y-152490000D01*
X63310000Y-154740000D02*
X63310000Y-157690000D01*
X64070000Y-158450000D02*
X64070000Y-152480000D01*
X64060000Y-154740000D02*
X63310000Y-154740000D01*
X64070000Y-152480000D02*
X51450000Y-152480000D01*
X53260000Y-152490000D02*
X51460000Y-152490000D01*
X63310000Y-157690000D02*
X57760000Y-157690000D01*
D12*
%TO.C,ESP32*%
X149705000Y-73640000D02*
X95305000Y-73640000D01*
X95305000Y-45740000D02*
X149705000Y-45740000D01*
X95305000Y-73640000D02*
X95305000Y-45740000D01*
X149705000Y-45740000D02*
X149705000Y-73640000D01*
D11*
%TO.C,R1*%
X29940000Y-145507064D02*
X29940000Y-144052936D01*
X31760000Y-145507064D02*
X31760000Y-144052936D01*
%TO.C,HX711 Breakout 2*%
X73025000Y-86360000D02*
X111125000Y-86360000D01*
X111125000Y-86360000D02*
X111125000Y-109220000D01*
X111125000Y-109220000D02*
X73025000Y-109220000D01*
X73025000Y-109220000D02*
X73025000Y-86360000D01*
%TO.C,R12*%
X187233986Y-146866726D02*
X187233986Y-145412598D01*
X185413986Y-146866726D02*
X185413986Y-145412598D01*
%TO.C,Flow Meter *%
X75085000Y-38530000D02*
X75085000Y-39280000D01*
X72535000Y-34080000D02*
X76835000Y-34080000D01*
X81885000Y-39280000D02*
X81885000Y-38530000D01*
X78585000Y-38530000D02*
X75085000Y-38530000D01*
X80085000Y-39280000D02*
X81885000Y-39280000D01*
X78585000Y-39280000D02*
X78585000Y-38530000D01*
X80085000Y-38530000D02*
X80085000Y-39280000D01*
X71785000Y-37030000D02*
X72535000Y-37030000D01*
X81895000Y-39290000D02*
X81895000Y-33320000D01*
X71775000Y-39290000D02*
X81895000Y-39290000D01*
X82185000Y-39580000D02*
X82185000Y-38330000D01*
X71785000Y-39280000D02*
X73585000Y-39280000D01*
X80935000Y-39580000D02*
X82185000Y-39580000D01*
X81135000Y-37030000D02*
X81135000Y-35690000D01*
X76835000Y-34080000D02*
X80075000Y-34080000D01*
X71775000Y-33320000D02*
X71775000Y-39290000D01*
X81885000Y-37030000D02*
X81135000Y-37030000D01*
X72535000Y-37030000D02*
X72535000Y-34080000D01*
X81885000Y-38530000D02*
X80085000Y-38530000D01*
X71785000Y-38530000D02*
X71785000Y-39280000D01*
X75085000Y-39280000D02*
X78585000Y-39280000D01*
X81895000Y-33320000D02*
X71775000Y-33320000D01*
X73585000Y-39280000D02*
X73585000Y-38530000D01*
X73585000Y-38530000D02*
X71785000Y-38530000D01*
%TO.C,R3*%
X97515000Y-145507064D02*
X97515000Y-144052936D01*
X99335000Y-145507064D02*
X99335000Y-144052936D01*
%TO.C,HX711 Breakout 3*%
X123190000Y-86360000D02*
X161290000Y-86360000D01*
X161290000Y-86360000D02*
X161290000Y-109220000D01*
X161290000Y-109220000D02*
X123190000Y-109220000D01*
X123190000Y-109220000D02*
X123190000Y-86360000D01*
%TO.C,R9*%
X67035000Y-52420436D02*
X67035000Y-53874564D01*
X68855000Y-52420436D02*
X68855000Y-53874564D01*
%TO.C,HX711 Breakout 8*%
X174625000Y-114300000D02*
X212725000Y-114300000D01*
X212725000Y-114300000D02*
X212725000Y-137160000D01*
X212725000Y-137160000D02*
X174625000Y-137160000D01*
X174625000Y-137160000D02*
X174625000Y-114300000D01*
%TO.C,R5*%
X164120890Y-146687401D02*
X164120890Y-145233273D01*
X162300890Y-146687401D02*
X162300890Y-145233273D01*
%TO.C,Servo 2 *%
X137765000Y-35015000D02*
X137015000Y-35015000D01*
X136815000Y-37565000D02*
X138065000Y-37565000D01*
X127665000Y-36515000D02*
X127665000Y-37265000D01*
X129465000Y-37265000D02*
X129465000Y-36515000D01*
X137775000Y-31305000D02*
X127655000Y-31305000D01*
X137775000Y-37275000D02*
X137775000Y-31305000D01*
X130965000Y-36515000D02*
X130965000Y-37265000D01*
X137765000Y-36515000D02*
X135965000Y-36515000D01*
X129465000Y-36515000D02*
X127665000Y-36515000D01*
X134465000Y-36515000D02*
X130965000Y-36515000D01*
X137015000Y-35015000D02*
X137015000Y-33675000D01*
X130965000Y-37265000D02*
X134465000Y-37265000D01*
X128415000Y-32065000D02*
X132715000Y-32065000D01*
X135965000Y-36515000D02*
X135965000Y-37265000D01*
X137765000Y-37265000D02*
X137765000Y-36515000D01*
X128415000Y-35015000D02*
X128415000Y-32065000D01*
X127665000Y-35015000D02*
X128415000Y-35015000D01*
X132715000Y-32065000D02*
X135955000Y-32065000D01*
X138065000Y-37565000D02*
X138065000Y-36315000D01*
X135965000Y-37265000D02*
X137765000Y-37265000D01*
X127665000Y-37265000D02*
X129465000Y-37265000D01*
X127655000Y-31305000D02*
X127655000Y-37275000D01*
X134465000Y-37265000D02*
X134465000Y-36515000D01*
X127655000Y-37275000D02*
X137775000Y-37275000D01*
%TO.C,Load Cell 7*%
X164015000Y-151820536D02*
X164015000Y-152570536D01*
X160715000Y-154070536D02*
X161465000Y-154070536D01*
X161665000Y-151520536D02*
X160415000Y-151520536D01*
X170015000Y-151820536D02*
X164015000Y-151820536D01*
X173325000Y-151810536D02*
X160705000Y-151810536D01*
X162515000Y-151820536D02*
X160715000Y-151820536D01*
X171515000Y-152570536D02*
X173315000Y-152570536D01*
X172565000Y-154070536D02*
X172565000Y-157020536D01*
X160415000Y-151520536D02*
X160415000Y-152770536D01*
X160715000Y-151820536D02*
X160715000Y-152570536D01*
X172565000Y-157020536D02*
X167015000Y-157020536D01*
X173315000Y-151820536D02*
X171515000Y-151820536D01*
X160705000Y-157780536D02*
X173325000Y-157780536D01*
X160715000Y-152570536D02*
X162515000Y-152570536D01*
X160705000Y-151810536D02*
X160705000Y-157780536D01*
X170015000Y-152570536D02*
X170015000Y-151820536D01*
X161465000Y-154070536D02*
X161465000Y-155410536D01*
X167015000Y-157020536D02*
X162525000Y-157020536D01*
X173315000Y-152570536D02*
X173315000Y-151820536D01*
X173325000Y-157780536D02*
X173325000Y-151810536D01*
X171515000Y-151820536D02*
X171515000Y-152570536D01*
X173315000Y-154070536D02*
X172565000Y-154070536D01*
X162515000Y-152570536D02*
X162515000Y-151820536D01*
X164015000Y-152570536D02*
X170015000Y-152570536D01*
%TO.C,R10*%
X51075000Y-145507064D02*
X51075000Y-144052936D01*
X49255000Y-145507064D02*
X49255000Y-144052936D01*
%TO.C,Load Cell Backup 8*%
X161625000Y-162400000D02*
X172365000Y-162400000D01*
X161625000Y-167700000D02*
X172365000Y-167700000D01*
X161385000Y-168500000D02*
X161885000Y-168500000D01*
X161625000Y-161940000D02*
X172365000Y-161940000D01*
X172365000Y-161940000D02*
X172365000Y-168260000D01*
X161625000Y-168260000D02*
X172365000Y-168260000D01*
X161625000Y-161940000D02*
X161625000Y-168260000D01*
X161385000Y-167760000D02*
X161385000Y-168500000D01*
%TO.C,R14*%
X138118114Y-146690117D02*
X138118114Y-145235989D01*
X139938114Y-146690117D02*
X139938114Y-145235989D01*
%TO.C,HX711 Breakout 7*%
X123825000Y-114300000D02*
X161925000Y-114300000D01*
X161925000Y-114300000D02*
X161925000Y-137160000D01*
X161925000Y-137160000D02*
X123825000Y-137160000D01*
X123825000Y-137160000D02*
X123825000Y-114300000D01*
%TO.C,Igniter 1 Backup*%
X153555000Y-18990000D02*
X152595000Y-18990000D01*
X155905000Y-18430000D02*
X155135000Y-18430000D01*
X155905000Y-24750000D02*
X155905000Y-18430000D01*
X151015000Y-18990000D02*
X150245000Y-18990000D01*
X150245000Y-24750000D02*
X150245000Y-18430000D01*
X156145000Y-18190000D02*
X155645000Y-18190000D01*
X156145000Y-18930000D02*
X156145000Y-18190000D01*
X153555000Y-18430000D02*
X152595000Y-18430000D01*
X155905000Y-24290000D02*
X150245000Y-24290000D01*
X155905000Y-18990000D02*
X155135000Y-18990000D01*
X155905000Y-24750000D02*
X150245000Y-24750000D01*
X151015000Y-18430000D02*
X150245000Y-18430000D01*
%TO.C,Igniter 2 Backup*%
X165965000Y-18450000D02*
X165005000Y-18450000D01*
X165965000Y-17890000D02*
X165005000Y-17890000D01*
X168315000Y-18450000D02*
X167545000Y-18450000D01*
X168555000Y-17650000D02*
X168055000Y-17650000D01*
X163425000Y-18450000D02*
X162655000Y-18450000D01*
X162655000Y-24210000D02*
X162655000Y-17890000D01*
X163425000Y-17890000D02*
X162655000Y-17890000D01*
X168315000Y-23750000D02*
X162655000Y-23750000D01*
X168315000Y-24210000D02*
X162655000Y-24210000D01*
X168555000Y-18390000D02*
X168555000Y-17650000D01*
X168315000Y-17890000D02*
X167545000Y-17890000D01*
X168315000Y-24210000D02*
X168315000Y-17890000D01*
%TO.C,Load Cell 3*%
X76370000Y-152715000D02*
X82370000Y-152715000D01*
X76370000Y-151965000D02*
X76370000Y-152715000D01*
X73070000Y-154215000D02*
X73820000Y-154215000D01*
X82370000Y-151965000D02*
X76370000Y-151965000D01*
X72770000Y-151665000D02*
X72770000Y-152915000D01*
X83870000Y-151965000D02*
X83870000Y-152715000D01*
X74870000Y-151965000D02*
X73070000Y-151965000D01*
X85670000Y-154215000D02*
X84920000Y-154215000D01*
X82370000Y-152715000D02*
X82370000Y-151965000D01*
X73060000Y-151955000D02*
X73060000Y-157925000D01*
X84920000Y-154215000D02*
X84920000Y-157165000D01*
X74020000Y-151665000D02*
X72770000Y-151665000D01*
X73820000Y-154215000D02*
X73820000Y-155555000D01*
X85680000Y-157925000D02*
X85680000Y-151955000D01*
X73060000Y-157925000D02*
X85680000Y-157925000D01*
X85670000Y-152715000D02*
X85670000Y-151965000D01*
X85680000Y-151955000D02*
X73060000Y-151955000D01*
X73070000Y-151965000D02*
X73070000Y-152715000D01*
X74870000Y-152715000D02*
X74870000Y-151965000D01*
X85670000Y-151965000D02*
X83870000Y-151965000D01*
X79370000Y-157165000D02*
X74880000Y-157165000D01*
X73070000Y-152715000D02*
X74870000Y-152715000D01*
X83870000Y-152715000D02*
X85670000Y-152715000D01*
X84920000Y-157165000D02*
X79370000Y-157165000D01*
%TO.C,Load Cell Backup 3*%
X73865656Y-167425581D02*
X73865656Y-168165581D01*
X74105656Y-161605581D02*
X74105656Y-167925581D01*
X74105656Y-167925581D02*
X84845656Y-167925581D01*
X84845656Y-161605581D02*
X84845656Y-167925581D01*
X74105656Y-162065581D02*
X84845656Y-162065581D01*
X73865656Y-168165581D02*
X74365656Y-168165581D01*
X74105656Y-161605581D02*
X84845656Y-161605581D01*
X74105656Y-167365581D02*
X84845656Y-167365581D01*
%TO.C,Load Cell Backup 4*%
X96865000Y-162400000D02*
X107605000Y-162400000D01*
X96625000Y-167760000D02*
X96625000Y-168500000D01*
X96865000Y-161940000D02*
X96865000Y-168260000D01*
X96865000Y-168260000D02*
X107605000Y-168260000D01*
X96865000Y-167700000D02*
X107605000Y-167700000D01*
X96625000Y-168500000D02*
X97125000Y-168500000D01*
X107605000Y-161940000D02*
X107605000Y-168260000D01*
X96865000Y-161940000D02*
X107605000Y-161940000D01*
%TO.C,Igniter 2 *%
X167755000Y-33450000D02*
X167755000Y-34200000D01*
X166255000Y-34200000D02*
X166255000Y-33450000D01*
X168805000Y-31950000D02*
X168805000Y-30610000D01*
X161955000Y-34200000D02*
X163755000Y-34200000D01*
X161945000Y-34210000D02*
X169565000Y-34210000D01*
X165255000Y-34200000D02*
X166255000Y-34200000D01*
X163755000Y-34200000D02*
X163755000Y-33450000D01*
X167755000Y-34200000D02*
X169555000Y-34200000D01*
X169555000Y-34200000D02*
X169555000Y-33450000D01*
X166255000Y-33450000D02*
X165255000Y-33450000D01*
X168605000Y-34500000D02*
X169855000Y-34500000D01*
X165755000Y-29000000D02*
X167745000Y-29000000D01*
X161955000Y-33450000D02*
X161955000Y-34200000D01*
X163755000Y-33450000D02*
X161955000Y-33450000D01*
X161955000Y-31950000D02*
X162705000Y-31950000D01*
X162705000Y-31950000D02*
X162705000Y-29000000D01*
X169855000Y-34500000D02*
X169855000Y-33250000D01*
X169555000Y-31950000D02*
X168805000Y-31950000D01*
X165255000Y-33450000D02*
X165255000Y-34200000D01*
X162705000Y-29000000D02*
X165755000Y-29000000D01*
X169565000Y-28240000D02*
X161945000Y-28240000D01*
X169555000Y-33450000D02*
X167755000Y-33450000D01*
X161945000Y-28240000D02*
X161945000Y-34210000D01*
X169565000Y-34210000D02*
X169565000Y-28240000D01*
%TO.C,R16*%
X73935000Y-145856490D02*
X73935000Y-144402362D01*
X72115000Y-145856490D02*
X72115000Y-144402362D01*
%TO.C,R6*%
X156657400Y-145196388D02*
X156657400Y-146650516D01*
X158477400Y-145196388D02*
X158477400Y-146650516D01*
%TO.C,Load Cell Backup 9*%
X184485000Y-167700000D02*
X195225000Y-167700000D01*
X195225000Y-161940000D02*
X195225000Y-168260000D01*
X184485000Y-168260000D02*
X195225000Y-168260000D01*
X184245000Y-167760000D02*
X184245000Y-168500000D01*
X184485000Y-161940000D02*
X195225000Y-161940000D01*
X184485000Y-162400000D02*
X195225000Y-162400000D01*
X184485000Y-161940000D02*
X184485000Y-168260000D01*
X184245000Y-168500000D02*
X184745000Y-168500000D01*
%TO.C,R2*%
X23855000Y-144052936D02*
X23855000Y-145507064D01*
X25675000Y-144052936D02*
X25675000Y-145507064D01*
%TO.C,Load Cell 5*%
X129375000Y-154215000D02*
X129375000Y-157165000D01*
X118475000Y-151665000D02*
X117225000Y-151665000D01*
X126825000Y-151965000D02*
X120825000Y-151965000D01*
X130135000Y-151955000D02*
X117515000Y-151955000D01*
X117525000Y-152715000D02*
X119325000Y-152715000D01*
X117525000Y-154215000D02*
X118275000Y-154215000D01*
X117515000Y-157925000D02*
X130135000Y-157925000D01*
X128325000Y-152715000D02*
X130125000Y-152715000D01*
X128325000Y-151965000D02*
X128325000Y-152715000D01*
X126825000Y-152715000D02*
X126825000Y-151965000D01*
X130125000Y-154215000D02*
X129375000Y-154215000D01*
X123825000Y-157165000D02*
X119335000Y-157165000D01*
X130135000Y-157925000D02*
X130135000Y-151955000D01*
X130125000Y-151965000D02*
X128325000Y-151965000D01*
X118275000Y-154215000D02*
X118275000Y-155555000D01*
X117515000Y-151955000D02*
X117515000Y-157925000D01*
X129375000Y-157165000D02*
X123825000Y-157165000D01*
X117525000Y-151965000D02*
X117525000Y-152715000D01*
X119325000Y-152715000D02*
X119325000Y-151965000D01*
X120825000Y-152715000D02*
X126825000Y-152715000D01*
X130125000Y-152715000D02*
X130125000Y-151965000D01*
X119325000Y-151965000D02*
X117525000Y-151965000D01*
X117225000Y-151665000D02*
X117225000Y-152915000D01*
X120825000Y-151965000D02*
X120825000Y-152715000D01*
%TO.C,Relay Board*%
X215265000Y-74930000D02*
X164465000Y-74930000D01*
X164465000Y-74930000D02*
X164465000Y-36830000D01*
X164465000Y-36830000D02*
X215265000Y-36830000D01*
X215265000Y-36830000D02*
X215265000Y-74930000D01*
%TO.C,Igniter 1 *%
X151095000Y-34720000D02*
X149295000Y-34720000D01*
X153595000Y-35470000D02*
X153595000Y-34720000D01*
X152595000Y-34720000D02*
X152595000Y-35470000D01*
X153095000Y-30270000D02*
X155085000Y-30270000D01*
X149285000Y-35480000D02*
X156905000Y-35480000D01*
X156905000Y-35480000D02*
X156905000Y-29510000D01*
X150045000Y-30270000D02*
X153095000Y-30270000D01*
X156895000Y-35470000D02*
X156895000Y-34720000D01*
X149285000Y-29510000D02*
X149285000Y-35480000D01*
X157195000Y-35770000D02*
X157195000Y-34520000D01*
X151095000Y-35470000D02*
X151095000Y-34720000D01*
X150045000Y-33220000D02*
X150045000Y-30270000D01*
X155095000Y-35470000D02*
X156895000Y-35470000D01*
X149295000Y-35470000D02*
X151095000Y-35470000D01*
X155945000Y-35770000D02*
X157195000Y-35770000D01*
X149295000Y-33220000D02*
X150045000Y-33220000D01*
X156905000Y-29510000D02*
X149285000Y-29510000D01*
X153595000Y-34720000D02*
X152595000Y-34720000D01*
X152595000Y-35470000D02*
X153595000Y-35470000D01*
X156145000Y-33220000D02*
X156145000Y-31880000D01*
X156895000Y-33220000D02*
X156145000Y-33220000D01*
X149295000Y-34720000D02*
X149295000Y-35470000D01*
X155095000Y-34720000D02*
X155095000Y-35470000D01*
X156895000Y-34720000D02*
X155095000Y-34720000D01*
%TO.C,R8*%
X115390658Y-145321428D02*
X115390658Y-146775556D01*
X113570658Y-145321428D02*
X113570658Y-146775556D01*
%TO.C,R7*%
X119054311Y-146960611D02*
X119054311Y-145506483D01*
X120874311Y-146960611D02*
X120874311Y-145506483D01*
%TO.C,Flow Meter Backup*%
X59535000Y-33670000D02*
X58575000Y-33670000D01*
X61885000Y-34230000D02*
X61115000Y-34230000D01*
X61885000Y-33670000D02*
X61115000Y-33670000D01*
X61885000Y-39990000D02*
X61885000Y-33670000D01*
X56995000Y-33670000D02*
X56035000Y-33670000D01*
X62125000Y-33430000D02*
X61625000Y-33430000D01*
X53685000Y-39990000D02*
X53685000Y-33670000D01*
X59535000Y-34230000D02*
X58575000Y-34230000D01*
X56995000Y-34230000D02*
X56035000Y-34230000D01*
X54455000Y-33670000D02*
X53685000Y-33670000D01*
X54455000Y-34230000D02*
X53685000Y-34230000D01*
X61885000Y-39990000D02*
X53685000Y-39990000D01*
X61885000Y-39530000D02*
X53685000Y-39530000D01*
X62125000Y-34170000D02*
X62125000Y-33430000D01*
%TO.C,HX711 Breakout 5*%
X23495000Y-106680000D02*
X61595000Y-106680000D01*
X61595000Y-106680000D02*
X61595000Y-129540000D01*
X61595000Y-129540000D02*
X23495000Y-129540000D01*
X23495000Y-129540000D02*
X23495000Y-106680000D01*
%TO.C,Servo 2 Backup*%
X134465000Y-15890000D02*
X133505000Y-15890000D01*
X136815000Y-16450000D02*
X136045000Y-16450000D01*
X129385000Y-16450000D02*
X128615000Y-16450000D01*
X134465000Y-16450000D02*
X133505000Y-16450000D01*
X131925000Y-16450000D02*
X130965000Y-16450000D01*
X128615000Y-22210000D02*
X128615000Y-15890000D01*
X136815000Y-15890000D02*
X136045000Y-15890000D01*
X136815000Y-22210000D02*
X136815000Y-15890000D01*
X131925000Y-15890000D02*
X130965000Y-15890000D01*
X137055000Y-15650000D02*
X136555000Y-15650000D01*
X129385000Y-15890000D02*
X128615000Y-15890000D01*
X136815000Y-21750000D02*
X128615000Y-21750000D01*
X137055000Y-16390000D02*
X137055000Y-15650000D01*
X136815000Y-22210000D02*
X128615000Y-22210000D01*
%TO.C,R13*%
X45995000Y-144052936D02*
X45995000Y-145507064D01*
X44175000Y-144052936D02*
X44175000Y-145507064D01*
%TO.C,SD Card Reader*%
X26035000Y-49530000D02*
X61595000Y-49530000D01*
X61595000Y-49530000D02*
X61595000Y-77470000D01*
X61595000Y-77470000D02*
X26035000Y-77470000D01*
X26035000Y-77470000D02*
X26035000Y-49530000D01*
%TO.C,Load Cell 6*%
X150970000Y-154215000D02*
X150970000Y-157165000D01*
X139120000Y-151965000D02*
X139120000Y-152715000D01*
X139870000Y-154215000D02*
X139870000Y-155555000D01*
X148420000Y-152715000D02*
X148420000Y-151965000D01*
X140070000Y-151665000D02*
X138820000Y-151665000D01*
X151720000Y-151965000D02*
X149920000Y-151965000D01*
X140920000Y-152715000D02*
X140920000Y-151965000D01*
X145420000Y-157165000D02*
X140930000Y-157165000D01*
X139110000Y-151955000D02*
X139110000Y-157925000D01*
X142420000Y-152715000D02*
X148420000Y-152715000D01*
X148420000Y-151965000D02*
X142420000Y-151965000D01*
X149920000Y-152715000D02*
X151720000Y-152715000D01*
X151730000Y-151955000D02*
X139110000Y-151955000D01*
X138820000Y-151665000D02*
X138820000Y-152915000D01*
X142420000Y-151965000D02*
X142420000Y-152715000D01*
X149920000Y-151965000D02*
X149920000Y-152715000D01*
X139120000Y-152715000D02*
X140920000Y-152715000D01*
X139110000Y-157925000D02*
X151730000Y-157925000D01*
X151730000Y-157925000D02*
X151730000Y-151955000D01*
X140920000Y-151965000D02*
X139120000Y-151965000D01*
X151720000Y-152715000D02*
X151720000Y-151965000D01*
X139120000Y-154215000D02*
X139870000Y-154215000D01*
X151720000Y-154215000D02*
X150970000Y-154215000D01*
X150970000Y-157165000D02*
X145420000Y-157165000D01*
%TO.C,Load Cell Backup 7*%
X140045000Y-161940000D02*
X150785000Y-161940000D01*
X139805000Y-168500000D02*
X140305000Y-168500000D01*
X140045000Y-167700000D02*
X150785000Y-167700000D01*
X139805000Y-167760000D02*
X139805000Y-168500000D01*
X140045000Y-162400000D02*
X150785000Y-162400000D01*
X150785000Y-161940000D02*
X150785000Y-168260000D01*
X140045000Y-161940000D02*
X140045000Y-168260000D01*
X140045000Y-168260000D02*
X150785000Y-168260000D01*
%TO.C,R11*%
X179659838Y-145449483D02*
X179659838Y-146903611D01*
X181479838Y-145449483D02*
X181479838Y-146903611D01*
%TO.C,Load Cell 1*%
X31165000Y-152715000D02*
X32965000Y-152715000D01*
X43015000Y-157165000D02*
X37465000Y-157165000D01*
X40465000Y-151965000D02*
X34465000Y-151965000D01*
X41965000Y-152715000D02*
X43765000Y-152715000D01*
X31915000Y-154215000D02*
X31915000Y-155555000D01*
X31165000Y-151965000D02*
X31165000Y-152715000D01*
X37465000Y-157165000D02*
X32975000Y-157165000D01*
X31155000Y-157925000D02*
X43775000Y-157925000D01*
X34465000Y-152715000D02*
X40465000Y-152715000D01*
X31155000Y-151955000D02*
X31155000Y-157925000D01*
X43765000Y-152715000D02*
X43765000Y-151965000D01*
X43765000Y-154215000D02*
X43015000Y-154215000D01*
X32115000Y-151665000D02*
X30865000Y-151665000D01*
X31165000Y-154215000D02*
X31915000Y-154215000D01*
X32965000Y-151965000D02*
X31165000Y-151965000D01*
X43775000Y-151955000D02*
X31155000Y-151955000D01*
X43765000Y-151965000D02*
X41965000Y-151965000D01*
X43015000Y-154215000D02*
X43015000Y-157165000D01*
X40465000Y-152715000D02*
X40465000Y-151965000D01*
X32965000Y-152715000D02*
X32965000Y-151965000D01*
X30865000Y-151665000D02*
X30865000Y-152915000D01*
X43775000Y-157925000D02*
X43775000Y-151955000D01*
X34465000Y-151965000D02*
X34465000Y-152715000D01*
X41965000Y-151965000D02*
X41965000Y-152715000D01*
%TO.C,Load Cell 4*%
X108540000Y-151965000D02*
X106740000Y-151965000D01*
X96690000Y-154215000D02*
X96690000Y-155555000D01*
X99240000Y-152715000D02*
X105240000Y-152715000D01*
X107790000Y-157165000D02*
X102240000Y-157165000D01*
X102240000Y-157165000D02*
X97750000Y-157165000D01*
X95930000Y-151955000D02*
X95930000Y-157925000D01*
X95940000Y-154215000D02*
X96690000Y-154215000D01*
X108550000Y-151955000D02*
X95930000Y-151955000D01*
X108540000Y-152715000D02*
X108540000Y-151965000D01*
X106740000Y-151965000D02*
X106740000Y-152715000D01*
X96890000Y-151665000D02*
X95640000Y-151665000D01*
X105240000Y-152715000D02*
X105240000Y-151965000D01*
X95940000Y-152715000D02*
X97740000Y-152715000D01*
X108550000Y-157925000D02*
X108550000Y-151955000D01*
X97740000Y-152715000D02*
X97740000Y-151965000D01*
X97740000Y-151965000D02*
X95940000Y-151965000D01*
X95930000Y-157925000D02*
X108550000Y-157925000D01*
X95940000Y-151965000D02*
X95940000Y-152715000D01*
X106740000Y-152715000D02*
X108540000Y-152715000D01*
X99240000Y-151965000D02*
X99240000Y-152715000D01*
X108540000Y-154215000D02*
X107790000Y-154215000D01*
X105240000Y-151965000D02*
X99240000Y-151965000D01*
X95640000Y-151665000D02*
X95640000Y-152915000D01*
X107790000Y-154215000D02*
X107790000Y-157165000D01*
%TO.C,Load Cell Backup 1*%
X32090000Y-167700000D02*
X42830000Y-167700000D01*
X32090000Y-161940000D02*
X32090000Y-168260000D01*
X42830000Y-161940000D02*
X42830000Y-168260000D01*
X31850000Y-168500000D02*
X32350000Y-168500000D01*
X32090000Y-161940000D02*
X42830000Y-161940000D01*
X31850000Y-167760000D02*
X31850000Y-168500000D01*
X32090000Y-168260000D02*
X42830000Y-168260000D01*
X32090000Y-162400000D02*
X42830000Y-162400000D01*
%TO.C,Servo 1 Backup*%
X117845000Y-16450000D02*
X117075000Y-16450000D01*
X118085000Y-15650000D02*
X117585000Y-15650000D01*
X115495000Y-16450000D02*
X114535000Y-16450000D01*
X112955000Y-16450000D02*
X111995000Y-16450000D01*
X117845000Y-15890000D02*
X117075000Y-15890000D01*
X117845000Y-21750000D02*
X109645000Y-21750000D01*
X115495000Y-15890000D02*
X114535000Y-15890000D01*
X112955000Y-15890000D02*
X111995000Y-15890000D01*
X109645000Y-22210000D02*
X109645000Y-15890000D01*
X117845000Y-22210000D02*
X117845000Y-15890000D01*
X110415000Y-15890000D02*
X109645000Y-15890000D01*
X117845000Y-22210000D02*
X109645000Y-22210000D01*
X118085000Y-16390000D02*
X118085000Y-15650000D01*
X110415000Y-16450000D02*
X109645000Y-16450000D01*
%TD*%
M02*
